<?xml version="1.0" encoding="iso-8859-1"?>
<!-- Generator: Adobe Illustrator 16.0.0, SVG Export Plug-In . SVG Version: 6.00 Build 0)  -->
<!DOCTYPE svg PUBLIC "-//W3C//DTD SVG 1.1//EN" "http://www.w3.org/Graphics/SVG/1.1/DTD/svg11.dtd">
<svg version="1.1" xmlns="http://www.w3.org/2000/svg" xmlns:xlink="http://www.w3.org/1999/xlink" x="0px" y="0px" width="200px"
	 height="200px" viewBox="0 0 200 200" style="enable-background:new 0 0 200 200;" xml:space="preserve">
<g id="_x30_">
	<g id="_x30__x2C__00_x2C__-">
		<g>
			<path style="fill:#FFFFFF;" d="M77.512,162.531l28.567-4.049c4.014-0.569,7.729,2.226,8.299,6.24
				c0.567,4.016-2.226,7.73-6.239,8.301c-0.688,0.098-1.404,0.088-2.06,0l-28.567-4.047c-1.781-0.252-3.018-1.898-2.766-3.681
				C74.954,163.829,76.111,162.729,77.512,162.531z"/>
			<path style="fill:#FFFFFF;" d="M81.154,136.277l52.241-4.049c4.017-0.311,7.522,2.691,7.834,6.709
				c0.312,4.016-2.69,7.521-6.707,7.832c-0.367,0.03-0.771,0.027-1.127,0l-52.241-4.045c-1.781-0.14-3.111-1.692-2.973-3.476
				C78.307,137.641,79.592,136.396,81.154,136.277z"/>
			<path style="fill:#FFFFFF;" d="M51.713,110.023l78.04-4.047c4.017-0.207,7.438,2.877,7.646,6.895
				c0.211,4.018-2.877,7.439-6.891,7.646c-0.252,0.015-0.51,0.012-0.756,0l-78.04-4.045c-1.782-0.094-3.148-1.613-3.056-3.393
				C48.743,111.419,50.089,110.114,51.713,110.023z"/>
			<path style="fill:#FFFFFF;" d="M25.004,83.617l90.635-4.05c4.018-0.178,7.416,2.931,7.598,6.948
				c0.179,4.014-2.932,7.415-6.947,7.594c-0.214,0.009-0.439,0.009-0.65,0l-90.634-4.046c-1.782-0.08-3.16-1.588-3.08-3.367
				C21.999,85.014,23.355,83.694,25.004,83.617z"/>
			<path style="fill:#FFFFFF;" d="M33.045,57.364l110.975-4.049c4.013-0.146,7.39,2.991,7.533,7.007
				c0.146,4.014-2.99,7.389-7.004,7.535c-0.176,0.005-0.361,0.005-0.529,0L33.045,63.811c-1.779-0.065-3.169-1.562-3.104-3.34
				C30.001,58.772,31.376,57.429,33.045,57.364z"/>
			<path style="fill:#FFFFFF;" d="M42.758,30.959l127.816-4.049c4.017-0.127,7.374,3.027,7.501,7.044
				c0.128,4.012-3.025,7.37-7.039,7.498c-0.147,0.006-0.317,0.006-0.462,0L42.758,37.406c-1.782-0.056-3.177-1.547-3.121-3.326
				C39.69,32.371,41.075,31.016,42.758,30.959z"/>
		</g>
	</g>
</g>
<g id="Layer_1">
</g>
</svg>
