<?xml version="1.0" encoding="iso-8859-1"?>
<!-- Generator: Adobe Illustrator 16.0.0, SVG Export Plug-In . SVG Version: 6.00 Build 0)  -->
<!DOCTYPE svg PUBLIC "-//W3C//DTD SVG 1.1//EN" "http://www.w3.org/Graphics/SVG/1.1/DTD/svg11.dtd">
<svg version="1.1" xmlns="http://www.w3.org/2000/svg" xmlns:xlink="http://www.w3.org/1999/xlink" x="0px" y="0px" width="200px"
	 height="200px" viewBox="0 0 200 200" style="enable-background:new 0 0 200 200;" xml:space="preserve">
<g id="_x31_">
	<g id="_x31__x2C__01_x2C__2_x2C__02">
		<g>
			<path style="fill:#FFFFFF;" d="M162.37,19.571c-1.761-1.754-4.488-1.942-6.461-0.578l-0.015-0.018L81.562,61.892
				c-1.055,0.51-2.102,1.058-3.129,1.667c-20.127,11.909-26.787,37.88-14.874,58.009c3.237,5.471,7.519,9.939,12.438,13.317
				L37.94,172.943l-0.312,0.312h0.004c-1.977,1.985-1.979,5.199-0.004,7.173c1.761,1.762,4.486,1.941,6.459,0.577l0.015,0.022
				l74.343-42.918c1.053-0.512,2.096-1.059,3.119-1.664c20.129-11.909,26.789-37.883,14.877-58.005
				c-3.24-5.474-7.524-9.943-12.443-13.324l38.062-38.058l0.312-0.313h-0.009C164.344,24.768,164.344,21.551,162.37,19.571z
				 M107.562,112.784c-7.057,4.174-16.167,1.84-20.346-5.222c-4.174-7.057-1.838-16.167,5.221-20.347
				c7.057-4.177,16.167-1.839,20.343,5.221C116.957,99.496,114.625,108.604,107.562,112.784z"/>
		</g>
	</g>
</g>
<g id="Layer_1">
</g>
</svg>
