<?xml version="1.0" encoding="iso-8859-1"?>
<!-- Generator: Adobe Illustrator 16.0.0, SVG Export Plug-In . SVG Version: 6.00 Build 0)  -->
<!DOCTYPE svg PUBLIC "-//W3C//DTD SVG 1.1//EN" "http://www.w3.org/Graphics/SVG/1.1/DTD/svg11.dtd">
<svg version="1.1" xmlns="http://www.w3.org/2000/svg" xmlns:xlink="http://www.w3.org/1999/xlink" x="0px" y="0px" width="200px"
	 height="200px" viewBox="0 0 200 200" style="enable-background:new 0 0 200 200;" xml:space="preserve">
<g id="_x31_2">
	<g id="_x31_2_1_">
		<g>
			<g>
				<path style="fill:#6EC4E9;" d="M83.27,117.2c0.203-0.677-0.248-1.373-1.006-1.556c-0.676-0.16-1.363,0.142-1.652,0.684h-0.006
					L68.11,135.633c-0.258,0.355-0.465,0.76-0.596,1.19c-0.678,2.27,0.829,4.598,3.37,5.202c2.517,0.601,5.098-0.715,5.809-2.94
					l0.002,0.002l6.543-21.776L83.27,117.2L83.27,117.2z"/>
				<path style="fill:#6EC4E9;" d="M132.602,117.2c0.2-0.677-0.25-1.373-1.009-1.556c-0.675-0.16-1.366,0.142-1.651,0.684h-0.006
					l-12.498,19.305c-0.258,0.355-0.461,0.76-0.592,1.19c-0.679,2.27,0.827,4.598,3.365,5.202c2.518,0.601,5.1-0.715,5.812-2.94
					v0.002l6.543-21.776L132.602,117.2L132.602,117.2z"/>
				<path style="fill:#6EC4E9;" d="M107.491,115.652c-0.753-0.18-1.519,0.154-1.843,0.762l-0.008-0.003l-25.985,40.104
					c-0.459,0.646-0.824,1.356-1.057,2.137c-1.215,4.048,1.475,8.203,6.012,9.287c4.51,1.076,9.139-1.289,10.387-5.287h0.006
					l6.248-20.797c0.008-0.025,0.021-0.051,0.03-0.078l0.004,0.002l7.293-24.274l0.034-0.12l0,0
					C108.837,116.632,108.336,115.855,107.491,115.652z"/>
			</g>
			<g>
				<path style="fill:#FFFFFF;" d="M173.079,75.619c-3.509-13.098-16.916-20.898-30.019-17.504c-0.006,0-0.947,0.255-2.637,0.707
					c-4.172-15.562-18.365-27.021-35.24-27.021c-18.308,0-33.461,13.489-36.079,31.074c-0.62-0.168-0.959-0.258-0.959-0.258
					c-11.059-2.863-22.379,3.723-25.341,14.778c-0.697,2.607-0.854,5.225-0.564,7.754c-5.549,1.488-8.928,2.394-8.941,2.402
					c-5.201,1.39-8.288,6.729-6.893,11.932c1.225,4.563,5.482,7.492,10.019,7.208h112.215c0,0,4.648-0.219,6.987-0.838
					C168.794,102.318,176.605,88.787,173.079,75.619z"/>
			</g>
		</g>
	</g>
</g>
<g id="Layer_1">
</g>
</svg>
