<?xml version="1.0" encoding="iso-8859-1"?>
<!-- Generator: Adobe Illustrator 16.0.0, SVG Export Plug-In . SVG Version: 6.00 Build 0)  -->
<!DOCTYPE svg PUBLIC "-//W3C//DTD SVG 1.1//EN" "http://www.w3.org/Graphics/SVG/1.1/DTD/svg11.dtd">
<svg version="1.1" xmlns="http://www.w3.org/2000/svg" xmlns:xlink="http://www.w3.org/1999/xlink" x="0px" y="0px" width="200px"
	 height="200px" viewBox="0 0 200 200" style="enable-background:new 0 0 200 200;" xml:space="preserve">
<g id="_x31_3">
	<g id="_x31_3_x2C__14_x2C__15_x2C__16_x2C__41_x2C__42_x2C__43_x2C__46__x0D_">
		<g>
			<path style="fill:#FFFFFF;" d="M161.016,106.003l-0.136,0.035l-26.383,7.067l-25.282-14.597L134.5,83.912l26.38,7.069
				l0.136,0.036c0.855,0.23,1.731-0.278,1.961-1.136c0.207-0.759-0.175-1.535-0.858-1.859l0.003-0.006l-17.627-10.18l16.176-12.353
				l-0.005-0.008c0.64-0.41,0.914-1.23,0.617-1.955c-0.337-0.822-1.274-1.213-2.095-0.875l0,0l-0.127,0.052l-18.849,7.758V50.069
				h-0.008c0.062-0.756-0.42-1.475-1.181-1.677c-0.856-0.229-1.733,0.279-1.963,1.133h-0.002l-0.035,0.135l-7.067,26.379
				l-25.284,14.602v-29.2l19.311-19.31l0.1-0.098l0,0c0.625-0.629,0.625-1.641,0-2.27c-0.555-0.557-1.418-0.614-2.042-0.184
				l-0.008-0.005L104.38,49.769l-2.707-20.203l-0.021-0.138l0,0c-0.116-0.877-0.922-1.496-1.805-1.376
				c-0.773,0.104-1.348,0.753-1.383,1.511l-0.01,0.003L95.846,49.75L78.217,39.572l-0.002,0.008
				c-0.625-0.43-1.486-0.373-2.043,0.184c-0.625,0.625-0.627,1.641,0,2.267l0.098,0.098l19.314,19.312V90.64L70.299,76.039
				l-7.07-26.379l-0.035-0.135l0,0c-0.229-0.854-1.109-1.362-1.966-1.133c-0.756,0.202-1.24,0.921-1.181,1.677h-0.005v20.387
				l-18.849-7.758l-0.127-0.052h0.002c-0.822-0.338-1.759,0.052-2.097,0.875c-0.297,0.725-0.022,1.545,0.617,1.955l-0.002,0.008
				l16.176,12.353l-17.628,10.18l0.005,0.006c-0.689,0.324-1.068,1.1-0.863,1.859c0.229,0.857,1.108,1.366,1.963,1.136l0.134-0.036
				l26.381-7.069l25.287,14.598l-25.287,14.597l-26.379-7.067l-0.137-0.035c-0.854-0.229-1.731,0.278-1.963,1.134
				c-0.203,0.76,0.177,1.535,0.863,1.86l-0.002,0.006l17.628,10.177l-16.179,12.356l0.002,0.008
				c-0.639,0.409-0.914,1.229-0.614,1.952c0.335,0.825,1.274,1.214,2.094,0.876l0,0l0.127-0.051l18.847-7.763v20.388l0.008,0.003
				c-0.062,0.757,0.421,1.476,1.18,1.675c0.854,0.229,1.734-0.276,1.963-1.135v0.003l0.038-0.135l7.067-26.385l25.285-14.595v29.195
				l-19.314,19.31l-0.098,0.1l0,0c-0.625,0.627-0.625,1.642,0,2.271c0.555,0.556,1.418,0.613,2.043,0.181l0.004,0.008l17.654-10.193
				l2.707,20.203l0.018,0.137c0.119,0.877,0.924,1.496,1.807,1.377c0.774-0.104,1.349-0.756,1.385-1.511l0.008-0.003l2.608-20.186
				l17.631,10.18l0.003-0.012c0.624,0.434,1.483,0.375,2.042-0.181c0.625-0.627,0.627-1.644,0-2.269l-0.1-0.098l-19.311-19.312
				v-29.195l25.281,14.596l7.07,26.385l0.035,0.134v-0.003c0.229,0.857,1.107,1.365,1.963,1.135c0.76-0.199,1.242-0.918,1.183-1.675
				l0.006-0.003v-20.389l18.851,7.762l0.127,0.051h-0.004c0.819,0.338,1.762-0.051,2.099-0.876c0.297-0.722,0.022-1.543-0.617-1.952
				l0.003-0.008L144.49,119.18l17.626-10.176l-0.003-0.006c0.686-0.325,1.064-1.102,0.861-1.861
				C162.747,106.281,161.868,105.771,161.016,106.003z"/>
		</g>
	</g>
</g>
<g id="Layer_1">
</g>
</svg>
