<?xml version="1.0" encoding="iso-8859-1"?>
<!-- Generator: Adobe Illustrator 16.0.0, SVG Export Plug-In . SVG Version: 6.00 Build 0)  -->
<!DOCTYPE svg PUBLIC "-//W3C//DTD SVG 1.1//EN" "http://www.w3.org/Graphics/SVG/1.1/DTD/svg11.dtd">
<svg version="1.1" xmlns="http://www.w3.org/2000/svg" xmlns:xlink="http://www.w3.org/1999/xlink" x="0px" y="0px" width="200px"
	 height="200px" viewBox="0 0 200 200" style="enable-background:new 0 0 200 200;" xml:space="preserve">
<g id="_x31_7">
	<g id="_x31_7_1_">
		<g>
			<path style="fill:#FFFFFF;" d="M170.632,61.027c-3.394-12.66-16.351-20.199-29.014-16.922c-0.005,0-0.914,0.246-2.548,0.683
				c-4.031-15.039-17.75-26.115-34.059-26.115c-17.696,0-32.343,13.039-34.872,30.033c-0.598-0.16-0.927-0.247-0.93-0.247
				c-10.686-2.77-21.626,3.594-24.489,14.279c-0.675,2.522-0.825,5.051-0.544,7.498c-5.365,1.439-8.63,2.311-8.643,2.317
				c-5.026,1.349-8.009,6.508-6.661,11.537c1.183,4.41,5.298,7.236,9.683,6.962h108.452c0,0,4.494-0.208,6.756-0.81
				C166.488,86.831,174.039,73.75,170.632,61.027z"/>
		</g>
		<g>
			<path style="fill:#FFFFFF;" d="M90.533,172.723c0,4.75-3.855,8.604-8.607,8.604c-4.756,0-8.612-3.854-8.612-8.604
				c0-4.761,3.856-8.613,8.612-8.613C86.678,164.107,90.533,167.962,90.533,172.723z"/>
			<circle style="fill:#FFFFFF;" cx="64.171" cy="135.647" r="5.284"/>
			<circle style="fill:#FFFFFF;" cx="126.964" cy="135.647" r="5.283"/>
			<path style="fill:#FFFFFF;" d="M132.62,123.911c-0.218,0-0.44-0.041-0.654-0.13c-0.883-0.36-1.305-1.37-0.942-2.25l6.771-16.514
				c0.358-0.883,1.367-1.305,2.249-0.942c0.881,0.362,1.303,1.37,0.941,2.253l-6.767,16.512
				C133.941,123.508,133.3,123.911,132.62,123.911z"/>
			<path style="fill:#FFFFFF;" d="M93.586,156.389c-0.217,0-0.439-0.041-0.654-0.13c-0.881-0.36-1.303-1.368-0.941-2.251
				L114.77,98.43c0.358-0.883,1.367-1.304,2.246-0.943c0.881,0.361,1.303,1.37,0.945,2.252l-22.779,55.579
				C94.91,155.984,94.262,156.389,93.586,156.389z"/>
			<path style="fill:#FFFFFF;" d="M90.1,139.844c-0.217,0-0.438-0.043-0.652-0.13c-0.883-0.362-1.303-1.369-0.941-2.252
				l10.598-25.854c0.361-0.883,1.365-1.303,2.249-0.942c0.883,0.362,1.304,1.37,0.941,2.249l-10.597,25.857
				C91.424,139.438,90.779,139.844,90.1,139.844z"/>
			<path style="fill:#FFFFFF;" d="M73.856,113.984c-0.218,0-0.438-0.043-0.653-0.131c-0.878-0.36-1.301-1.365-0.942-2.248
				l5.402-13.176c0.361-0.883,1.367-1.304,2.248-0.943c0.883,0.361,1.305,1.37,0.943,2.252l-5.4,13.175
				C75.18,113.581,74.537,113.984,73.856,113.984z"/>
		</g>
	</g>
</g>
<g id="Layer_1">
</g>
</svg>
