<?xml version="1.0" encoding="iso-8859-1"?>
<!-- Generator: Adobe Illustrator 16.0.0, SVG Export Plug-In . SVG Version: 6.00 Build 0)  -->
<!DOCTYPE svg PUBLIC "-//W3C//DTD SVG 1.1//EN" "http://www.w3.org/Graphics/SVG/1.1/DTD/svg11.dtd">
<svg version="1.1" xmlns="http://www.w3.org/2000/svg" xmlns:xlink="http://www.w3.org/1999/xlink" x="0px" y="0px" width="200px"
	 height="200px" viewBox="0 0 200 200" style="enable-background:new 0 0 200 200;" xml:space="preserve">
<g id="_x31_9">
	<g id="_x31_9_x2C__20_x2C__21_x2C__22">
		<g>
			<path style="fill:#FFFFFF;" d="M170.62,67.906c-0.642-0.848-1.849-1.015-2.69-0.369l-3.324,2.562c-0.002,0-0.01-0.002-0.01-0.002
				c-0.707,0.768-5.425,3.797-10.898,3.906c-3.789,0.072-7.104-1.289-9.867-4.053c-9.004-9.006-19.282-4.076-23.457-0.212
				l0.003,0.003c0,0.002-0.005,0.002-0.008,0.005c-0.707,0.766-5.567,3.968-11.044,4.077c-3.785,0.074-7.102-1.289-9.866-4.053
				c-9-9.001-19.273-4.08-23.453-0.218c-0.004,0-0.006-0.002-0.006-0.002c-0.709,0.768-5.613,4.028-11.09,4.141
				c-3.79,0.071-7.101-1.289-9.867-4.056c-8.791-8.793-18.796-4.3-23.149-0.486l-2.232,1.549c-0.848,0.641-0.92,1.954-0.279,2.799
				c0.638,0.848,1.847,1.018,2.695,0.377l2.112-1.629v0.003c0.005-0.005,0.016-0.013,0.019-0.019l1.256-0.967v-0.014
				c2.852-2.006,10.017-5.746,16.865,1.103c3.962,3.962,8.328,5.198,12.229,5.198c3.359,0,6.373-0.914,8.486-1.791
				c1.121-0.465,4.191-1.807,5.57-3.385c0.479-0.436,9.551-8.462,18.129,0.114c3.965,3.962,8.327,5.198,12.229,5.198
				c3.358,0,6.371-0.917,8.487-1.792c1.103-0.457,4.095-1.793,5.492-3.356l0.024,0.021c0.385-0.351,9.512-8.518,18.14,0.106
				c3.962,3.965,8.327,5.198,12.229,5.198c3.355,0,6.372-0.914,8.484-1.791c0.965-0.398,3.372-1.47,4.898-2.775l3.609-2.59
				C171.188,70.064,171.257,68.754,170.62,67.906z"/>
			<path style="fill:#FFFFFF;" d="M170.62,125.499c-0.642-0.849-1.849-1.019-2.69-0.37l-3.324,2.562c-0.002,0-0.01-0.004-0.01-0.004
				c-0.707,0.77-5.425,3.799-10.898,3.908c-3.789,0.071-7.104-1.289-9.867-4.057c-9.004-9.004-19.282-4.074-23.457-0.21l0.003,0.003
				c0,0-0.005,0-0.008,0.003c-0.707,0.767-5.567,3.97-11.044,4.079c-3.785,0.07-7.102-1.289-9.866-4.055
				c-9-9.002-19.273-4.082-23.453-0.217c-0.004,0-0.006-0.002-0.006-0.002c-0.709,0.766-5.613,4.027-11.09,4.137
				c-3.79,0.074-7.101-1.288-9.867-4.053c-8.791-8.793-18.796-4.3-23.149-0.485l-2.232,1.547c-0.848,0.64-0.92,1.953-0.279,2.801
				c0.638,0.849,1.847,1.015,2.695,0.375l2.112-1.627l0,0c0.005-0.003,0.016-0.015,0.019-0.017l1.256-0.971v-0.013
				c2.852-2.007,10.017-5.745,16.865,1.103c3.962,3.965,8.328,5.201,12.229,5.198c3.359,0,6.373-0.913,8.486-1.788
				c1.121-0.466,4.191-1.81,5.57-3.389c0.479-0.434,9.551-8.461,18.129,0.114c3.965,3.965,8.327,5.2,12.229,5.198
				c3.358,0,6.371-0.914,8.487-1.791c1.103-0.457,4.095-1.795,5.492-3.354l0.024,0.021c0.385-0.351,9.512-8.517,18.14,0.106
				c3.962,3.965,8.327,5.198,12.229,5.198c3.355,0,6.372-0.917,8.484-1.792c0.965-0.398,3.372-1.47,4.898-2.775l3.609-2.589
				C171.188,127.656,171.257,126.344,170.62,125.499z"/>
			<path style="fill:#FFFFFF;" d="M170.62,86.71c-0.642-0.848-1.849-1.019-2.69-0.37l-3.324,2.562c-0.002,0-0.01-0.002-0.01-0.002
				c-0.707,0.766-5.425,3.797-10.898,3.906c-3.789,0.072-7.104-1.289-9.867-4.052c-9.004-9.006-19.282-4.077-23.457-0.213
				l0.003,0.002c0,0-0.005,0-0.008,0.003c-0.707,0.768-5.567,3.971-11.044,4.079c-3.785,0.072-7.102-1.289-9.866-4.053
				c-9-9-19.273-4.079-23.453-0.218c-0.004,0-0.006-0.003-0.006-0.003c-0.709,0.766-5.613,4.029-11.09,4.138
				c-3.79,0.074-7.101-1.289-9.867-4.053c-8.791-8.793-18.796-4.3-23.149-0.486L29.66,89.5c-0.848,0.64-0.92,1.951-0.279,2.798
				c0.638,0.848,1.847,1.018,2.695,0.377l2.112-1.629l0,0c0.005-0.002,0.016-0.01,0.019-0.016l1.256-0.97v-0.014
				c2.852-2.003,10.017-5.745,16.865,1.106c3.962,3.962,8.328,5.198,12.229,5.198c3.359,0,6.373-0.915,8.486-1.792
				c1.121-0.462,4.191-1.81,5.57-3.388c0.479-0.433,9.551-8.461,18.129,0.117c3.965,3.962,8.328,5.195,12.229,5.195
				c3.359,0,6.372-0.914,8.488-1.789c1.104-0.46,4.096-1.794,5.492-3.356l0.023,0.024c0.387-0.354,9.514-8.52,18.141,0.104
				c3.962,3.965,8.328,5.201,12.23,5.201c3.354,0,6.371-0.917,8.483-1.791c0.965-0.401,3.372-1.472,4.897-2.777l3.61-2.591
				C171.188,88.868,171.257,87.558,170.62,86.71z"/>
			<path style="fill:#FFFFFF;" d="M170.62,106.298c-0.642-0.845-1.849-1.016-2.69-0.366l-3.324,2.562
				c-0.002,0-0.01-0.002-0.01-0.002c-0.707,0.766-5.425,3.797-10.898,3.903c-3.789,0.073-7.104-1.287-9.867-4.052
				c-9.004-9.005-19.282-4.075-23.457-0.212l0.003,0.002c0,0.003-0.005,0.003-0.008,0.003c-0.707,0.769-5.567,3.97-11.044,4.079
				c-3.785,0.074-7.102-1.289-9.866-4.052c-9-9.004-19.273-4.079-23.453-0.22c-0.004,0-0.006-0.002-0.006-0.002
				c-0.709,0.766-5.613,4.029-11.09,4.139c-3.79,0.074-7.101-1.287-9.867-4.053c-8.791-8.794-18.796-4.303-23.149-0.486
				l-2.232,1.549c-0.848,0.639-0.92,1.951-0.279,2.799c0.638,0.846,1.847,1.016,2.695,0.375l2.112-1.627l0,0
				c0.005-0.002,0.016-0.013,0.019-0.016l1.256-0.971v-0.012c2.852-2.005,10.017-5.744,16.865,1.104
				c3.962,3.963,8.328,5.199,12.229,5.199c3.359,0,6.373-0.918,8.486-1.791c1.121-0.465,4.191-1.812,5.57-3.39
				c0.479-0.434,9.551-8.462,18.129,0.117c3.965,3.963,8.327,5.195,12.229,5.195c3.358,0,6.371-0.915,8.487-1.789
				c1.103-0.459,4.095-1.798,5.492-3.356l0.024,0.022c0.385-0.353,9.512-8.519,18.14,0.104c3.962,3.965,8.327,5.2,12.229,5.197
				c3.355,0,6.372-0.914,8.484-1.79c0.965-0.397,3.372-1.474,4.898-2.774l3.609-2.594
				C171.188,108.458,171.257,107.148,170.62,106.298z"/>
		</g>
	</g>
</g>
<g id="Layer_1">
</g>
</svg>
