<?xml version="1.0" encoding="iso-8859-1"?>
<!-- Generator: Adobe Illustrator 16.0.0, SVG Export Plug-In . SVG Version: 6.00 Build 0)  -->
<!DOCTYPE svg PUBLIC "-//W3C//DTD SVG 1.1//EN" "http://www.w3.org/Graphics/SVG/1.1/DTD/svg11.dtd">
<svg version="1.1" xmlns="http://www.w3.org/2000/svg" xmlns:xlink="http://www.w3.org/1999/xlink" x="0px" y="0px" width="200px"
	 height="200px" viewBox="0 0 200 200" style="enable-background:new 0 0 200 200;" xml:space="preserve">
<g id="_x32_3">
	<g id="_x32_3_1_">
		<g>
			<g>
				<path style="fill:#FFFFFF;" d="M64.027,93.953c-3.683,0-6.671-2.99-6.671-6.673c0-3.687,2.988-6.671,6.671-6.671h89.227
					c4.305-0.055,8.344-1.648,11.294-4.484c3.056-2.937,4.761-6.841,4.804-10.996c0.035-3.162-1.16-6.145-3.373-8.4
					c-2.215-2.264-5.174-3.527-8.336-3.559h-0.1c-2.311,0-4.497,0.893-6.16,2.514c-1.669,1.635-2.607,3.84-2.634,6.188
					c-0.008,0.958,0.188,1.875,0.586,2.733c1.552,3.342,0.101,7.31-3.241,8.861c-3.343,1.555-7.31,0.101-8.861-3.241
					c-1.242-2.674-1.855-5.533-1.824-8.496c0.062-5.91,2.422-11.443,6.646-15.583c4.176-4.077,9.676-6.319,15.488-6.319h0.165
					c6.801,0.07,13.101,2.757,17.806,7.567c4.705,4.804,7.258,11.157,7.178,17.884c-0.078,7.756-3.238,15.027-8.896,20.466
					c-5.401,5.195-12.668,8.111-20.457,8.21L64.027,93.953L64.027,93.953z"/>
			</g>
			<g>
				<path style="fill:#FFFFFF;" d="M132.314,160.175c-5.813,0-11.311-2.241-15.477-6.311c-4.232-4.149-6.597-9.688-6.656-15.599
					c-0.031-2.957,0.582-5.815,1.822-8.49c1.553-3.342,5.518-4.793,8.862-3.24c3.341,1.552,4.792,5.52,3.239,8.859
					c-0.396,0.854-0.594,1.773-0.58,2.729c0.021,2.353,0.961,4.552,2.642,6.2c1.651,1.609,3.837,2.506,6.147,2.506h0.168
					c3.096-0.031,6.055-1.296,8.266-3.559c2.215-2.261,3.412-5.238,3.376-8.396c-0.044-4.162-1.749-8.066-4.801-11
					c-2.954-2.838-6.993-4.434-11.38-4.484H23.977c-3.686,0-6.671-2.988-6.671-6.672c0-3.688,2.986-6.673,6.671-6.673h104.05
					c7.875,0.099,15.141,3.013,20.543,8.211c5.656,5.435,8.816,12.704,8.897,20.472c0.078,6.721-2.473,13.071-7.186,17.881
					c-4.701,4.808-11,7.494-17.732,7.564L132.314,160.175L132.314,160.175z"/>
			</g>
		</g>
	</g>
</g>
<g id="Layer_1">
</g>
</svg>
