<?xml version="1.0" encoding="iso-8859-1"?>
<!-- Generator: Adobe Illustrator 16.0.0, SVG Export Plug-In . SVG Version: 6.00 Build 0)  -->
<!DOCTYPE svg PUBLIC "-//W3C//DTD SVG 1.1//EN" "http://www.w3.org/Graphics/SVG/1.1/DTD/svg11.dtd">
<svg version="1.1" xmlns="http://www.w3.org/2000/svg" xmlns:xlink="http://www.w3.org/1999/xlink" x="0px" y="0px" width="200px"
	 height="200px" viewBox="0 0 200 200" style="enable-background:new 0 0 200 200;" xml:space="preserve">
<g id="_x32_4">
	<g id="_x32_4_1_">
		<g>
			<g>
				<path style="fill:#FFFFFF;" d="M158.62,69.842c-3.483-13.001-16.792-20.744-29.796-17.378c-0.006,0-0.94,0.254-2.617,0.701
					c-4.141-15.442-18.229-26.817-34.977-26.817c-18.173,0-33.214,13.391-35.811,30.842c-0.615-0.164-0.951-0.253-0.954-0.253
					c-10.974-2.844-22.21,3.691-25.15,14.665c-0.692,2.59-0.847,5.186-0.56,7.7c-5.508,1.479-8.861,2.374-8.875,2.38
					c-5.162,1.384-8.225,6.682-6.84,11.848c1.214,4.528,5.439,7.43,9.944,7.149h111.375c0,0,4.615-0.214,6.938-0.832
					C154.366,96.342,162.118,82.908,158.62,69.842z"/>
			</g>
			<g>
				<g>
					<path style="fill:#FFFFFF;" d="M110.844,130.992c-2.371,0-4.297-1.926-4.297-4.297c0-2.372,1.926-4.299,4.297-4.299h57.481
						c2.772-0.035,5.375-1.061,7.272-2.889c1.969-1.892,3.065-4.406,3.094-7.084c0.025-2.037-0.743-3.957-2.17-5.413
						c-1.429-1.458-3.334-2.271-5.371-2.293h-0.064c-1.486,0-2.896,0.578-3.966,1.62c-1.076,1.057-1.683,2.477-1.698,3.986
						c-0.005,0.619,0.118,1.21,0.378,1.762c1,2.15,0.063,4.709-2.086,5.707c-2.155,1.002-4.711,0.064-5.71-2.087
						c-0.801-1.726-1.195-3.563-1.175-5.474c0.038-3.806,1.56-7.373,4.28-10.041c2.69-2.625,6.232-4.068,9.977-4.068h0.107
						c4.381,0.042,8.438,1.773,11.472,4.874c3.033,3.094,4.674,7.188,4.624,11.521c-0.051,4.998-2.09,9.682-5.73,13.184
						c-3.48,3.347-8.16,5.227-13.179,5.288L110.844,130.992L110.844,130.992z"/>
				</g>
				<g>
					<path style="fill:#FFFFFF;" d="M154.835,173.652c-3.745,0-7.288-1.442-9.971-4.063c-2.728-2.675-4.248-6.237-4.287-10.047
						c-0.021-1.906,0.373-3.749,1.174-5.476c1.002-2.149,3.556-3.084,5.71-2.086c2.15,1.002,3.087,3.559,2.086,5.709
						c-0.254,0.552-0.383,1.144-0.374,1.761c0.015,1.515,0.621,2.933,1.702,3.991c1.064,1.039,2.473,1.615,3.96,1.615h0.108
						c1.994-0.021,3.9-0.834,5.322-2.291c1.43-1.457,2.198-3.375,2.178-5.41c-0.028-2.684-1.127-5.195-3.096-7.088
						c-1.899-1.826-4.502-2.854-7.328-2.89H85.043c-2.375,0-4.297-1.923-4.297-4.297s1.922-4.297,4.297-4.297h67.032
						c5.069,0.062,9.749,1.94,13.229,5.289c3.646,3.503,5.682,8.185,5.733,13.19c0.05,4.327-1.595,8.42-4.626,11.516
						c-3.03,3.096-7.09,4.826-11.426,4.871h-0.151V173.652z"/>
				</g>
			</g>
		</g>
	</g>
</g>
<g id="Layer_1">
</g>
</svg>
