<?xml version="1.0" encoding="iso-8859-1"?>
<!-- Generator: Adobe Illustrator 16.0.0, SVG Export Plug-In . SVG Version: 6.00 Build 0)  -->
<!DOCTYPE svg PUBLIC "-//W3C//DTD SVG 1.1//EN" "http://www.w3.org/Graphics/SVG/1.1/DTD/svg11.dtd">
<svg version="1.1" xmlns="http://www.w3.org/2000/svg" xmlns:xlink="http://www.w3.org/1999/xlink" x="0px" y="0px"
	 width="136.261px" height="136.262px" viewBox="0 0 136.261 136.262" enable-background="new 0 0 136.261 136.262"
	 xml:space="preserve">
<g id="_x32_5">
	<g id="_x32_5_x2C__44_x2C__na">
		<path fill="#FFFFFF" d="M68.129,0C30.502,0,0,30.502,0,68.129c0,37.631,30.502,68.133,68.129,68.133
			c37.626,0,68.132-30.502,68.132-68.133C136.261,30.502,105.755,0,68.129,0z M55.154,74.255H27.037
			c-3.508,0-6.351-2.844-6.351-6.352c0-3.505,2.843-6.348,6.351-6.348h28.118c3.506,0,6.35,2.843,6.35,6.348
			C61.504,71.411,58.66,74.255,55.154,74.255z M108.676,74.255H80.559c-3.509,0-6.352-2.844-6.352-6.352
			c0-3.505,2.843-6.348,6.352-6.348h28.117c3.505,0,6.35,2.843,6.35,6.348C115.025,71.411,112.181,74.255,108.676,74.255z"/>
	</g>
</g>
<g id="Layer_1">
</g>
</svg>
