<?xml version="1.0" encoding="iso-8859-1"?>
<!-- Generator: Adobe Illustrator 16.0.0, SVG Export Plug-In . SVG Version: 6.00 Build 0)  -->
<!DOCTYPE svg PUBLIC "-//W3C//DTD SVG 1.1//EN" "http://www.w3.org/Graphics/SVG/1.1/DTD/svg11.dtd">
<svg version="1.1" xmlns="http://www.w3.org/2000/svg" xmlns:xlink="http://www.w3.org/1999/xlink" x="0px" y="0px" width="200px"
	 height="200px" viewBox="0 0 200 200" style="enable-background:new 0 0 200 200;" xml:space="preserve">
<g id="_x32_6">
	<g id="_x32_6_1_">
		<g>
			<path style="fill:#FFFFFF;" d="M174.271,105.066c-3.617-13.5-17.436-21.538-30.939-18.043c-0.008,0-0.977,0.26-2.719,0.729
				c-4.301-16.038-18.93-27.848-36.319-27.848c-18.871,0-34.492,13.904-37.188,32.028c-0.638-0.17-0.987-0.266-0.991-0.266
				C54.719,88.716,43.053,95.5,40,106.896c-0.721,2.688-0.878,5.387-0.58,7.994c-5.721,1.532-9.203,2.469-9.216,2.471
				c-5.36,1.438-8.541,6.94-7.104,12.305c1.261,4.701,5.651,7.718,10.328,7.428h115.651c0,0,4.794-0.223,7.203-0.865
				C169.852,132.589,177.902,118.641,174.271,105.066z"/>
		</g>
	</g>
</g>
<g id="Layer_1">
</g>
</svg>
