<?xml version="1.0" encoding="iso-8859-1"?>
<!-- Generator: Adobe Illustrator 16.0.0, SVG Export Plug-In . SVG Version: 6.00 Build 0)  -->
<!DOCTYPE svg PUBLIC "-//W3C//DTD SVG 1.1//EN" "http://www.w3.org/Graphics/SVG/1.1/DTD/svg11.dtd">
<svg version="1.1" xmlns="http://www.w3.org/2000/svg" xmlns:xlink="http://www.w3.org/1999/xlink" x="0px" y="0px" width="200px"
	 height="200px" viewBox="0 0 200 200" style="enable-background:new 0 0 200 200;" xml:space="preserve">
<g id="_x32_7">
	<g id="_x32_7_1_">
		<g>
			<path style="fill:#FFFFFF;" d="M183.125,105.989c-2.016-7.52-9.708-11.995-17.229-10.046c-0.006,0-0.545,0.145-1.516,0.406
				c-2.393-8.931-10.539-15.509-20.227-15.509c-6.404,0-12.123,2.886-15.963,7.418c2.719,3.166,5.004,6.74,6.75,10.634
				c1.416-0.189,2.842-0.286,4.269-0.286c14.513,0,27.276,9.805,31.039,23.839c0.11,0.425,0.177,0.849,0.272,1.275
				c0.852-0.076,1.893-0.197,2.586-0.381C180.664,121.312,185.148,113.547,183.125,105.989z"/>
		</g>
		<path style="fill:#FFFFFF;" d="M164.77,122.93c-3.541-13.223-17.076-21.097-30.299-17.672c-0.006,0-0.955,0.258-2.662,0.715
			C127.598,90.266,113.271,78.7,96.239,78.7c-11.254,0-21.309,5.069-28.062,13.029c0.5,1.01,1.025,2.014,1.596,3.004
			c8.453,14.643,23.095,24.107,37.302,24.107c2.522,0,4.993-0.304,7.351-0.9c2.489-0.635,5.098,0.506,6.328,2.764
			c1.232,2.256,0.781,5.061-1.102,6.812c-3.059,2.858-6.43,5.359-10.023,7.438c-8.322,4.802-17.772,7.343-27.331,7.343
			c-18.394,0-35.594-9.318-45.682-24.521c-1.487,2.037-2.646,4.363-3.337,6.945c-0.704,2.631-0.861,5.273-0.569,7.827
			c-5.602,1.503-9.013,2.415-9.025,2.423c-5.25,1.405-8.365,6.793-6.956,12.047c1.235,4.604,5.532,7.559,10.112,7.271h113.261
			c0,0,4.693-0.219,7.053-0.846C160.443,149.876,168.328,136.218,164.77,122.93z"/>
		<path style="fill:#E6E6E6;" d="M64.942,99.66C53.915,80.559,55.6,58.275,67.85,45.692c-3.326,1.017-6.592,2.402-9.731,4.216
			c-22.24,12.842-29.857,41.277-17.017,63.519c12.842,22.24,41.277,29.859,63.516,17.022c3.139-1.813,5.978-3.945,8.519-6.319
			C96.111,128.445,75.969,118.766,64.942,99.66z"/>
	</g>
</g>
<g id="Layer_1">
</g>
</svg>
