<?xml version="1.0" encoding="iso-8859-1"?>
<!-- Generator: Adobe Illustrator 16.0.0, SVG Export Plug-In . SVG Version: 6.00 Build 0)  -->
<!DOCTYPE svg PUBLIC "-//W3C//DTD SVG 1.1//EN" "http://www.w3.org/Graphics/SVG/1.1/DTD/svg11.dtd">
<svg version="1.1" xmlns="http://www.w3.org/2000/svg" xmlns:xlink="http://www.w3.org/1999/xlink" x="0px" y="0px" width="200px"
	 height="200px" viewBox="0 0 200 200" style="enable-background:new 0 0 200 200;" xml:space="preserve">
<g id="_x32_8">
	<g id="_x32_8_1_">
		<g>
			<path style="fill:#F9ED32;" d="M20.362,122.21l19.298-7.929c-1.889-2.325-3.418-4.961-4.502-7.811l-16.562,12.643
				c-0.016,0.009-0.027,0.021-0.04,0.033c-0.729,0.588-0.874,1.735-0.3,2.485c0.462,0.606,1.265,0.851,1.988,0.614
				C20.28,122.239,20.323,122.227,20.362,122.21z"/>
			<path style="fill:#F9ED32;" d="M33.316,96.436c0-1.551,0.131-3.073,0.37-4.553L13.03,94.544c-0.012,0.002-0.03,0.002-0.042,0.005
				c-0.949,0.148-1.638,1.034-1.512,2.011c0.096,0.756,0.67,1.363,1.413,1.519c0.038,0.016,0.081,0.031,0.125,0.033l20.656,2.783
				C33.44,99.439,33.316,97.953,33.316,96.436z"/>
			<path style="fill:#F9ED32;" d="M51.623,69.938L38.991,53.381c-0.013-0.021-0.027-0.033-0.036-0.045
				c-0.613-0.747-1.712-0.882-2.487-0.293c-0.599,0.459-0.848,1.277-0.606,1.988c0.002,0.04,0.012,0.078,0.026,0.118l7.934,19.292
				C46.142,72.548,48.776,71.021,51.623,69.938z"/>
			<path style="fill:#F9ED32;" d="M39.725,78.51l-19.229-8.025c-0.023-0.009-0.038-0.019-0.053-0.021
				c-0.43-0.162-0.898-0.157-1.324,0.021c-0.445,0.179-0.793,0.525-0.977,0.968c-0.292,0.69-0.093,1.522,0.462,2.021
				c0.021,0.033,0.054,0.069,0.087,0.091l16.508,12.738C36.289,83.457,37.828,80.83,39.725,78.51z"/>
			<path style="fill:#F9ED32;" d="M84.533,53.479L71.799,69.99c2.837,1.089,5.468,2.628,7.791,4.529l8.025-19.238
				c0.01-0.019,0.02-0.036,0.021-0.055c0.338-0.886-0.115-1.935-0.986-2.298c-0.703-0.297-1.516-0.102-2.023,0.456
				C84.594,53.412,84.561,53.445,84.533,53.479z"/>
			<path style="fill:#F9ED32;" d="M61.544,46.26c-0.751,0.1-1.367,0.67-1.523,1.412c-0.019,0.039-0.026,0.082-0.03,0.126
				l-2.78,20.656c1.447-0.231,2.934-0.355,4.441-0.352c1.559-0.003,3.076,0.133,4.572,0.369L63.56,47.82
				c-0.007-0.017-0.007-0.033-0.009-0.055C63.397,46.812,62.512,46.14,61.544,46.26z"/>
			<path style="fill:#FFFFFF;" d="M169.88,123.77c-3.385-12.634-16.315-20.152-28.953-16.884c-0.005,0-0.911,0.247-2.543,0.683
				c-4.022-15.009-17.713-26.061-33.985-26.061c-17.66,0-32.278,13.008-34.8,29.973c-0.599-0.164-0.922-0.25-0.922-0.25
				c-10.669-2.763-21.584,3.588-24.444,14.25c-0.673,2.516-0.82,5.043-0.542,7.48c-5.352,1.438-8.61,2.309-8.622,2.314
				c-5.017,1.343-7.992,6.49-6.647,11.511c1.18,4.399,5.287,7.225,9.663,6.95h108.223c0,0,4.485-0.211,6.741-0.809
				C165.742,149.52,173.277,136.469,169.88,123.77z"/>
			<path style="fill:#F9ED32;" d="M45.772,112.374c4.668-4.556,11.008-7.306,17.854-7.306c0.582,0,1.165,0.021,1.747,0.061
				c2.568-8.624,7.951-16,14.992-21.181c-4.035-6.035-10.906-10.01-18.713-10.01c-12.426,0-22.5,10.075-22.5,22.501
				C39.152,102.665,41.684,108.301,45.772,112.374z"/>
			<path style="fill:#FFFFFF;" d="M188.075,107.611c-1.927-7.185-9.278-11.461-16.464-9.598c0,0-0.521,0.138-1.447,0.387
				c-2.285-8.533-10.071-14.82-19.324-14.82c-6.121,0-11.587,2.757-15.254,7.089c2.598,3.024,4.78,6.439,6.449,10.161
				c1.354-0.182,2.714-0.273,4.076-0.273c13.869,0,26.064,9.368,29.658,22.778c0.108,0.406,0.17,0.812,0.262,1.22
				c0.812-0.07,1.809-0.188,2.473-0.363C185.725,122.255,190.008,114.833,188.075,107.611z"/>
		</g>
	</g>
</g>
<g id="Layer_1">
</g>
</svg>
