<?xml version="1.0" encoding="iso-8859-1"?>
<!-- Generator: Adobe Illustrator 16.0.0, SVG Export Plug-In . SVG Version: 6.00 Build 0)  -->
<!DOCTYPE svg PUBLIC "-//W3C//DTD SVG 1.1//EN" "http://www.w3.org/Graphics/SVG/1.1/DTD/svg11.dtd">
<svg version="1.1" xmlns="http://www.w3.org/2000/svg" xmlns:xlink="http://www.w3.org/1999/xlink" x="0px" y="0px" width="200px"
	 height="200px" viewBox="0 0 200 200" style="enable-background:new 0 0 200 200;" xml:space="preserve">
<g id="_x32_9">
	<g id="_x32_9_x2C__33">
		<g>
			<path style="fill:#FFFFFF;" d="M171.766,122.307c-3.447-12.861-16.613-20.521-29.48-17.189c-0.004,0-0.93,0.25-2.59,0.693
				c-4.094-15.282-18.033-26.535-34.604-26.535c-10.95,0-20.731,4.931-27.304,12.676c0.488,0.983,0.998,1.962,1.555,2.925
				c8.225,14.246,22.469,23.453,36.29,23.453c2.451,0,4.86-0.294,7.15-0.875c2.422-0.617,4.959,0.49,6.157,2.688
				c1.197,2.194,0.759,4.922-1.068,6.629c-2.979,2.78-6.258,5.215-9.753,7.236c-8.099,4.674-17.292,7.145-26.591,7.145
				c-17.895,0-34.63-9.067-44.445-23.857c-1.446,1.98-2.574,4.246-3.247,6.757c-0.685,2.562-0.837,5.13-0.554,7.615
				c-5.448,1.463-8.768,2.351-8.779,2.356c-5.108,1.369-8.139,6.61-6.768,11.721c1.203,4.48,5.381,7.354,9.838,7.074h110.19
				c0,0,4.566-0.213,6.863-0.82C167.555,148.523,175.227,135.234,171.766,122.307z"/>
			<path style="fill:#E6E6E6;" d="M74.643,99.67c-10.729-18.583-9.089-40.264,2.828-52.506c-3.234,0.988-6.413,2.336-9.467,4.101
				c-21.636,12.494-29.047,40.159-16.555,61.797c12.493,21.638,40.158,29.051,61.793,16.562c3.054-1.765,5.812-3.839,8.289-6.147
				C104.966,127.677,85.371,118.257,74.643,99.67z"/>
		</g>
	</g>
</g>
<g id="Layer_1">
</g>
</svg>
