<?xml version="1.0" encoding="iso-8859-1"?>
<!-- Generator: Adobe Illustrator 16.0.0, SVG Export Plug-In . SVG Version: 6.00 Build 0)  -->
<!DOCTYPE svg PUBLIC "-//W3C//DTD SVG 1.1//EN" "http://www.w3.org/Graphics/SVG/1.1/DTD/svg11.dtd">
<svg version="1.1" xmlns="http://www.w3.org/2000/svg" xmlns:xlink="http://www.w3.org/1999/xlink" x="0px" y="0px" width="200px"
	 height="200px" viewBox="0 0 200 200" style="enable-background:new 0 0 200 200;" xml:space="preserve">
<g id="_x33_">
	<g id="_x33__x2C__03_x2C__4_x2C__04_x2C__37_x2C__38_x2C__47">
		<g>
			<g>
				<path style="fill:#FFFFFF;" d="M170.859,68.517c-3.402-12.701-16.401-20.266-29.106-16.979c-0.006,0-0.917,0.249-2.558,0.686
					c-4.043-15.085-17.809-26.197-34.168-26.197c-17.752,0-32.445,13.082-34.982,30.129c-0.601-0.161-0.93-0.248-0.93-0.248
					C58.39,53.13,47.414,59.513,44.543,70.234c-0.677,2.529-0.828,5.065-0.547,7.521c-5.381,1.444-8.657,2.318-8.669,2.325
					c-5.042,1.354-8.035,6.529-6.683,11.575c1.188,4.423,5.314,7.26,9.714,6.985H147.16c0,0,4.509-0.209,6.777-0.813
					C166.704,94.404,174.277,81.279,170.859,68.517z"/>
			</g>
			<g>
				<path style="fill:#F2DF00;" d="M95.875,106.671c0-0.51-0.537-0.92-1.197-0.92h-0.012l0,0H72.721
					c-0.551,0-1.009,0.285-1.152,0.671l-8.672,24.719c-0.062,0.108-0.096,0.233-0.096,0.358c0,0.512,0.538,0.919,1.202,0.919h0.015
					h8.153l-7.76,22.128h0.009c-0.058,0.152-0.094,0.308-0.094,0.474c0,0.971,1.026,1.756,2.297,1.756
					c0.852,0,1.585-0.355,1.983-0.877l0.013,0.002l25.502-33.746h-0.012c0.062-0.114,0.104-0.239,0.104-0.365
					c0-0.51-0.541-0.92-1.203-0.92c0,0-0.008,0.003-0.01,0.003v-0.003h-7.676l10.393-13.752
					C95.814,106.984,95.875,106.832,95.875,106.671z"/>
				<path style="fill:#6EC4E9;" d="M137.137,108.841c0.266-1.001-0.328-2.034-1.336-2.307c-0.89-0.237-1.802,0.209-2.185,1.013
					l-0.007-0.003l-16.532,28.636c-0.347,0.531-0.611,1.129-0.783,1.773c-0.903,3.359,1.093,6.812,4.455,7.712
					c3.326,0.894,6.739-1.058,7.681-4.36l0.008,0.006L137.091,109L137.137,108.841L137.137,108.841z"/>
				<path style="fill:#6EC4E9;" d="M108.262,136.936c0.27-1.004-0.326-2.037-1.332-2.31c-0.894-0.237-1.806,0.206-2.187,1.015
					l-0.009-0.002L88.205,164.27c-0.344,0.535-0.613,1.131-0.785,1.774c-0.9,3.358,1.092,6.813,4.457,7.714
					c3.328,0.895,6.744-1.06,7.682-4.359h0.006l8.656-32.306l0.045-0.157H108.262z"/>
			</g>
		</g>
	</g>
</g>
<g id="Layer_1">
</g>
</svg>
