<?xml version="1.0" encoding="iso-8859-1"?>
<!-- Generator: Adobe Illustrator 16.0.0, SVG Export Plug-In . SVG Version: 6.00 Build 0)  -->
<!DOCTYPE svg PUBLIC "-//W3C//DTD SVG 1.1//EN" "http://www.w3.org/Graphics/SVG/1.1/DTD/svg11.dtd">
<svg version="1.1" xmlns="http://www.w3.org/2000/svg" xmlns:xlink="http://www.w3.org/1999/xlink" x="0px" y="0px" width="200px"
	 height="200px" viewBox="0 0 200 200" style="enable-background:new 0 0 200 200;" xml:space="preserve">
<g id="_x33_0">
	<g id="_x33_0_x2C_34">
		<g>
			<path style="fill:#F9ED32;" d="M24.744,123.634l20.537-8.438c-2.012-2.473-3.639-5.276-4.791-8.31L22.864,120.34
				c-0.015,0.012-0.026,0.021-0.04,0.035c-0.777,0.626-0.931,1.848-0.32,2.646c0.492,0.646,1.345,0.904,2.115,0.651
				C24.658,123.667,24.704,123.65,24.744,123.634z"/>
			<path style="fill:#F9ED32;" d="M38.531,96.207c0-1.651,0.141-3.271,0.393-4.846l-21.981,2.832
				c-0.014,0.002-0.034,0.002-0.046,0.006c-1.01,0.156-1.741,1.099-1.606,2.138c0.102,0.806,0.712,1.452,1.5,1.618
				c0.042,0.016,0.088,0.03,0.135,0.034l21.98,2.961C38.662,99.402,38.531,97.822,38.531,96.207z"/>
			<path style="fill:#F9ED32;" d="M58.012,68.006L44.568,50.388c-0.012-0.021-0.03-0.034-0.039-0.048
				c-0.651-0.795-1.822-0.939-2.646-0.312c-0.637,0.49-0.901,1.358-0.645,2.116c0.002,0.042,0.012,0.083,0.029,0.125L49.709,72.8
				C52.179,70.785,54.982,69.162,58.012,68.006z"/>
			<path style="fill:#F9ED32;" d="M45.351,77.13l-20.462-8.542c-0.025-0.009-0.043-0.018-0.057-0.021
				c-0.457-0.175-0.957-0.168-1.41,0.021c-0.473,0.191-0.846,0.56-1.04,1.03c-0.31,0.735-0.099,1.62,0.491,2.151
				c0.023,0.035,0.06,0.074,0.094,0.096l17.568,13.556C41.695,82.395,43.331,79.596,45.351,77.13z"/>
			<path style="fill:#F9ED32;" d="M93.035,50.491l-13.553,17.57c3.02,1.16,5.822,2.797,8.291,4.822l8.541-20.474
				c0.01-0.018,0.018-0.038,0.021-0.057c0.359-0.944-0.121-2.057-1.047-2.447c-0.748-0.316-1.615-0.106-2.154,0.487
				C93.1,50.422,93.064,50.455,93.035,50.491z"/>
			<path style="fill:#F9ED32;" d="M68.569,42.81c-0.797,0.104-1.452,0.711-1.618,1.502c-0.021,0.042-0.03,0.086-0.033,0.135
				l-2.96,21.979c1.541-0.246,3.123-0.377,4.728-0.375c1.658-0.002,3.273,0.142,4.864,0.394l-2.834-21.978
				c-0.006-0.016-0.006-0.035-0.01-0.057C70.543,43.398,69.6,42.682,68.569,42.81z"/>
			<path style="fill:#FFFFFF;" d="M183.859,125.294c-3.603-13.444-17.363-21.448-30.812-17.969c-0.008,0-0.97,0.264-2.708,0.727
				c-4.278-15.972-18.849-27.731-36.167-27.731c-18.79,0-34.349,13.844-37.032,31.894c-0.637-0.172-0.982-0.266-0.988-0.266
				c-11.346-2.938-22.963,3.818-26.006,15.168c-0.717,2.674-0.873,5.363-0.575,7.959c-5.696,1.529-9.164,2.459-9.177,2.464
				c-5.339,1.43-8.505,6.907-7.074,12.249c1.257,4.682,5.625,7.688,10.283,7.398h115.17c0,0,4.771-0.228,7.172-0.861
				C179.456,152.698,187.479,138.811,183.859,125.294z"/>
			<path style="fill:#F9ED32;" d="M51.785,113.167c4.967-4.847,11.715-7.774,19-7.774c0.621,0,1.242,0.024,1.862,0.064
				c2.732-9.177,8.46-17.027,15.953-22.542c-4.293-6.423-11.607-10.65-19.914-10.65c-13.223,0-23.945,10.72-23.945,23.944
				C44.74,102.836,47.436,108.831,51.785,113.167z"/>
		</g>
	</g>
</g>
<g id="Layer_1">
</g>
</svg>
