<?xml version="1.0" encoding="iso-8859-1"?>
<!-- Generator: Adobe Illustrator 16.0.0, SVG Export Plug-In . SVG Version: 6.00 Build 0)  -->
<!DOCTYPE svg PUBLIC "-//W3C//DTD SVG 1.1//EN" "http://www.w3.org/Graphics/SVG/1.1/DTD/svg11.dtd">
<svg version="1.1" xmlns="http://www.w3.org/2000/svg" xmlns:xlink="http://www.w3.org/1999/xlink" x="0px" y="0px" width="200px"
	 height="200px" viewBox="0 0 200 200" style="enable-background:new 0 0 200 200;" xml:space="preserve">
<g id="_x33_1">
	<g id="_x33_1_1_">
		<g>
			<path style="fill:#FFFFFF;" d="M144.914,60.04l-19.339-3.907l-3.908-19.337c-0.051-0.346-0.324-0.631-0.685-0.687
				c-0.44-0.062-0.854,0.244-0.92,0.687l-3.902,19.337L96.822,60.04c-0.346,0.051-0.631,0.32-0.686,0.679
				c-0.064,0.444,0.244,0.855,0.686,0.917l19.338,3.914l3.902,19.335c0.051,0.344,0.322,0.629,0.687,0.685
				c0.44,0.062,0.854-0.241,0.918-0.685l3.908-19.335l19.339-3.914c0.345-0.046,0.629-0.315,0.684-0.682
				C145.66,60.514,145.354,60.102,144.914,60.04z"/>
			<path style="fill:#E6E6E6;" d="M78.1,113.032c-15.152-26.244-12.837-56.86,3.996-74.147c-4.572,1.39-9.059,3.298-13.371,5.789
				c-30.555,17.644-41.021,56.712-23.38,87.271c17.644,30.554,56.713,41.022,87.268,23.386c4.311-2.492,8.212-5.422,11.699-8.683
				C120.922,152.581,93.25,139.277,78.1,113.032z"/>
			<path style="fill:#FFFFFF;" d="M162.73,103.779l-13.738-2.809l-2.819-13.747c-0.032-0.244-0.223-0.45-0.481-0.484
				c-0.316-0.048-0.609,0.17-0.658,0.484l-2.809,13.747l-13.744,2.809c-0.246,0.037-0.448,0.229-0.488,0.488
				c-0.047,0.314,0.173,0.607,0.488,0.654l13.744,2.811l2.809,13.746c0.041,0.244,0.229,0.446,0.486,0.484
				c0.313,0.047,0.61-0.174,0.653-0.484l2.819-13.746l13.738-2.811c0.248-0.041,0.447-0.232,0.486-0.49
				C163.264,104.12,163.048,103.827,162.73,103.779z"/>
		</g>
	</g>
</g>
<g id="Layer_1">
</g>
</svg>
