<?xml version="1.0" encoding="iso-8859-1"?>
<!-- Generator: Adobe Illustrator 16.0.0, SVG Export Plug-In . SVG Version: 6.00 Build 0)  -->
<!DOCTYPE svg PUBLIC "-//W3C//DTD SVG 1.1//EN" "http://www.w3.org/Graphics/SVG/1.1/DTD/svg11.dtd">
<svg version="1.1" xmlns="http://www.w3.org/2000/svg" xmlns:xlink="http://www.w3.org/1999/xlink" x="0px" y="0px" width="200px"
	 height="200px" viewBox="0 0 200 200" style="enable-background:new 0 0 200 200;" xml:space="preserve">
<g id="_x33_2">
	<g id="_x33_2_x2C_36">
		<g>
			<circle style="fill:#F9ED32;" cx="100.009" cy="99.993" r="35.22"/>
			<path style="fill:#F9ED32;" d="M61.159,37.758l11.957,29.087c3.508-2.851,7.473-5.154,11.768-6.786L65.833,35.093
				c-0.016-0.024-0.033-0.044-0.053-0.062c-0.887-1.1-2.616-1.314-3.748-0.448c-0.913,0.696-1.279,1.906-0.921,2.991
				C61.119,37.636,61.135,37.697,61.159,37.758z"/>
			<path style="fill:#F9ED32;" d="M100.008,57.283c2.342,0,4.633,0.195,6.87,0.561l-4.015-31.138
				c-0.002-0.022-0.008-0.046-0.012-0.069c-0.22-1.426-1.553-2.465-3.023-2.275c-1.141,0.148-2.061,1.01-2.295,2.132
				c-0.023,0.059-0.041,0.119-0.049,0.183l-4.186,31.138C95.486,57.465,97.727,57.283,100.008,57.283z"/>
			<path style="fill:#F9ED32;" d="M57.298,99.993c0-2.338,0.196-4.633,0.56-6.871l-31.151,4.015
				c-0.024,0.002-0.048,0.009-0.073,0.014c-1.442,0.222-2.457,1.562-2.27,3.02c0.146,1.138,1.007,2.06,2.125,2.295
				c0.058,0.025,0.121,0.042,0.188,0.052l31.152,4.188C57.482,104.516,57.298,102.277,57.298,99.993z"/>
			<path style="fill:#F9ED32;" d="M139.95,84.878l24.959-19.043c0.022-0.021,0.047-0.041,0.069-0.062
				c1.123-0.916,1.326-2.574,0.438-3.742c-0.688-0.901-1.922-1.275-2.995-0.919c-0.061,0.009-0.119,0.023-0.18,0.048l-29.075,11.95
				C136.016,76.618,138.316,80.583,139.95,84.878z"/>
			<path style="fill:#F9ED32;" d="M127.031,66.945l12.097-28.987c0.013-0.026,0.022-0.056,0.028-0.083
				c0.246-0.643,0.238-1.344-0.023-1.989c-0.275-0.674-0.794-1.197-1.464-1.475c-1.039-0.437-2.294-0.142-3.044,0.69
				c-0.053,0.037-0.102,0.085-0.145,0.14l-19.194,24.876C119.575,61.768,123.536,64.08,127.031,66.945z"/>
			<path style="fill:#F9ED32;" d="M35.242,65.519L60.13,84.723c1.647-4.289,3.962-8.249,6.825-11.749L37.958,60.873
				c-0.026-0.012-0.053-0.021-0.081-0.029c-1.334-0.509-2.916,0.173-3.464,1.485c-0.443,1.061-0.158,2.285,0.691,3.05
				C35.143,65.432,35.189,65.478,35.242,65.519z"/>
			<path style="fill:#F9ED32;" d="M164.762,134.48l-24.884-19.199c-1.647,4.289-3.964,8.248-6.831,11.746l28.997,12.099
				c0.026,0.015,0.058,0.022,0.086,0.031c1.334,0.511,2.909-0.175,3.459-1.489c0.445-1.057,0.158-2.281-0.688-3.044
				C164.861,134.57,164.812,134.523,164.762,134.48z"/>
			<path style="fill:#F9ED32;" d="M175.639,99.828c-0.146-1.137-1.009-2.057-2.127-2.293c-0.059-0.024-0.121-0.041-0.188-0.05
				l-31.132-4.187c0.345,2.183,0.526,4.418,0.526,6.695c0,2.343-0.194,4.64-0.56,6.883l31.135-4.013
				c0.023-0.004,0.05-0.008,0.073-0.014C174.809,102.626,175.82,101.288,175.639,99.828z"/>
			<path style="fill:#F9ED32;" d="M138.841,162.243l-11.954-29.091c-3.512,2.852-7.476,5.15-11.771,6.781l19.053,24.976
				c0.021,0.024,0.044,0.053,0.066,0.075c0.892,1.082,2.603,1.287,3.734,0.434c0.914-0.699,1.281-1.911,0.922-2.997
				C138.88,162.359,138.863,162.302,138.841,162.243z"/>
			<path style="fill:#F9ED32;" d="M60.07,115.107l-24.977,19.058c-0.025,0.019-0.048,0.039-0.071,0.062
				c-0.533,0.435-0.876,1.049-0.967,1.736c-0.097,0.717,0.09,1.43,0.529,2.004c0.689,0.9,1.919,1.275,2.996,0.922
				c0.06-0.01,0.121-0.025,0.179-0.051l29.095-11.959C64.005,123.371,61.702,119.402,60.07,115.107z"/>
			<path style="fill:#F9ED32;" d="M100.008,142.702c-2.346,0-4.645-0.195-6.887-0.562l4.016,31.151
				c0.004,0.028,0.008,0.056,0.016,0.084c0.207,1.308,1.344,2.283,2.674,2.283c0.115,0,0.23-0.011,0.348-0.023
				c1.142-0.147,2.063-1.016,2.298-2.133c0.021-0.06,0.039-0.117,0.045-0.183l4.189-31.146
				C104.521,142.518,102.286,142.702,100.008,142.702z"/>
			<path style="fill:#F9ED32;" d="M72.98,133.036l-12.107,29.008c-0.012,0.026-0.021,0.054-0.029,0.08
				c-0.247,0.646-0.238,1.349,0.026,1.992c0.275,0.673,0.795,1.192,1.46,1.471c1.045,0.438,2.308,0.138,3.057-0.696
				c0.047-0.037,0.092-0.082,0.13-0.132l19.211-24.893C80.438,138.216,76.479,135.9,72.98,133.036z"/>
		</g>
	</g>
</g>
<g id="Layer_1">
</g>
</svg>
