<?xml version="1.0" encoding="iso-8859-1"?>
<!-- Generator: Adobe Illustrator 16.0.0, SVG Export Plug-In . SVG Version: 6.00 Build 0)  -->
<!DOCTYPE svg PUBLIC "-//W3C//DTD SVG 1.1//EN" "http://www.w3.org/Graphics/SVG/1.1/DTD/svg11.dtd">
<svg version="1.1" xmlns="http://www.w3.org/2000/svg" xmlns:xlink="http://www.w3.org/1999/xlink" x="0px" y="0px" width="200px"
	 height="200px" viewBox="0 0 200 200" style="enable-background:new 0 0 200 200;" xml:space="preserve">
<g id="_x33_5">
	<g id="_x33_5_1_">
		<g>
			<path style="fill:#FFFFFF;" d="M170.48,59.611c-3.385-12.634-16.313-20.154-28.949-16.883c-0.008,0-0.913,0.246-2.547,0.682
				c-4.021-15.009-17.711-26.06-33.983-26.06c-17.659,0-32.273,13.009-34.796,29.97c-0.598-0.162-0.925-0.25-0.929-0.25
				c-10.662-2.76-21.58,3.59-24.437,14.252c-0.673,2.514-0.822,5.041-0.544,7.479c-5.352,1.437-8.611,2.311-8.623,2.316
				c-5.016,1.342-7.992,6.491-6.646,11.51c1.18,4.4,5.286,7.224,9.663,6.951h108.22c0,0,4.483-0.21,6.739-0.808
				C166.35,85.36,173.882,72.309,170.48,59.611z"/>
		</g>
		<path style="fill:#6EC4E9;" d="M139.84,109.762c0.301-1.126-0.367-2.279-1.492-2.582c-0.998-0.267-2.02,0.23-2.445,1.135
			l-0.008-0.002l-18.5,32.041c-0.386,0.598-0.687,1.265-0.881,1.985c-1.006,3.761,1.225,7.625,4.986,8.631
			c3.727,1,7.55-1.182,8.604-4.877h0.002l9.688-36.153L139.84,109.762L139.84,109.762z"/>
		<path style="fill:#6EC4E9;" d="M107.529,141.199c0.299-1.122-0.369-2.28-1.493-2.582c-0.996-0.268-2.021,0.23-2.445,1.134
			l-0.008-0.005L85.08,171.792c-0.383,0.599-0.684,1.265-0.877,1.983c-1.008,3.761,1.223,7.623,4.988,8.634
			c3.723,0.995,7.543-1.185,8.598-4.878h0.004l9.688-36.155L107.529,141.199L107.529,141.199z"/>
		<path style="fill:#FFFFFF;" d="M73.481,129.977c-0.219,0-0.444-0.045-0.66-0.133c-0.893-0.367-1.319-1.388-0.952-2.281
			L85.028,95.45c0.365-0.892,1.381-1.318,2.279-0.951c0.893,0.365,1.318,1.384,0.955,2.276l-13.161,32.118
			C74.82,129.566,74.172,129.977,73.481,129.977z"/>
		<path style="fill:#FFFFFF;" d="M84.979,125.688c-0.223,0-0.443-0.043-0.66-0.133c-0.891-0.367-1.322-1.386-0.955-2.277
			l7.428-18.123c0.369-0.893,1.385-1.317,2.279-0.954c0.893,0.366,1.318,1.387,0.953,2.28l-7.43,18.123
			C86.318,125.277,85.668,125.688,84.979,125.688z"/>
		<path style="fill:#FFFFFF;" d="M77.525,152.175c0,4.812-3.906,8.72-8.72,8.72c-4.815,0-8.72-3.906-8.72-8.72
			c0-4.815,3.905-8.719,8.72-8.719C73.619,143.456,77.525,147.359,77.525,152.175z"/>
	</g>
</g>
<g id="Layer_1">
</g>
</svg>
