<?xml version="1.0" encoding="iso-8859-1"?>
<!-- Generator: Adobe Illustrator 16.0.0, SVG Export Plug-In . SVG Version: 6.00 Build 0)  -->
<!DOCTYPE svg PUBLIC "-//W3C//DTD SVG 1.1//EN" "http://www.w3.org/Graphics/SVG/1.1/DTD/svg11.dtd">
<svg version="1.1" xmlns="http://www.w3.org/2000/svg" xmlns:xlink="http://www.w3.org/1999/xlink" x="0px" y="0px" width="200px"
	 height="200px" viewBox="0 0 200 200" style="enable-background:new 0 0 200 200;" xml:space="preserve">
<g id="_x34_0">
	<g id="_x34_0_1_">
		<g>
			<path style="fill:#6EC4E9;" d="M54.323,110.79c0.164-0.504-0.163-1.032-0.732-1.179c-0.503-0.131-1.022,0.082-1.246,0.486
				l-0.006-0.004l-9.656,14.28c-0.201,0.267-0.359,0.565-0.462,0.887c-0.545,1.688,0.552,3.457,2.447,3.949
				c1.876,0.485,3.833-0.46,4.396-2.116h0.004L54.3,110.87L54.323,110.79L54.323,110.79z"/>
			<path style="fill:#6EC4E9;" d="M75.727,119.081c0.291-0.731-0.142-1.55-0.967-1.828c-0.733-0.245-1.528,0.022-1.9,0.599h-0.006
				l-15.76,20.203c-0.323,0.375-0.589,0.801-0.776,1.271c-0.977,2.447,0.468,5.182,3.232,6.101c2.734,0.917,5.729-0.293,6.734-2.692
				h0.007l9.394-23.536L75.727,119.081L75.727,119.081z"/>
			<path style="fill:#6EC4E9;" d="M127.952,116.605c0.215-0.723-0.269-1.47-1.082-1.66c-0.716-0.172-1.455,0.147-1.765,0.728
				l-0.006-0.002l-13.354,20.634c-0.278,0.383-0.497,0.812-0.633,1.273c-0.73,2.425,0.883,4.913,3.597,5.558
				c2.688,0.646,5.449-0.76,6.212-3.14l0,0l6.992-23.278L127.952,116.605L127.952,116.605z"/>
			<path style="fill:#6EC4E9;" d="M101.661,110.386c-0.839-0.204-1.694,0.173-2.054,0.845l-0.006-0.004l-28.963,44.699
				c-0.513,0.719-0.92,1.516-1.179,2.383c-1.355,4.508,1.646,9.145,6.701,10.35c5.029,1.201,10.186-1.436,11.576-5.893h0.01
				l6.961-23.179c0.012-0.03,0.023-0.058,0.035-0.087h0.004l8.126-27.052l0.041-0.132l0,0
				C103.163,111.477,102.602,110.607,101.661,110.386z"/>
			<g>
				<path style="fill:#FFFFFF;" d="M160.305,73.052c-3.365-12.556-16.218-20.031-28.772-16.779c-0.009,0-0.909,0.245-2.53,0.678
					c-3.997-14.916-17.604-25.898-33.776-25.898c-17.547,0-32.072,12.929-34.58,29.785c-0.594-0.161-0.92-0.249-0.922-0.249
					c-10.596-2.742-21.447,3.568-24.285,14.164c-0.669,2.498-0.818,5.01-0.542,7.433c-5.317,1.427-8.557,2.295-8.569,2.301
					c-4.984,1.334-7.943,6.451-6.605,11.438c1.172,4.375,5.254,7.181,9.602,6.909h107.552c0,0,4.457-0.211,6.699-0.803
					C156.195,98.642,163.682,85.672,160.305,73.052z"/>
			</g>
			<path style="fill:#FFFFFF;" d="M180.141,55.646c-1.912-7.137-9.222-11.388-16.361-9.541c-0.006,0-0.516,0.141-1.438,0.385
				c-2.271-8.479-10.008-14.725-19.204-14.725c-6.082,0-11.519,2.74-15.16,7.042c2.58,3.008,4.75,6.399,6.412,10.101
				c1.342-0.182,2.693-0.272,4.049-0.272c13.781,0,25.902,9.308,29.475,22.636c0.107,0.405,0.171,0.808,0.258,1.212
				c0.811-0.072,1.801-0.186,2.459-0.362C177.802,70.198,182.061,62.822,180.141,55.646z"/>
		</g>
	</g>
</g>
<g id="Layer_1">
</g>
</svg>
