<?xml version="1.0" encoding="iso-8859-1"?>
<!-- Generator: Adobe Illustrator 16.0.0, SVG Export Plug-In . SVG Version: 6.00 Build 0)  -->
<!DOCTYPE svg PUBLIC "-//W3C//DTD SVG 1.1//EN" "http://www.w3.org/Graphics/SVG/1.1/DTD/svg11.dtd">
<svg version="1.1" xmlns="http://www.w3.org/2000/svg" xmlns:xlink="http://www.w3.org/1999/xlink" x="0px" y="0px" width="200px"
	 height="200px" viewBox="0 0 200 200" style="enable-background:new 0 0 200 200;" xml:space="preserve">
<g id="_x35_">
	<g id="_x35__x2C__05_x2C__6_x2C__06_x2C__7_x2C__07_x2C__8_x2C__08_x2C__10_x2C__x0D_18">
		<path style="fill:#6EC4E9;" d="M137.219,114.085c0.273-1.03-0.337-2.09-1.367-2.364c-0.914-0.244-1.848,0.213-2.24,1.04
			l-0.01-0.004l-16.949,29.356c-0.353,0.548-0.623,1.156-0.801,1.816c-0.926,3.443,1.121,6.983,4.563,7.909
			c3.413,0.913,6.916-1.086,7.878-4.472h0.008l8.872-33.119L137.219,114.085L137.219,114.085z"/>
		<path style="fill:#6EC4E9;" d="M107.613,142.886c0.277-1.026-0.334-2.089-1.362-2.364c-0.916-0.244-1.853,0.213-2.242,1.041
			l-0.008-0.008l-16.95,29.355c-0.354,0.548-0.629,1.158-0.805,1.82c-0.922,3.445,1.121,6.984,4.57,7.906
			c3.412,0.918,6.912-1.082,7.877-4.47l0.006,0.003l8.873-33.124l0.045-0.161L107.613,142.886L107.613,142.886z"/>
		<path style="fill:#FFFFFF;" d="M98.367,123.825c-0.078,0-0.152,0.01-0.258,0.034l-7.33,1.969l-6.434-3.715l6.434-3.715
			l7.365,1.976c0.451,0.121,0.93-0.159,1.049-0.604c0.098-0.381-0.068-0.776-0.412-0.969c-0.006-0.005-0.01-0.011-0.018-0.013
			l-4.484-2.59l4.117-3.144c0.002-0.002,0.008-0.008,0.016-0.014c0.314-0.229,0.434-0.646,0.285-1.014
			c-0.133-0.321-0.445-0.528-0.793-0.528c-0.111,0-0.221,0.021-0.363,0.079l-4.797,1.977l-0.006-5.158
			c0.035-0.412-0.229-0.787-0.627-0.894c-0.449-0.118-0.924,0.151-1.061,0.644l-1.961,7.324l-6.434,3.715v-7.426l5.393-5.391
			c0.162-0.164,0.252-0.379,0.252-0.605c0-0.229-0.09-0.443-0.252-0.604c-0.271-0.272-0.719-0.326-1.045-0.128
			c-0.008,0.004-0.014,0.004-0.02,0.008l-4.492,2.598l-0.695-5.183c-0.057-0.422-0.42-0.744-0.848-0.744
			c-0.018,0-0.096,0.011-0.113,0.011c-0.391,0.053-0.691,0.361-0.734,0.75c-0.004,0.008-0.004,0.018-0.008,0.022l-0.66,5.136
			l-4.484-2.59c-0.01-0.004-0.013-0.008-0.023-0.016c-0.324-0.19-0.766-0.137-1.042,0.136c-0.33,0.332-0.33,0.876,0.029,1.235
			l5.366,5.365v7.426l-6.434-3.715l-1.972-7.363c-0.123-0.446-0.592-0.723-1.049-0.604c-0.378,0.102-0.638,0.446-0.63,0.835
			c-0.005,0.011-0.005,0.021-0.005,0.028v5.188l-4.829-1.99c-0.425-0.174-0.941,0.041-1.119,0.463
			c-0.151,0.363-0.034,0.777,0.279,1.015c0.006,0.004,0.016,0.013,0.021,0.015l4.114,3.143l-4.48,2.59
			c-0.011,0.002-0.014,0.008-0.024,0.013c-0.34,0.191-0.51,0.587-0.407,0.968c0.099,0.373,0.438,0.636,0.824,0.636
			c0.077,0,0.151-0.013,0.26-0.039l7.327-1.966l6.433,3.715l-6.43,3.715l-7.367-1.977c-0.449-0.117-0.928,0.16-1.047,0.604
			c-0.104,0.384,0.072,0.78,0.407,0.97c0.01,0.004,0.016,0.01,0.024,0.012l4.48,2.59l-4.114,3.142
			c-0.005,0.006-0.01,0.011-0.019,0.019c-0.315,0.229-0.433,0.646-0.281,1.009c0.133,0.323,0.443,0.53,0.794,0.53
			c0.112,0,0.218-0.021,0.359-0.078l4.799-1.977v5.19c0,0,0,0.008,0,0.016c-0.01,0.394,0.25,0.746,0.63,0.845
			c0.451,0.125,0.924-0.151,1.06-0.641l1.962-7.328l6.434-3.712v7.427l-5.395,5.391c-0.16,0.164-0.25,0.379-0.25,0.606
			c0,0.226,0.09,0.441,0.25,0.601c0.273,0.277,0.723,0.326,1.052,0.131c0.003-0.002,0.008-0.006,0.013-0.01l4.496-2.594l0.693,5.178
			c0.057,0.426,0.418,0.744,0.846,0.744c0.02,0,0.096-0.006,0.115-0.009c0.391-0.054,0.689-0.362,0.732-0.75
			c0.004-0.006,0.004-0.016,0.008-0.024l0.662-5.131l4.482,2.586c0.008,0.008,0.02,0.01,0.025,0.014
			c0.324,0.191,0.768,0.139,1.039-0.131c0.334-0.331,0.334-0.875-0.027-1.238l-5.365-5.361v-7.428l6.434,3.712l1.975,7.364
			c0.117,0.445,0.609,0.725,1.045,0.604c0.383-0.099,0.643-0.451,0.635-0.845c0-0.008,0-0.014,0-0.014v-5.192l4.834,1.992
			c0.104,0.04,0.215,0.062,0.326,0.062c0.348,0,0.66-0.209,0.789-0.531c0.152-0.362,0.033-0.778-0.279-1.01
			c-0.008-0.006-0.012-0.012-0.018-0.018l-4.117-3.143l4.48-2.59c0.006,0,0.014-0.004,0.016-0.008
			c0.346-0.189,0.516-0.586,0.416-0.973C99.09,124.085,98.752,123.825,98.367,123.825z M80.984,142.105L80.984,142.105v0.011
			V142.105z"/>
		<g>
			<path style="fill:#FFFFFF;" d="M172.65,62.703c-3.491-13.021-16.818-20.779-29.844-17.406c-0.008,0-0.939,0.254-2.623,0.703
				c-4.146-15.468-18.256-26.861-35.031-26.861c-18.199,0-33.264,13.412-35.863,30.892c-0.619-0.165-0.954-0.254-0.957-0.254
				c-10.991-2.851-22.246,3.695-25.19,14.685c-0.694,2.597-0.848,5.197-0.561,7.714c-5.517,1.48-8.876,2.378-8.889,2.385
				c-5.169,1.385-8.238,6.693-6.851,11.866c1.217,4.535,5.451,7.442,9.959,7.162h111.55c0,0,4.625-0.214,6.949-0.834
				C168.389,89.243,176.152,75.788,172.65,62.703z"/>
		</g>
	</g>
</g>
<g id="Layer_1">
</g>
</svg>
