<?xml version="1.0" encoding="iso-8859-1"?>
<!-- Generator: Adobe Illustrator 16.0.0, SVG Export Plug-In . SVG Version: 6.00 Build 0)  -->
<!DOCTYPE svg PUBLIC "-//W3C//DTD SVG 1.1//EN" "http://www.w3.org/Graphics/SVG/1.1/DTD/svg11.dtd">
<svg version="1.1" xmlns="http://www.w3.org/2000/svg" xmlns:xlink="http://www.w3.org/1999/xlink" x="0px" y="0px" width="200px"
	 height="200px" viewBox="0 0 200 200" style="enable-background:new 0 0 200 200;" xml:space="preserve">
<g id="_x39_">
	<g id="_x39__x2C__09_x2C__11_x2C__39_x2C__45">
		<g>
			<g>
				<path style="fill:#6EC4E9;" d="M95.42,116.62c0.197-0.654-0.24-1.326-0.973-1.502c-0.654-0.157-1.318,0.136-1.598,0.659h-0.004
					l-12.074,18.648c-0.25,0.35-0.449,0.737-0.574,1.154c-0.658,2.191,0.799,4.441,3.254,5.023c2.432,0.582,4.926-0.688,5.613-2.84
					l0.004,0.004l6.322-21.043L95.42,116.62L95.42,116.62z"/>
				<path style="fill:#6EC4E9;" d="M118.824,115.124c-0.729-0.174-1.469,0.149-1.782,0.735l-0.006-0.004L91.93,154.607
					c-0.447,0.623-0.797,1.312-1.023,2.064c-1.174,3.909,1.428,7.926,5.811,8.975c4.356,1.039,8.83-1.246,10.036-5.11h0.006
					l6.035-20.095c0.008-0.024,0.021-0.049,0.029-0.074l0.002,0.003l7.049-23.459l0.032-0.114l0,0
					C120.124,116.07,119.641,115.32,118.824,115.124z"/>
			</g>
			<g>
				<path style="fill:#FFFFFF;" d="M170.611,76.441c-3.393-12.657-16.346-20.191-29.006-16.915c-0.004,0-0.914,0.247-2.549,0.683
					c-4.029-15.036-17.744-26.106-34.047-26.106c-17.69,0-32.333,13.032-34.862,30.024c-0.598-0.162-0.926-0.25-0.926-0.25
					c-10.686-2.764-21.624,3.598-24.486,14.279c-0.674,2.52-0.825,5.052-0.545,7.494c-5.362,1.438-8.627,2.314-8.639,2.319
					c-5.025,1.345-8.007,6.503-6.66,11.531c1.183,4.409,5.296,7.239,9.681,6.965h108.421c0,0,4.492-0.213,6.752-0.811
					C166.473,102.239,174.02,89.166,170.611,76.441z"/>
			</g>
		</g>
	</g>
</g>
<g id="Layer_1">
</g>
</svg>
