<?xml version="1.0" encoding="utf-8"?>
<!-- Generator: Adobe Illustrator 16.0.0, SVG Export Plug-In . SVG Version: 6.00 Build 0)  -->
<!DOCTYPE svg PUBLIC "-//W3C//DTD SVG 1.1//EN" "http://www.w3.org/Graphics/SVG/1.1/DTD/svg11.dtd">
<svg version="1.1" id="Layer_1" xmlns="http://www.w3.org/2000/svg" xmlns:xlink="http://www.w3.org/1999/xlink" x="0px" y="0px"
	 width="200px" height="200px" viewBox="0 0 200 200" enable-background="new 0 0 200 200" xml:space="preserve">
<g id="Layer_1_1_">
</g>
<g id="PHG3nP_1_">
	<g>
		<path fill="#FFFFFF" d="M28.425,103.4c0-2.041,0-4.082,0-6.123c0.038-0.268,0.098-0.533,0.111-0.799
			c0.262-5.271,1.085-10.455,2.554-15.521c5.051-17.433,15.206-31.119,30.417-40.994c9.49-6.16,19.928-9.742,31.191-10.896
			c1.44-0.148,2.883-0.261,4.326-0.39c2.041,0,4.083,0,6.125,0c0.29,0.04,0.579,0.1,0.87,0.115
			c4.722,0.241,9.382,0.915,13.944,2.145c19.393,5.229,34.186,16.537,44.331,33.847c5.097,8.696,8.046,18.136,9.065,28.169
			c0.146,1.439,0.259,2.883,0.388,4.324c0,2.041,0,4.082,0,6.123c-0.04,0.289-0.1,0.578-0.115,0.867
			c-0.273,5.43-1.149,10.766-2.698,15.975c-5.117,17.203-15.227,30.711-30.268,40.473c-9.491,6.158-19.929,9.744-31.191,10.895
			c-1.439,0.146-2.884,0.26-4.326,0.391c-2.041,0-4.083,0-6.125,0c-0.245-0.037-0.489-0.096-0.735-0.107
			c-5.293-0.262-10.507-1.061-15.588-2.561c-20.29-5.992-35.257-18.443-44.866-37.273c-3.899-7.643-6.16-15.799-7.021-24.336
			C28.669,106.283,28.554,104.842,28.425,103.4z M99.987,118.221c1.111,0,2.222-0.02,3.333,0.008
			c0.46,0.012,0.604-0.133,0.667-0.598c0.684-5.119,1.397-10.234,2.1-15.354c0.748-5.453,1.491-10.908,2.237-16.364
			c0.7-5.118,1.412-10.234,2.104-15.354c0.42-3.123,0.811-6.252,0.613-9.417c-0.23-3.669-2.248-6.343-5.751-7.454
			c-3.253-1.031-6.567-1.078-9.858-0.188c-2.753,0.745-4.75,2.442-5.699,5.171c-0.382,1.1-0.615,2.28-0.723,3.441
			c-0.272,2.957,0.181,5.885,0.576,8.803c0.994,7.364,2.042,14.721,3.062,22.082c1.143,8.236,2.282,16.473,3.406,24.711
			c0.057,0.416,0.208,0.525,0.598,0.518C97.764,118.205,98.875,118.221,99.987,118.221z M112.567,139.365
			c0.012-6.988-5.61-12.662-12.568-12.686c-7.053-0.021-12.748,5.623-12.76,12.648c-0.012,7.006,5.64,12.666,12.653,12.674
			C106.924,152.01,112.554,146.395,112.567,139.365z"/>
	</g>
</g>
</svg>
