<?xml version="1.0" encoding="utf-8"?>
<!-- Generator: Adobe Illustrator 16.0.0, SVG Export Plug-In . SVG Version: 6.00 Build 0)  -->
<!DOCTYPE svg PUBLIC "-//W3C//DTD SVG 1.1//EN" "http://www.w3.org/Graphics/SVG/1.1/DTD/svg11.dtd">
<svg version="1.1" id="Layer_1" xmlns="http://www.w3.org/2000/svg" xmlns:xlink="http://www.w3.org/1999/xlink" x="0px" y="0px"
	 width="200px" height="200px" viewBox="0 0 200 200" enable-background="new 0 0 200 200" xml:space="preserve">
<g id="_x33_">
	<g id="_x33__x2C__03_x2C__4_x2C__04_x2C__37_x2C__38_x2C__47">
		<g>
			<g>
				<path fill="#FFFFFF" d="M147.184,29.253c0-1.473-1.552-2.658-3.457-2.658h-0.035l0,0H80.293c-1.592,0-2.915,0.824-3.329,1.938
					L51.912,99.945c-0.179,0.312-0.278,0.674-0.278,1.035c0,1.479,1.555,2.654,3.473,2.654h0.044h23.553l-22.418,63.926h0.025
					c-0.168,0.44-0.271,0.89-0.271,1.369c0,2.807,2.964,5.072,6.636,5.072c2.461,0,4.579-1.023,5.729-2.533l0.038,0.006
					l73.674-97.488h-0.036c0.18-0.33,0.301-0.691,0.301-1.055c0-1.473-1.563-2.658-3.476-2.658c0,0-0.022,0.008-0.028,0.008v-0.008
					h-22.175l30.023-39.729C147.008,30.159,147.184,29.718,147.184,29.253z"/>
			</g>
		</g>
	</g>
</g>
<g id="Layer_1_1_">
</g>
</svg>
