<?xml version="1.0" encoding="iso-8859-1"?>
<!-- Generator: Adobe Illustrator 16.0.0, SVG Export Plug-In . SVG Version: 6.00 Build 0)  -->
<!DOCTYPE svg PUBLIC "-//W3C//DTD SVG 1.1//EN" "http://www.w3.org/Graphics/SVG/1.1/DTD/svg11.dtd">
<svg version="1.1" xmlns="http://www.w3.org/2000/svg" xmlns:xlink="http://www.w3.org/1999/xlink" x="0px" y="0px" width="200px"
	 height="200px" viewBox="0 0 200 200" style="enable-background:new 0 0 200 200;" xml:space="preserve">
<g id="_x32_5">
	<g id="_x32_5_x2C__44_x2C__na">
		<path style="fill:#FFFFFF;" d="M100,32.631c-37.627,0-68.129,30.502-68.129,68.129c0,37.631,30.502,68.133,68.129,68.133
			c37.626,0,68.132-30.502,68.132-68.133C168.132,63.133,137.626,32.631,100,32.631z M87.025,106.886H58.908
			c-3.508,0-6.351-2.844-6.351-6.352c0-3.505,2.843-6.348,6.351-6.348h28.118c3.506,0,6.35,2.843,6.35,6.348
			C93.375,104.042,90.531,106.886,87.025,106.886z M140.547,106.886H112.43c-3.509,0-6.352-2.844-6.352-6.352
			c0-3.505,2.843-6.348,6.352-6.348h28.117c3.505,0,6.35,2.843,6.35,6.348C146.896,104.042,144.052,106.886,140.547,106.886z"/>
	</g>
</g>
<g id="Layer_1">
</g>
</svg>
