<?xml version="1.0" encoding="utf-8"?>
<!-- Generator: Adobe Illustrator 16.0.0, SVG Export Plug-In . SVG Version: 6.00 Build 0)  -->
<!DOCTYPE svg PUBLIC "-//W3C//DTD SVG 1.1//EN" "http://www.w3.org/Graphics/SVG/1.1/DTD/svg11.dtd">
<svg version="1.1" id="图层_1" xmlns="http://www.w3.org/2000/svg" xmlns:xlink="http://www.w3.org/1999/xlink" x="0px" y="0px"
	 width="400px" height="400px" viewBox="0 0 400 400" enable-background="new 0 0 400 400" xml:space="preserve">
<path id="shape" fill-rule="evenodd" clip-rule="evenodd" d="M167.8,113.1c15-21,34.6-33.9,59.5-38.9c50-10.1,101.6,27.5,106.2,78.2
	c0.8,9.1,3.5,14.2,12,18.9c33.9,18.8,49.8,55.4,42,93.4c-7.3,35.9-38,63.9-75.7,67.5c-14.8,1.4-29.8,0.5-44.7,0.5
	c-56.4,0-112.8,0-169.1,0c-44.5,0-80.1-31.2-86.5-75.5c-6-41.8,20.4-82.2,62.1-94.2c6.1-1.7,8.2-4.3,8.8-10.4
	c4.1-37.6,44.2-59,79.1-42.7C163.4,110.8,165.3,111.8,167.8,113.1z"/>
</svg>
