<?xml version="1.0" encoding="utf-8"?>
<!-- Generator: Adobe Illustrator 16.0.0, SVG Export Plug-In . SVG Version: 6.00 Build 0)  -->
<!DOCTYPE svg PUBLIC "-//W3C//DTD SVG 1.1//EN" "http://www.w3.org/Graphics/SVG/1.1/DTD/svg11.dtd">
<svg version="1.1" id="图层_1" xmlns="http://www.w3.org/2000/svg" xmlns:xlink="http://www.w3.org/1999/xlink" x="0px" y="0px"
	 width="400px" height="400px" viewBox="0 0 400 400" enable-background="new 0 0 400 400" xml:space="preserve">
<path id="shape" fill-rule="evenodd" clip-rule="evenodd" d="M68.9,58.3c9.2,2.4,18.7,4,27.6,7.3c26.2,9.7,53.1,12.2,80.6,8.1
	c5.2-0.8,10.5-2.7,15.1-5.3c4.7-2.7,8.1-2.9,12.8-0.1c11.9,6.9,25.2,7.4,38.5,7.3c21.6-0.2,42.4-4.2,62.9-11.8
	c21-7.8,43.2-7.7,60.6,8.8c17.1,16.3,24.1,37,16.6,60.7c-1.1,3.4-2.7,6.7-4.7,9.6c-12.7,18.7-9.5,37.4,0.2,55.7
	c2.3,4.3,2.3,7,0,11.3c-9.5,18.4-13,36.9-0.2,55.7c19.9,29.1-2.2,79.8-38.2,82.4c-14.1,1-27.4,0-40.7-5.4
	c-25.3-10.1-51.8-12.1-78.6-8c-6.4,1-12.4,4.8-18.7,6.9c-2.2,0.7-4.9,0.8-7.1,0.1c-8.5-2.5-16.7-7-25.3-7.9
	c-25.2-2.7-50.1-0.5-73.8,9.6c-14.6,6.2-29.5,6.1-44.8,3.7c-28.8-4.5-52.2-50.9-33-80c13.2-20.1,10.2-39.1-0.4-58.7
	c-1.2-2.1-1-6,0.1-8.2c10.3-19.1,14.2-38.2,0.7-57.4c-18.6-26.4,0.5-82.4,42.9-82.4c2.2,0,4.5-0.2,6.7-0.3
	C68.7,59.4,68.8,58.9,68.9,58.3z"/>
</svg>
