<?xml version="1.0" encoding="utf-8"?>
<!-- Generator: Adobe Illustrator 16.0.0, SVG Export Plug-In . SVG Version: 6.00 Build 0)  -->
<!DOCTYPE svg PUBLIC "-//W3C//DTD SVG 1.1//EN" "http://www.w3.org/Graphics/SVG/1.1/DTD/svg11.dtd">
<svg version="1.1" id="图层_1" xmlns="http://www.w3.org/2000/svg" xmlns:xlink="http://www.w3.org/1999/xlink" x="0px" y="0px"
	 width="400px" height="400px" viewBox="0 0 400 400" enable-background="new 0 0 400 400" xml:space="preserve">
<path id="shape" fill-rule="evenodd" clip-rule="evenodd" d="M339.6,204.7c1,15.7,3.7,30.8,2.5,45.5c-3.5,42-26.7,71.1-63.5,89.9
	c-25.5,13-52.9,17.2-81.3,16.7c-24.7-0.4-48.6-4.5-70.9-15.3c-39.5-19-63.6-49.4-67-94c-0.8-10.8,1.5-21.8,2.5-32.7
	c0.3-3.1,1.1-6.1,1.8-9.4c-6.6-1.3-13-2.2-19.2-3.9c-14.3-4.1-25.9-11.9-33.7-24.9c-2.7-4.5-3.2-8.7-1.4-13.8
	C31.6,103,73.7,66.6,136.9,57.3c43.3-6.4,87.2-6.6,130.4,1.1c61.4,10.9,101.4,47.9,121.8,106.4c1,2.9,0.6,7.2-0.8,10
	c-8.2,15.8-22.1,24.1-39,28.1C345.8,203.7,342.2,204.2,339.6,204.7z"/>
</svg>
