<?xml version="1.0" encoding="utf-8"?>
<!-- Generator: Adobe Illustrator 16.0.0, SVG Export Plug-In . SVG Version: 6.00 Build 0)  -->
<!DOCTYPE svg PUBLIC "-//W3C//DTD SVG 1.1//EN" "http://www.w3.org/Graphics/SVG/1.1/DTD/svg11.dtd">
<svg version="1.1" id="图层_1" xmlns="http://www.w3.org/2000/svg" xmlns:xlink="http://www.w3.org/1999/xlink" x="0px" y="0px"
	 width="400px" height="400px" viewBox="0 0 400 400" enable-background="new 0 0 400 400" xml:space="preserve">
<path id="shape" fill-rule="evenodd" clip-rule="evenodd" d="M28.1,265.6c-2.2,0.9-4.2,1.8-7.4,3.1C6.6,212.5,8.4,160.3,51.7,116
	c-15.5-22.4-13.2-45.6-2.9-68.6C55.6,32.1,68.6,27.3,84,34c7.8,3.4,14.8,8.7,22,13.2c2.1,1.3,4.1,2.9,6,4.7
	c12,11.1,23.7,15.1,41.2,8.8c36-13.1,72.7-9.7,108.4,3.8c2.8,1.1,7.2,0.8,9.6-0.7c8.6-5.3,16.4-11.9,24.9-17.3
	c8.3-5.2,16.7-10.7,25.8-14c11.8-4.3,22.7,1,29,11.9c12.6,21.7,12.2,48.1-1.5,72c19.4,18.3,31.1,41.1,36.3,67.4
	c5.5,28.4,2.2,56.4-5.2,84.6c-2.6-0.9-5.1-1.7-7.3-2.5c-3.4,10.7-6.2,21.5-10.2,31.8c-8.5,21.8-22.5,39.3-41.9,52.7
	c-4.1,2.8-7.4,4.1-11.2,0.3c-5.5-5.4-10.3-4.1-16.5-0.2c-14.6,9.4-30.5,16-48.5,14.8c-1.7-0.1-3.5,0.2-5.2,0.8
	c-25.9,7.9-51.8,7.7-77.8,0.2c-1-0.3-1.9-0.7-2.9-0.8c-10.4-1.6-21.2-2-31.1-5.1c-10-3.2-19.1-9.1-29.1-14.1c0.5-0.2,0.3-0.1,0,0
	c-14.7,8-14.8,8-28-2.9c-22.1-18.4-34.3-42.7-40.4-70.4c-0.4-1.7-0.7-3.5-1.2-5.2C29,267,28.5,266.4,28.1,265.6z"/>
</svg>
