<?xml version="1.0" encoding="utf-8"?>
<!-- Generator: Adobe Illustrator 16.0.0, SVG Export Plug-In . SVG Version: 6.00 Build 0)  -->
<!DOCTYPE svg PUBLIC "-//W3C//DTD SVG 1.1//EN" "http://www.w3.org/Graphics/SVG/1.1/DTD/svg11.dtd">
<svg version="1.1" id="图层_1" xmlns="http://www.w3.org/2000/svg" xmlns:xlink="http://www.w3.org/1999/xlink" x="0px" y="0px"
	 width="400px" height="400px" viewBox="0 0 400 400" enable-background="new 0 0 400 400" xml:space="preserve">
<path id="shape" fill-rule="evenodd" clip-rule="evenodd" d="M48.5,236.2c-9.5-18.6-10.2-37.3-0.5-56c9.2-17.7,24.1-29.6,40.8-39
	c-8.1-32.1,0.5-52.7,29.6-68.5c10.4-5.6,22.1-8.8,33-13.6c3.7-1.6,7.7-4.1,10-7.3c12.9-18.1,30.9-29.9,49.9-40.3
	c2.2-1.2,7-0.8,8.4,0.8c1.7,2,2.6,6.8,1.4,9c-12.4,22.3,0.8,33.5,21.2,38.2c17.3,4,34.3,8.7,48.4,20.2
	c13.9,11.5,24.4,24.9,23.5,44.3c-0.1,1.6,0.2,3.4-0.5,4.6c-4.9,9.3-0.5,13.9,7.6,18.4c13.6,7.6,24.1,18.8,31.5,32.7
	c9,16.9,9.9,34.3,1.8,51.7c-2.3,5-1.8,7.5,2.6,10.8c12.5,9,22.3,20.5,26.6,35.5c6.7,23.5-2.5,42.4-19.2,58.1
	c-17.5,16.5-38.7,27.1-61.6,33.9c-70.4,20.9-140.8,20.7-210.9-1.2c-18.8-5.9-35.9-15-51.4-27.1c-5.3-4.1-10.1-9-14.3-14.3
	C7.5,302.9,8.8,275.5,29.9,253C35.4,247.2,41.8,242.2,48.5,236.2z"/>
</svg>
