<?xml version="1.0" encoding="utf-8"?>
<!-- Generator: Adobe Illustrator 16.0.0, SVG Export Plug-In . SVG Version: 6.00 Build 0)  -->
<!DOCTYPE svg PUBLIC "-//W3C//DTD SVG 1.1//EN" "http://www.w3.org/Graphics/SVG/1.1/DTD/svg11.dtd">
<svg version="1.1" id="图层_1" xmlns="http://www.w3.org/2000/svg" xmlns:xlink="http://www.w3.org/1999/xlink" x="0px" y="0px"
	 width="400px" height="400px" viewBox="0 0 400 400" enable-background="new 0 0 400 400" xml:space="preserve">
<path id="shape" fill-rule="evenodd" clip-rule="evenodd" d="M115.6,86.1c20.5-1.4,37.2-2.1,53.9-3.7c9.2-0.8,17.5-4.4,25-10.2
	c2-1.5,7-1.9,8.6-0.5c10,8.3,21.8,11.3,34,11.8c23,1,46,1,69,1.4c12.8,0.2,25,3.1,36.3,9.2c16.7,8.9,24.9,23.2,26.3,41.6
	c0.8,10.5,0.7,21.1,1.3,31.7c0.6,10.9,3.9,20.6,12.4,28.2c5.3,4.8,5.4,7,0,11.6c-8.7,7.5-11.7,17.3-12.4,28.1
	c-0.8,11.8-0.1,23.7-1.8,35.4c-3.8,26.6-25.4,45.1-54.1,46.4c-22.5,1-45.1,0.7-67.7,1.5c-8.4,0.3-17,1.4-25.1,3.5
	c-6,1.6-11.7,5-17,8.5c-3.9,2.5-6.9,3.1-10.5-0.1c-8.5-7.5-18.8-10.4-29.7-10.8c-25.8-1-51.7-1.6-77.5-2.4
	c-11-0.3-21.2-3.5-30.8-8.7c-16.8-9.1-25.3-23.4-26.4-42.2c-0.6-10.5-0.7-21.1-1.3-31.7c-0.7-10.6-3.8-20.2-12.3-27.5
	c-5.1-4.4-5.1-7.3-0.5-11.2c8.7-7.4,12.2-17,12.9-27.9c0.5-8.7,0.9-17.4,1-26.1c0-35,22.4-51.7,50.6-55.7
	C92.6,84.6,106.1,86.1,115.6,86.1z"/>
</svg>
