<?xml version="1.0" encoding="utf-8"?>
<!-- Generator: Adobe Illustrator 16.0.0, SVG Export Plug-In . SVG Version: 6.00 Build 0)  -->
<!DOCTYPE svg PUBLIC "-//W3C//DTD SVG 1.1//EN" "http://www.w3.org/Graphics/SVG/1.1/DTD/svg11.dtd">
<svg version="1.1" id="图层_1" xmlns="http://www.w3.org/2000/svg" xmlns:xlink="http://www.w3.org/1999/xlink" x="0px" y="0px"
	 width="400px" height="400px" viewBox="0 0 400 400" enable-background="new 0 0 400 400" xml:space="preserve">
<path id="shape" fill-rule="evenodd" clip-rule="evenodd" d="M200.1,84c3.9-4.4,7.6-8.7,11.4-12.8c15.1-16.2,31.8-30.2,53.9-35.7
	c54-13.3,109.8,23.7,119.9,79.5c5.3,29.2,5,58.3-6.9,85.9c-4.9,11.3-11.4,22.4-19.5,31.5c-47.3,52.8-102.4,96.9-158.8,140.6
	c-13.7-10.8-27.3-21.5-40.9-32.3c-38.8-31-76-63.8-110.5-99.7c-29.5-30.7-40.6-67.1-37-108.5c2.4-27.5,12.8-51.9,32.6-71.7
	c37.4-37.3,95.4-37.7,133.2-0.8C185.3,67.6,192.4,75.7,200.1,84z"/>
</svg>
