<?xml version="1.0" encoding="utf-8"?>
<!-- Generator: Adobe Illustrator 16.0.0, SVG Export Plug-In . SVG Version: 6.00 Build 0)  -->
<!DOCTYPE svg PUBLIC "-//W3C//DTD SVG 1.1//EN" "http://www.w3.org/Graphics/SVG/1.1/DTD/svg11.dtd">
<svg version="1.1" id="图层_1" xmlns="http://www.w3.org/2000/svg" xmlns:xlink="http://www.w3.org/1999/xlink" x="0px" y="0px"
	 width="400px" height="400px" viewBox="0 0 400 400" enable-background="new 0 0 400 400" xml:space="preserve">
<path id="shape" fill-rule="evenodd" clip-rule="evenodd" d="M198.9,380.2c-63.4-0.9-116.5-44.7-130.2-108.9c-2.3-10.8-5.8-17.9-16-24
	c-25.3-15-37.6-45.3-31.3-72.1c5-21.1,18.9-34,39.2-40.1c4.2-1.3,6-3,7-7.4c12.9-54.9,55.4-95.6,109-104.7
	c61.6-10.4,120.8,22.3,145.6,80.7c3.4,8,5.3,16.6,8.3,24.7c0.9,2.3,3,5.3,5,5.8c31.5,7.5,52.2,40.6,38,77.9
	c-6.8,17.9-18.8,31.3-36,39.9c-3.8,1.9-5.6,4-6.2,8.4c-8.1,57-47.9,102.3-101.4,115.1C219.9,378,209.3,378.7,198.9,380.2z"/>
</svg>
