<?xml version="1.0" encoding="utf-8"?>
<!-- Generator: Adobe Illustrator 16.0.0, SVG Export Plug-In . SVG Version: 6.00 Build 0)  -->
<!DOCTYPE svg PUBLIC "-//W3C//DTD SVG 1.1//EN" "http://www.w3.org/Graphics/SVG/1.1/DTD/svg11.dtd">
<svg version="1.1" id="图层_1" xmlns="http://www.w3.org/2000/svg" xmlns:xlink="http://www.w3.org/1999/xlink" x="0px" y="0px"
	 width="400px" height="400px" viewBox="0 0 400 400" enable-background="new 0 0 400 400" xml:space="preserve">
<path id="shape" fill-rule="evenodd" clip-rule="evenodd" d="M388.3,156.9c-2,1.3-4.2,2.4-6,4.1c-28.7,26.9-57.4,54-86.2,80.9
	c-3.4,3.1-4.3,6-3.4,10.5c7.9,40.4,15.6,80.8,23.3,121.1c0.1,0.6,0,1.3,0,2.8c-2.6-1.3-4.7-2.3-6.7-3.4c-34.5-19-68.9-38-103.3-57.2
	c-4.2-2.4-7.3-2.4-11.5,0c-34.1,19.1-68.4,37.9-102.7,56.8c-2.1,1.2-4.3,2.3-7.8,4.1c2.2-11.7,4.2-22.2,6.2-32.8
	c5.9-31,11.8-61.9,17.9-92.8c0.8-4.2-0.9-6.6-3.7-9.2c-28.7-26.9-57.4-54-86.1-80.9c-1.7-1.6-4-2.7-6-4.1c0.4-0.7,0.9-1.3,1.3-2
	c18.5-2.4,37-4.8,55.6-7.1c22.9-2.9,45.7-5.8,68.6-8.5c4.4-0.5,6.9-2.4,8.8-6.6c16.6-35.9,33.5-71.7,50.3-107.5c0.9-2,2-4,3.4-6.9
	c1.4,2.8,2.5,4.8,3.5,6.9c16.6,35.4,33.4,70.8,49.6,106.3c2.6,5.6,6,7.4,11.5,8c40.6,5,81.2,10.1,121.8,15.2
	C387.2,155.4,387.7,156.2,388.3,156.9z"/>
</svg>
