<?xml version="1.0" encoding="utf-8"?>
<!-- Generator: Adobe Illustrator 16.0.0, SVG Export Plug-In . SVG Version: 6.00 Build 0)  -->
<!DOCTYPE svg PUBLIC "-//W3C//DTD SVG 1.1//EN" "http://www.w3.org/Graphics/SVG/1.1/DTD/svg11.dtd">
<svg version="1.1" id="图层_1" xmlns="http://www.w3.org/2000/svg" xmlns:xlink="http://www.w3.org/1999/xlink" x="0px" y="0px"
	 width="400px" height="400px" viewBox="0 0 400 400" enable-background="new 0 0 400 400" xml:space="preserve">
<path id="shape" fill-rule="evenodd" clip-rule="evenodd" d="M20.9,369.2c2.5-3.5,4.1-6.6,6.5-8.9c6.3-5.9,13-11.4,19.3-17.2
	c11.4-10.5,20.7-22.5,25.4-37.7c1.6-5,0.6-8.2-3.2-11.9c-35.1-33.5-53.1-74-49-123C23.4,127,44.3,92.4,77.5,65.1
	c69.2-56.9,177.2-56.7,246.3,0.1c79.5,65.3,77.5,177.6-4.8,239.6c-44.1,33.2-94.3,44.1-148.7,36.9c-4.9-0.6-10.6,0.2-15.1,2.1
	c-31.5,13.6-63.3,26.2-97.8,29.8C45.4,374.7,33.6,374.5,20.9,369.2z"/>
</svg>
