<?xml version="1.0" encoding="utf-8"?>
<!-- Generator: Adobe Illustrator 16.0.0, SVG Export Plug-In . SVG Version: 6.00 Build 0)  -->
<!DOCTYPE svg PUBLIC "-//W3C//DTD SVG 1.1//EN" "http://www.w3.org/Graphics/SVG/1.1/DTD/svg11.dtd">
<svg version="1.1" id="图层_1" xmlns="http://www.w3.org/2000/svg" xmlns:xlink="http://www.w3.org/1999/xlink" x="0px" y="0px"
	 width="400px" height="400px" viewBox="0 0 400 400" enable-background="new 0 0 400 400" xml:space="preserve">
<path id="shape" fill-rule="evenodd" clip-rule="evenodd" d="M192.9,387.2c-13.9-3.8-27.8-8.1-37-20.1c-5.8-7.5-10.6-15.7-16.1-24
	c-25.3,11.1-50.4,10-71.4-11c-21-21-22.9-46.1-10.3-73c-28.7-10.4-45.5-30.5-44.4-61.3c1-28.3,17.2-47,44.5-56.4
	C44.8,113.2,47.6,87.1,70.6,66c20.6-18.8,44.9-19.6,70.2-8.2c11.3-28.2,31-45.4,62.5-44c28,1.3,45.5,17.9,55.7,43.7
	c28.1-11.7,54.4-10.1,75.6,13.9c18.5,20.8,19.3,44.5,7.4,69.8c27.6,10.1,44.4,29.1,44.3,59.1c-0.1,29.7-16.5,48.6-44.4,58.8
	c13.2,27.7,10.6,53.3-11.6,74.4c-20.7,19.7-45.4,20.6-70.4,9.5c-4.4,7.2-8.1,14.2-12.7,20.7c-10,14-24.8,20-40.8,23.6
	C202,387.2,197.4,387.2,192.9,387.2z"/>
</svg>
