<?xml version="1.0" encoding="utf-8"?>
<!-- Generator: Adobe Illustrator 16.0.0, SVG Export Plug-In . SVG Version: 6.00 Build 0)  -->
<!DOCTYPE svg PUBLIC "-//W3C//DTD SVG 1.1//EN" "http://www.w3.org/Graphics/SVG/1.1/DTD/svg11.dtd">
<svg version="1.1" id="图层_1" xmlns="http://www.w3.org/2000/svg" xmlns:xlink="http://www.w3.org/1999/xlink" x="0px" y="0px"
	 width="400px" height="400px" viewBox="0 0 400 400" enable-background="new 0 0 400 400" xml:space="preserve">
<path id="shape" fill-rule="evenodd" clip-rule="evenodd" d="M386.7,133.8c-15.9,7.8-30.2,15.4-45.1,21.8c-7.2,3.1-9.2,7.2-9,14.7
	c0.7,23.9,0.4,47.7-6.6,71.1c-19.4,64.8-79.2,111.9-146.8,113.2c-54.1,1-108.2,0.3-162.3,0.3c-0.7,0-1.4-0.2-2.8-0.4
	c1.1-1.9,1.8-3.6,2.9-5.2c64.3-91.5,128.6-183.1,193.1-274.5c22.5-31.9,64.4-38.7,95.7-15.7c14.4,10.6,22.9,25.2,26.4,42.9
	c0.6,3,3.4,6.5,6.1,8C353.8,117.9,369.5,125.4,386.7,133.8z M283.6,107.5c0.1-5.3-4.6-9.9-10-10c-5.3,0-10.2,4.6-10.3,9.8
	c-0.1,5.2,4.7,9.9,10.1,9.9C278.8,117.4,283.5,112.9,283.6,107.5z"/>
</svg>
