<?xml version="1.0" encoding="utf-8"?>
<!-- Generator: Adobe Illustrator 16.0.0, SVG Export Plug-In . SVG Version: 6.00 Build 0)  -->
<!DOCTYPE svg PUBLIC "-//W3C//DTD SVG 1.1//EN" "http://www.w3.org/Graphics/SVG/1.1/DTD/svg11.dtd">
<svg version="1.1" id="图层_1" xmlns="http://www.w3.org/2000/svg" xmlns:xlink="http://www.w3.org/1999/xlink" x="0px" y="0px"
	 width="400px" height="400px" viewBox="0 0 400 400" enable-background="new 0 0 400 400" xml:space="preserve">
<path id="shape" fill-rule="evenodd" clip-rule="evenodd" d="M89.2,159.4c-10.6-5.1-20.4-8.7-28.9-14.1c-11.4-7.2-22.7-15.1-32.6-24.3
	c-5.4-5.1-9.2-13.1-11.3-20.5C12.8,87.4,21.1,77.6,34.9,78c9.2,0.3,18.3,2.2,27.5,3.4c2.5,0.3,5,0.8,7.5,1.3
	c12.7-41.4,39.6-65,83.1-66.2c33.5-0.9,64.5,20.6,77,51.1c14.9,36.2,6.2,66.4-31.2,103.6c12.2,2.7,23.2,6.6,34.5,7.2
	c17.1,0.9,34.5,1.1,51.4-1.3c23.2-3.3,40.1-17.3,51.9-37.6c5.9-10.2,7.1-10.3,15.7-1.8c26.2,25.7,34.1,58.1,32.5,93.2
	c-3,65.9-42.9,115.2-108.8,135c-51.2,15.3-103.6,17.9-155.7,7.7c-44.3-8.6-78-33.2-92.6-77.9c-16.2-49.7,6.2-105,51.7-130.6
	C82.2,163.3,85.1,161.7,89.2,159.4z"/>
</svg>
