<?xml version="1.0" encoding="utf-8"?>
<!-- Generator: Adobe Illustrator 16.0.0, SVG Export Plug-In . SVG Version: 6.00 Build 0)  -->
<!DOCTYPE svg PUBLIC "-//W3C//DTD SVG 1.1//EN" "http://www.w3.org/Graphics/SVG/1.1/DTD/svg11.dtd">
<svg version="1.1" id="图层_1" xmlns="http://www.w3.org/2000/svg" xmlns:xlink="http://www.w3.org/1999/xlink" x="0px" y="0px"
	 width="400px" height="400px" viewBox="0 0 400 400" enable-background="new 0 0 400 400" xml:space="preserve">
<path id="shape" fill-rule="evenodd" clip-rule="evenodd" d="M351.6,293c-17.1,0-33.3,0.3-49.6-0.1c-5.5-0.1-8.6,1.5-11.5,6.2
	c-9.1,14.8-22.8,24.3-39,29.7c-34.1,11.5-68.5,11.7-102.6,0.1c-17.4-5.9-31.4-16.5-41.1-32.5c-1.1-1.8-4.3-3.1-6.5-3.2
	c-17.2-0.3-34.4-0.1-52-0.1c-0.2-2.1-0.6-3.6-0.6-5c-0.1-6.6-0.6-13.2,0.1-19.8c1-10.8-0.3-18.7-12.7-22.9
	c-9.5-3.2-15.3-12.3-18.8-21.9c-5.8-15.6-6.5-31.4-0.9-47.2c4.8-13.5,13.9-23.3,27.5-28c3.9-1.4,4.9-3.2,4.8-7.1
	c-0.2-11.8-0.1-23.6-0.1-36.4c2.4,0,4.4,0,6.4,0c15.1,0,30.2-0.2,45.3,0c3.9,0,6.2-0.9,8.3-4.6c8.4-14.5,21.1-24.4,36.6-30
	c37-13.5,74.3-13.6,111.2,0.8c15.2,5.9,27,16.3,35.8,30.2c1.1,1.8,4.2,3.3,6.4,3.3c17.2,0.3,34.4,0.1,52.3,0.1
	c0.2,2.6,0.4,4.6,0.4,6.7c0,10.3-0.1,20.5,0.2,30.8c0.1,1.9,1.8,4.8,3.4,5.4c20.4,7.6,29.9,23.3,31.7,43.9c0.7,8,0,16.3-1.5,24.2
	c-3.3,16.7-13.6,28-29.5,33.8c-3.5,1.3-4.4,2.9-4.4,6.2C351.7,267.8,351.6,279.8,351.6,293z"/>
</svg>
