<?xml version="1.0" encoding="utf-8"?>
<!-- Generator: Adobe Illustrator 16.0.0, SVG Export Plug-In . SVG Version: 6.00 Build 0)  -->
<!DOCTYPE svg PUBLIC "-//W3C//DTD SVG 1.1//EN" "http://www.w3.org/Graphics/SVG/1.1/DTD/svg11.dtd">
<svg version="1.1" id="图层_1" xmlns="http://www.w3.org/2000/svg" xmlns:xlink="http://www.w3.org/1999/xlink" x="0px" y="0px"
	 width="400px" height="400px" viewBox="0 0 400 400" enable-background="new 0 0 400 400" xml:space="preserve">
<path id="shape" fill-rule="evenodd" clip-rule="evenodd" d="M290,385.1c-5.3-3.5-9.1-5.7-12.6-8.4c-30.3-23.7-60.9-47.1-90.7-71.4
	c-12-9.8-25.1-13.8-40.1-13.7c-28.7,0.1-57.5,0.6-86.2-0.3c-10-0.3-20.3-3.2-29.7-6.9c-9.9-3.8-14.7-12.7-14.7-23.4
	c-0.1-71.7,0-143.4,0.1-215.1c0-11.2,5.9-19.7,16-23.4c9-3.3,18.9-5.5,28.4-5.5c68.9-0.5,137.8-0.4,206.7-0.4
	c24.5,0,49.1,0,73.7,0.3c5.8,0.1,11.7,0.8,17.4,2.1c17.1,4.1,24.6,14.1,24.7,31.7c0,68.1-0.3,136.2,0.3,204.2
	c0.2,21.7-11.7,31.8-28.1,34.4c-13.7,2.2-27.7,1.9-41.6,2.1c-22.1,0.3-22.6,0.5-22.7,22.3c-0.1,20.1-0.1,40.2-0.2,60.3
	C290.6,377,290.3,380,290,385.1z"/>
</svg>
