<?xml version="1.0" encoding="utf-8"?>
<!-- Generator: Adobe Illustrator 16.0.0, SVG Export Plug-In . SVG Version: 6.00 Build 0)  -->
<!DOCTYPE svg PUBLIC "-//W3C//DTD SVG 1.1//EN" "http://www.w3.org/Graphics/SVG/1.1/DTD/svg11.dtd">
<svg version="1.1" id="图层_1" xmlns="http://www.w3.org/2000/svg" xmlns:xlink="http://www.w3.org/1999/xlink" x="0px" y="0px"
	 width="400px" height="400px" viewBox="0 0 400 400" enable-background="new 0 0 400 400" xml:space="preserve">
<path id="shape" fill-rule="evenodd" clip-rule="evenodd" d="M15.1,351.3c0-2.8,0-5.3,0-7.7c0-62.2,0-124.5,0-186.7
	c0.1-53.6,32.5-94.3,84.8-106c7.6-1.7,15.5-2.1,23.3-2.1c40.3-0.2,80.6,0.1,120.9-0.2c54.4-0.4,96.1,36,106.2,83.2
	c1.7,8,2.3,16.4,2.3,24.6c0.3,28.7,0.8,57.3-0.1,86c-0.7,22.2,9.2,37.9,32.3,41.6c0,18.2,0,36.5,0,55.5c-11.1,0.6-21.7-1.5-31.7-5.8
	c-36.1-15.5-54.6-43.3-56.6-82.3c-0.2-5-0.7-9.3-6.8-9.2c-6,0.1-6.9,4.3-6.9,9.3c0.1,30.7,0,61.3,0,92c0,2.6,0,5.2,0,8.2
	c-30.3,0-59.8,0-90.2,0c0-12.6-0.4-25.1,0.2-37.5c0.3-6.3-1.6-9-7.9-10.4c-22.5-5.1-44.7-5.2-67.1,0.5c-4.5,1.1-6.2,2.8-6,7.6
	c0.4,13,0.1,26,0.1,39.5C79.9,351.3,48,351.3,15.1,351.3z M291.5,172c-1-0.1-2.1-0.1-3.1-0.2c-1.6,2.3-4.7,4.8-4.5,6.9
	c0.3,2.4,3.5,4.4,5.5,6.6c2.2-2,5.7-3.8,6.2-6.1C296.1,177.2,293.1,174.4,291.5,172z"/>
</svg>
