<?xml version="1.0" encoding="utf-8"?>
<!-- Generator: Adobe Illustrator 16.0.0, SVG Export Plug-In . SVG Version: 6.00 Build 0)  -->
<!DOCTYPE svg PUBLIC "-//W3C//DTD SVG 1.1//EN" "http://www.w3.org/Graphics/SVG/1.1/DTD/svg11.dtd">
<svg version="1.1" id="图层_1" xmlns="http://www.w3.org/2000/svg" xmlns:xlink="http://www.w3.org/1999/xlink" x="0px" y="0px"
	 width="400px" height="400px" viewBox="0 0 400 400" enable-background="new 0 0 400 400" xml:space="preserve">
<path id="shape" fill-rule="evenodd" clip-rule="evenodd" d="M225.8,114.2c17.4-46.3,50.5-75.7,94-93.9c27.4-11.4,42.2-2.5,46.5,27.1
	c6.1,42.2,1.7,82.9-19.8,120.7c-1.4,2.5-1.4,6-1.4,9.1c-0.4,24-0.3,47.9-1,71.9c-0.4,14.5-7.6,25.6-18.9,34.6
	c-18.4,14.6-39.1,24.8-60.6,33.5c-6,2.4-8.4,5.4-8.6,12.1c-0.2,9.5-0.9,19.4-3.9,28.2c-2,5.9-7.3,12.1-12.8,15.2
	c-24.2,13.6-49.2,13.4-74.4,1.7c-10.2-4.7-15.7-12.6-17.4-23.2c-1.2-7.9-1.7-15.9-1.9-23.9c-0.1-4.7-1.8-6.8-6-8.9
	c-18.5-9.3-37-18.8-55.1-29c-19.4-10.9-28.1-28.6-28.2-50.4c-0.2-20.2,0.3-40.5,0.3-60.8c0-3.3,0-7.2-1.6-9.9
	c-18-30.5-22.6-64-21.5-98.6C33.6,59,35,48,37.7,37.5c5-19.3,15.4-25.1,34.8-20.1c25.2,6.5,45.8,21.1,64.6,38.5
	c16.4,15.2,29.8,32.7,36.9,54.3c0.5,1.7,3.1,3.8,4.7,3.8C194.4,114.3,210.1,114.2,225.8,114.2z"/>
</svg>
