<?xml version="1.0" encoding="utf-8"?>
<!-- Generator: Adobe Illustrator 16.0.0, SVG Export Plug-In . SVG Version: 6.00 Build 0)  -->
<!DOCTYPE svg PUBLIC "-//W3C//DTD SVG 1.1//EN" "http://www.w3.org/Graphics/SVG/1.1/DTD/svg11.dtd">
<svg version="1.1" id="图层_1" xmlns="http://www.w3.org/2000/svg" xmlns:xlink="http://www.w3.org/1999/xlink" x="0px" y="0px"
	 width="400px" height="400px" viewBox="0 0 400 400" enable-background="new 0 0 400 400" xml:space="preserve">
<path id="shape" fill-rule="evenodd" clip-rule="evenodd" d="M206.1,25.8c2.2,0.6,4.4,1.3,6.7,1.9C235,34,249.8,48,257,69.9
	c0.9,2.7,1.5,5.4,2.2,7.9c7.2,0.7,14.1,0.6,20.7,2.1c25.9,6.1,41.3,22.6,47.1,48.4c0.9,4,2,7.1,6.1,9.5
	c32.1,18.6,48.5,47.5,53.5,83.5c0.7,5.4,1.2,10.8,1.3,16.3c0.4,11.4-2.8,14.5-14,14.3c-24.5-0.4-46.4-8-66.6-23.8
	c-1.6,9.8-2.9,19-4.7,28.1c-4.6,24.1-11.8,47.3-24.2,68.7c-23,39.6-65.3,57.1-106.6,43.8c-23.6-7.6-40.1-23.6-52.3-44.5
	c-15.9-27.3-22.9-57.4-27.1-88.3c-0.3-2.2-0.6-4.5-1.1-7.7c-14.3,10.7-28.9,18.4-45.5,21.3c-7.9,1.3-16,2-24,2.4
	c-7.7,0.3-11.6-3.4-11.4-11.2c1.1-41,14.1-76.2,50.2-99.6c5.5-3.6,8.4-7.4,9.8-14.1c6-29.3,30.7-48.6,60.8-48.5c1.9,0,3.8,0,6.1,0
	c0.6-1.7,1.3-3.4,1.8-5.1c7.2-25.4,23.4-41,49.4-46.3c1.1-0.2,2.2-0.8,3.3-1.2C196.6,25.8,201.3,25.8,206.1,25.8z"/>
</svg>
