<?xml version="1.0" encoding="utf-8"?>
<!-- Generator: Adobe Illustrator 16.0.0, SVG Export Plug-In . SVG Version: 6.00 Build 0)  -->
<!DOCTYPE svg PUBLIC "-//W3C//DTD SVG 1.1//EN" "http://www.w3.org/Graphics/SVG/1.1/DTD/svg11.dtd">
<svg version="1.1" id="图层_1" xmlns="http://www.w3.org/2000/svg" xmlns:xlink="http://www.w3.org/1999/xlink" x="0px" y="0px"
	 width="400px" height="400px" viewBox="0 0 400 400" enable-background="new 0 0 400 400" xml:space="preserve">
<path id="shape" fill-rule="evenodd" clip-rule="evenodd" d="M112.8,90.5c16.8,0,33.6,0.6,50.3-0.2c14.1-0.6,26-7,35.1-18.1
	c4.8-5.8,9.4-11.8,14.7-17.2c9.9-10.1,21.6-16.6,36.4-13.8c12.2,2.3,19.9,10.7,25.9,20.7c8.8,14.8,12.1,31.2,13.2,48.1
	c0.6,10.1,4.4,13.5,14.1,10.5c10-3.1,19.8-7.2,29.5-11.2c13.6-5.6,35-1,46.8,11.7c10.6,11.4,9.7,25.2,4.7,38.8
	c-3.7,10.2-10.7,18.6-19.8,24.2c-13.5,8.3-27.8,15.3-42,22.4c-9.6,4.8-20,8.2-29.2,13.6c-15.7,9.3-17.1,21.2-4.5,34.3
	c5.3,5.6,11.6,10.2,17.7,15.1c10.7,8.5,13.2,19.1,8.7,31.7c-6.8,18.6-17.1,34.8-32.5,47.4c-27.7,22.6-59.8,16.5-77.5-14.6
	c-4.4-7.7-8.2-15.7-12.9-23.1c-10.6-16.6-22.8-20-41-12.3c-12.5,5.3-22,14-30.2,24.6c-5.7,7.2-11.5,14.7-18.5,20.6
	c-14.8,12.4-31.6,14.5-49.6,6.8c-28.8-12.4-47.2-45.6-29.4-79.2c11.9-22.4,26.7-42.2,46.8-57.8c5.3-4.1,10.7-8.1,15.6-12.5
	c11.1-9.9,13.7-20.8,7.4-34.3c-3.7-8-8.7-15.3-12.9-23.1c-4.1-7.5-7-15.3-5.3-24.1C78.6,98.2,90.6,88.8,112.8,90.5z"/>
</svg>
