<?xml version="1.0" encoding="utf-8"?>
<!-- Generator: Adobe Illustrator 16.0.0, SVG Export Plug-In . SVG Version: 6.00 Build 0)  -->
<!DOCTYPE svg PUBLIC "-//W3C//DTD SVG 1.1//EN" "http://www.w3.org/Graphics/SVG/1.1/DTD/svg11.dtd">
<svg version="1.1" id="图层_1" xmlns="http://www.w3.org/2000/svg" xmlns:xlink="http://www.w3.org/1999/xlink" x="0px" y="0px"
	 width="400px" height="400px" viewBox="0 0 400 400" enable-background="new 0 0 400 400" xml:space="preserve">
<path id="shape" fill-rule="evenodd" clip-rule="evenodd" d="M198.1,299.7c-3.5-14.5-9.1-26.4-16.3-37.7c-15.2-23.6-38.2-32.3-67.4-24.3
	c-0.9,0.3-1.8,0.4-2.9,0.7c8-34.8-18.2-69.2-55-61.3c3.4-14.6,1.5-28.3-8.1-39.8c-9.4-11.4-22.8-15.9-37-18.7
	c31.3-14.4,62.8-12.8,93.8,0.2c31.1,13,52.2,37,68.1,67.1c8.6-12.3,12.6-25.4,13.5-39.6c0.4-0.2,0.9-0.4,1.3-0.6
	c3.7,8.2,7.3,16.3,10.5,23.5c3.3-7.4,6.9-15.4,10.4-23.5c0.5,0.1,1,0.2,1.6,0.3c0.5,14.1,4.8,26.9,12.7,39.3
	c22.2-41,53.7-69.1,100.8-75.6c21-2.9,41.6-1.1,62.1,9c-4.9,1.2-8.6,2-12.3,3.1c-26.3,7.3-38.6,26.4-34.2,53.3c0.1,0.5,0,0.9-0.1,2
	c-17.6-3.6-32.7,1.1-44,14.8c-11,13.3-14.5,29-10.6,45.6c-8-0.8-16-2.1-24-2.3c-19-0.5-33.1,8.8-44,23.6c-8.2,11.2-14,23.6-17.7,37
	C199.1,296.5,198.8,297.4,198.1,299.7z"/>
</svg>
