<?xml version="1.0" encoding="utf-8"?>
<!-- Generator: Adobe Illustrator 16.0.0, SVG Export Plug-In . SVG Version: 6.00 Build 0)  -->
<!DOCTYPE svg PUBLIC "-//W3C//DTD SVG 1.1//EN" "http://www.w3.org/Graphics/SVG/1.1/DTD/svg11.dtd">
<svg version="1.1" id="图层_1" xmlns="http://www.w3.org/2000/svg" xmlns:xlink="http://www.w3.org/1999/xlink" x="0px" y="0px"
	 width="400px" height="400px" viewBox="0 0 400 400" enable-background="new 0 0 400 400" xml:space="preserve">
<path id="shape" fill-rule="evenodd" clip-rule="evenodd" d="M12.7,194.6c0-14.3,8.5-29.6,27.5-38.8c2.1-1,3.9-4.1,4.5-6.5
	c4.6-20.3,15.2-35.1,36.6-39.3c6.9-1.4,14.3-0.4,21.5-0.8c2.5-0.1,5.5-0.6,7.3-2.1c52.7-43.6,125.1-43.6,178,0
	c1.7,1.4,4.4,2,6.7,2.1c7.4,0.4,14.9-0.6,22.1,0.7c21,3.9,31.6,18.5,36,38.3c0.9,4.1,2.5,6.6,6.5,8.6c18.4,9.1,26.3,24.6,26.1,44.7
	c-0.2,19.9-8.7,34.7-26.8,43.8c-2.2,1.1-4,3.8-5.1,6.2c-1.7,4.1-2.4,8.6-4.1,12.8c-8.4,20.8-28.3,31.6-52.3,28
	c-4.5-0.7-7.5,0.5-10.9,3.2c-52.2,41.9-122.4,42.4-175.5-0.8c-2.9-2.3-5.2-3.1-8.9-2.5c-28,4.5-49.2-9.5-56.1-37
	c-1.3-5.4-3.4-8.9-8.9-11.6C20.9,236,13,221,12.7,194.6z"/>
</svg>
