<?xml version="1.0" encoding="utf-8"?>
<!-- Generator: Adobe Illustrator 16.0.0, SVG Export Plug-In . SVG Version: 6.00 Build 0)  -->
<!DOCTYPE svg PUBLIC "-//W3C//DTD SVG 1.1//EN" "http://www.w3.org/Graphics/SVG/1.1/DTD/svg11.dtd">
<svg version="1.1" id="图层_1" xmlns="http://www.w3.org/2000/svg" xmlns:xlink="http://www.w3.org/1999/xlink" x="0px" y="0px"
	 width="400px" height="400px" viewBox="0 0 400 400" enable-background="new 0 0 400 400" xml:space="preserve">
<path id="shape" fill-rule="evenodd" clip-rule="evenodd" d="M206.7,44.4c57,4.5,104.4,26.9,139.9,71.8c21.4,27.1,33.8,58,38.1,91.3
	c-9.7-3.5-19.2-8.2-29.2-10.4c-18.1-4.1-34.5,0.7-49,12.3c-0.7,0.6-1.4,1.1-2.1,1.7c-7.9,6.2-7.9,6.2-15.3-0.2
	c-21.1-18.2-53.6-20-76.1-4.2c-4.4,3-6.4,6.4-6.4,12.1c0,32.7-0.6,65.4-0.6,98c0,6.8,0.8,13.9,2.7,20.5
	c7.6,26.6,38.6,24.5,50.1,11.4c3.1-3.5,5.8-7.3,9.2-11.6c5.5,2.8,11.2,5.7,16.8,8.6c-6,17.7-25.3,31.3-45.7,32.6
	c-20.1,1.4-37-8.5-45.8-26.6c-5.9-12.2-7.1-25.3-7.1-38.6c0.1-33.6,0.1-67.2,0.4-100.7c0-4.4-1.5-6.8-5.3-9
	c-22.4-12.5-52.7-9.4-71.8,8.6c-5.3,5-8.5,3.6-12.8-0.1c-13.3-11.5-28.6-17.4-46.3-16c-12.8,1-24.2,5.8-35.4,13.8
	c2-19.1,6.7-36.5,14.2-52.9C59,91.9,110,55.7,180.4,46c5-0.7,6.5-2.3,6.2-7c-0.3-3.8-0.1-7.6,0.2-11.4c0.5-6.6,4.3-10.2,10.1-10.1
	c5.9,0.1,9.6,3.9,9.8,10.3C206.9,33.2,206.7,38.5,206.7,44.4z"/>
</svg>
