<?xml version="1.0" encoding="utf-8"?>
<!-- Generator: Adobe Illustrator 16.0.0, SVG Export Plug-In . SVG Version: 6.00 Build 0)  -->
<!DOCTYPE svg PUBLIC "-//W3C//DTD SVG 1.1//EN" "http://www.w3.org/Graphics/SVG/1.1/DTD/svg11.dtd">
<svg version="1.1" id="图层_1" xmlns="http://www.w3.org/2000/svg" xmlns:xlink="http://www.w3.org/1999/xlink" x="0px" y="0px"
	 width="400px" height="400px" viewBox="0 0 400 400" enable-background="new 0 0 400 400" xml:space="preserve">
<path id="shape" fill-rule="evenodd" clip-rule="evenodd" d="M383.8,157.1c-14.6,44.9-29.1,89.6-43.6,134.2c-8.1,24.9-16.3,49.8-24.2,74.8
	c-1.2,3.8-2.7,5.5-7.1,5.5c-72-0.2-144.1-0.1-216.2-0.1c-1.2,0-2.4-0.2-4.1-0.3c-8.2-25.1-16.4-50.3-24.5-75.4
	C49.8,251.5,35.5,207.3,21,163.2c-1.5-4.7-1-7.2,3.2-10.3c57.6-41.6,115-83.4,172.4-125.2c3.1-2.2,5.3-3.3,9-0.6
	c58.8,42.9,117.6,85.7,176.5,128.5C382.5,155.8,382.8,156.2,383.8,157.1z"/>
</svg>
