<?xml version="1.0" encoding="UTF-8" standalone="no"?>
<svg width="44px" height="44px" viewBox="0 0 44 44" version="1.1" xmlns="http://www.w3.org/2000/svg" xmlns:xlink="http://www.w3.org/1999/xlink" xmlns:sketch="http://www.bohemiancoding.com/sketch/ns">
    <!-- Generator: Sketch 3.3.2 (12043) - http://www.bohemiancoding.com/sketch -->
    <title>fitbit-logo-white copy</title>
    <desc>Created with Sketch.</desc>
    <defs></defs>
    <g id="V2" stroke="none" stroke-width="1" fill="none" fill-rule="evenodd" sketch:type="MSPage">
        <g id="Camera-V1" sketch:type="MSArtboardGroup" transform="translate(-13.000000, -386.000000)">
            <g id="band" sketch:type="MSLayerGroup" transform="translate(0.000000, 373.000000)">
                <g id="fitbit-logo-white-copy" transform="translate(12.885870, 12.459016)" sketch:type="MSShapeGroup">
                    <path d="M21.1141304,42.5409836 C20.3231716,42.5409836 19.5515866,42.217285 18.9910082,41.6608096 C18.4291662,41.1013877 18.1141304,40.328552 18.1141304,39.5388789 C18.1141304,38.7496268 18.4291662,37.9784748 18.9910082,37.4198948 C19.5515866,36.8608938 20.3231716,36.5409836 21.1141304,36.5409836 C21.9038258,36.5409836 22.6770955,36.8608938 23.2368315,37.4198948 C23.7961464,37.9784748 24.1141304,38.7496268 24.1141304,39.5388789 C24.1141304,40.328552 23.7961464,41.1013877 23.2368315,41.6608096 C22.6770955,42.217285 21.9038258,42.5409836 21.1141304,42.5409836" id="Fill-10" fill="#4DBFBF"></path>
                    <path d="M18.9910082,23.664229 C18.4325356,23.1033081 18.1141304,22.3293048 18.1141304,21.5414047 C18.1141304,20.7501358 18.4325356,19.9778168 18.9910082,19.4185805 C19.5499019,18.8610285 20.3231716,18.5409836 21.1120246,18.5409836 C21.9038258,18.5409836 22.6741473,18.8610285 23.2368315,19.4185805 C23.7961464,19.9778168 24.1141304,20.7501358 24.1141304,21.5414047 C24.1141304,22.3293048 23.7961464,23.1033081 23.2368315,23.664229 C22.6741473,24.2209387 21.9038258,24.5409836 21.1120246,24.5409836 C20.3231716,24.5409836 19.5499019,24.2209387 18.9910082,23.664229" id="Fill-11" fill="#FFFFFF"></path>
                    <path d="M18.9911313,5.66361319 C18.4351077,5.10145558 18.1141304,4.33027986 18.1141304,3.54182642 C18.1141304,2.7483161 18.4351077,1.97545474 18.9911313,1.41413995 C19.549261,0.856617825 20.3226393,0.540983607 21.1124455,0.540983607 C21.9035154,0.540983607 22.6768937,0.856617825 23.2350234,1.41413995 C23.7952593,1.97545474 24.1141304,2.7483161 24.1141304,3.54182642 C24.1141304,4.33027986 23.7952593,5.10145558 23.2350234,5.66361319 C22.6768937,6.22071391 21.9035154,6.54098361 21.1124455,6.54098361 C20.3226393,6.54098361 19.549261,6.22071391 18.9911313,5.66361319 Z" id="Fill-12" fill="#4DBFBF"></path>
                    <path d="M21.1040222,15.4593212 C21.0682263,15.4593212 21.0328515,15.4589001 20.9970557,15.4576367 C20.2049137,15.4273167 19.4473043,15.0727406 18.9112083,14.493712 C18.3725855,13.9163678 18.0845339,13.1309944 18.1165396,12.3443577 C18.1455975,11.5484565 18.4934492,10.7908765 19.0750271,10.2526957 C19.627126,9.74272937 20.3615734,9.45932118 21.1145504,9.45932118 C21.152873,9.45932118 21.1911957,9.4601634 21.2299395,9.46184785 C22.0153433,9.49048344 22.7784274,9.83747951 23.3115756,10.4173504 C23.8480927,11.0005901 24.1441458,11.7804891 24.1117189,12.575548 C24.0813977,13.3626058 23.7293346,14.1210281 23.1494413,14.65963 C22.5969212,15.1708596 21.8557358,15.4593212 21.1040222,15.4593212" id="Fill-13" fill="#4DBFBF"></path>
                    <path d="M21.1141304,33.5409836 C20.3231716,33.5409836 19.5515866,33.2188331 18.9918505,32.664229 C18.4350626,32.1033081 18.1141304,31.3318314 18.1141304,30.5414047 C18.1141304,29.7501358 18.4350626,28.9786591 18.9918505,28.4194227 C19.5515866,27.8610285 20.3231716,27.5409836 21.1141304,27.5409836 C21.9038258,27.5409836 22.6770955,27.8610285 23.2351469,28.4194227 C23.7944618,28.9786591 24.1141304,29.7501358 24.1141304,30.5414047 C24.1141304,31.3318314 23.7944618,32.1033081 23.2351469,32.664229 C22.6770955,33.2188331 21.9038258,33.5409836 21.1141304,33.5409836" id="Fill-14" fill="#4DBFBF"></path>
                    <path d="M27.992323,23.664229 C27.4353485,23.1033081 27.1141304,22.3293048 27.1141304,21.5414047 C27.1141304,20.7501358 27.4353485,19.9778168 27.992323,19.4185805 C28.5514024,18.8610285 29.3235046,18.5409836 30.1137094,18.5409836 C30.9030723,18.5409836 31.6726485,18.8610285 32.2359379,19.4185805 C32.7941753,19.9778168 33.1141304,20.7501358 33.1141304,21.5414047 C33.1141304,22.3293048 32.7941753,23.1033081 32.2359379,23.664229 C31.6726485,24.2209387 30.9030723,24.5409836 30.1137094,24.5409836 C29.3235046,24.5409836 28.5514024,24.2209387 27.992323,23.664229" id="Fill-15" fill="#FFFFFF"></path>
                    <path d="M27.9901658,14.6582095 C27.4329568,14.1014216 27.1141304,13.3273096 27.1141304,12.5392989 C27.1141304,11.7453919 27.4329568,10.9763339 27.9901658,10.4136496 C28.5494807,9.85854643 29.3252774,9.54098361 30.1124458,9.54098361 C30.9021411,9.54098361 31.6745685,9.85854643 32.235568,10.4136496 C32.7940406,10.9763339 33.1141304,11.7453919 33.1141304,12.5392989 C33.1141304,13.3273096 32.7940406,14.1014216 32.235568,14.6582095 C31.6745685,15.2158397 30.9021411,15.5409836 30.1124458,15.5409836 C29.3252774,15.5409836 28.5494807,15.2158397 27.9901658,14.6582095" id="Fill-16" fill="#FFFFFF"></path>
                    <path d="M27.992323,32.664229 C27.4336645,32.1033081 27.1141304,31.3318314 27.1141304,30.5414047 C27.1141304,29.7501358 27.4336645,28.9786591 27.992323,28.4194227 C28.5514024,27.8610285 29.3235046,27.5409836 30.1137094,27.5409836 C30.9055983,27.5409836 31.6768585,27.8610285 32.2359379,28.4194227 C32.7941753,28.9786591 33.1141304,29.7501358 33.1141304,30.5414047 C33.1141304,31.3318314 32.7941753,32.1033081 32.2359379,32.664229 C31.6768585,33.2188331 30.9055983,33.5409836 30.1137094,33.5409836 C29.3235046,33.5409836 28.5514024,33.2188331 27.992323,32.664229" id="Fill-17" fill="#FFFFFF"></path>
                    <path d="M36.9915009,23.664229 C36.4327145,23.1033081 36.1141304,22.3293048 36.1141304,21.5414047 C36.1141304,20.7501358 36.4327145,19.9778168 36.9915009,19.4185805 C37.55113,18.8610285 38.3248342,18.5409836 39.1149732,18.5409836 C39.9059551,18.5409836 40.6796593,18.8610285 41.2392885,19.4185805 C41.7963892,19.9778168 42.1141304,20.7501358 42.1141304,21.5414047 C42.1141304,22.3293048 41.7963892,23.1033081 41.2392885,23.664229 C40.6796593,24.2209387 39.9059551,24.5409836 39.1149732,24.5409836 C38.3248342,24.5409836 37.55113,24.2209387 36.9915009,23.664229" id="Fill-18" fill="#FFFFFF"></path>
                    <path d="M9.99160412,23.664229 C9.43413043,23.1033081 9.11413043,22.3293048 9.11413043,21.5414047 C9.11413043,20.7501358 9.43413043,19.9778168 9.99160412,19.4185805 C10.550762,18.8610285 11.3238146,18.5409836 12.118341,18.5409836 C12.9036041,18.5409836 13.6758146,18.8610285 14.2366568,19.4185805 C14.7928673,19.9778168 15.1141304,20.7501358 15.1141304,21.5414047 C15.1141304,22.3293048 14.7928673,23.1033081 14.2366568,23.664229 C13.6758146,24.2209387 12.9036041,24.5409836 12.118341,24.5409836 C11.3238146,24.5409836 10.550762,24.2209387 9.99160412,23.664229" id="Fill-19" fill="#FFFFFF"></path>
                    <path d="M12.1149725,15.5409836 C11.3221304,15.5409836 10.550762,15.2158397 9.99497254,14.6582095 C9.43244622,14.1014216 9.11413043,13.3273096 9.11413043,12.5392989 C9.11413043,11.7453919 9.43244622,10.9763339 9.99497254,10.4136496 C10.550762,9.85854643 11.3221304,9.54098361 12.1149725,9.54098361 C12.9036041,9.54098361 13.6758146,9.85854643 14.2358146,10.4136496 C14.7928673,10.9763339 15.1141304,11.7453919 15.1141304,12.5392989 C15.1141304,13.3273096 14.7928673,14.1014216 14.2358146,14.6582095 C13.6758146,15.2158397 12.9036041,15.5409836 12.1149725,15.5409836" id="Fill-20" fill="#4DBFBF"></path>
                    <path d="M12.1124458,33.5409836 C11.3185387,33.5409836 10.5469537,33.2188331 9.98763879,32.664229 C9.43000858,32.1033081 9.11413043,31.3318314 9.11413043,30.5414047 C9.11413043,29.7501358 9.43000858,28.9786591 9.98763879,28.4194227 C10.5469537,27.8610285 11.3185387,27.5409836 12.1124458,27.5409836 C12.9021411,27.5409836 13.6762531,27.8610285 14.2347257,28.4194227 C14.7940406,28.9786591 15.1141304,29.7501358 15.1141304,30.5414047 C15.1141304,31.3318314 14.7940406,32.1033081 14.2347257,32.664229 C13.6762531,33.2188331 12.9021411,33.5409836 12.1124458,33.5409836" id="Fill-21" fill="#4DBFBF"></path>
                    <path d="M0.992097013,23.664229 C0.430939872,23.1033081 0.114130435,22.3293048 0.114130435,21.5414047 C0.114130435,20.7501358 0.430939872,19.9778168 0.992097013,19.4185805 C1.55241158,18.8610285 2.32505587,18.5409836 3.11497301,18.5409836 C3.90404758,18.5409836 4.67921961,18.8610285 5.23700644,19.4185805 C5.79479326,19.9778168 6.11413043,20.7501358 6.11413043,21.5414047 C6.11413043,22.3293048 5.79479326,23.1033081 5.23700644,23.664229 C4.67921961,24.2209387 3.90404758,24.5409836 3.11497301,24.5409836 C2.32505587,24.5409836 1.55241158,24.2209387 0.992097013,23.664229" id="Fill-23" fill="#FFFFFF"></path>
                </g>
            </g>
        </g>
    </g>
</svg>