<?xml version="1.0" encoding="UTF-8" standalone="no"?>
<svg width="122px" height="43px" viewBox="0 0 122 43" version="1.1" xmlns="http://www.w3.org/2000/svg" xmlns:xlink="http://www.w3.org/1999/xlink" xmlns:sketch="http://www.bohemiancoding.com/sketch/ns">
    <title>Paused - Map</title>
    <description>Created with Sketch (http://www.bohemiancoding.com/sketch)</description>
    <defs></defs>
    <g id="In-Run" stroke="none" stroke-width="1" fill="none" fill-rule="evenodd" sketch:type="MSPage">
        <g id="Paused---Map" sketch:type="MSArtboardGroup" transform="translate(-209.000000, -65.000000)" fill="#4AC1C0">
            <g id="Header" sketch:type="MSLayerGroup" transform="translate(0.000000, 38.000000)">
                <path d="M224.496879,42.2157832 L216.592481,42.2157832 L216.592481,38.2430085 C216.626496,33.6453304 217.815659,31.9372614 219.123534,31.0606463 C220.472228,30.1525235 222.526392,30.0699032 224.496879,30.0884577 C225.326504,30.0884577 225.995578,29.3977383 225.995578,28.5424784 C225.995578,27.6917697 225.326504,27 224.496879,27 C222.535576,27.016454 219.88751,26.9310331 217.519048,28.4504059 C215.110108,30.0012864 213.560727,33.1436573 213.59202,38.2433585 L213.59202,42.2161333 L210.503462,42.2161333 C209.673156,42.2161333 209,42.9093033 209,43.7586117 C209,44.6100206 209.673156,45.3038908 210.503462,45.3038908 L213.59202,45.3038908 L213.59202,68.4526204 C213.59202,69.3026289 214.263136,70 215.093441,70 C215.924427,70 216.595542,69.3026289 216.595542,68.4526204 C216.594862,53.6499385 216.59214,52.6297882 216.59214,45.3038908 L224.496538,45.3038908 C225.324463,45.3038908 226,44.6100206 226,43.7586117 C226.00034,42.9093033 225.324803,42.2157832 224.496879,42.2157832 Z M260.49946,66.9143178 L260.49946,66.907316 C257.968276,66.9304219 255.928085,66.7739322 254.769505,65.8770049 C253.623174,65.0385423 252.60512,63.2054777 252.59185,58.5338935 C252.589808,51.8892091 252.588447,48.8168303 252.588447,45.3453503 L260.498099,45.3453503 C261.326968,45.3453503 262,44.6525247 262,43.8000586 C262,42.9479426 261.326628,42.2582678 260.498099,42.2582678 L252.588447,42.2582678 C252.588447,39.182038 252.59185,35.2113315 252.59185,28.5452917 C252.59185,27.6917754 251.916777,27 251.087907,27 C250.258356,27 249.59213,27.6917754 249.59213,28.5452917 L249.59213,42.2582678 L246.498499,42.2582678 C245.673712,42.2582678 245,42.9482927 245,43.8000586 C245,44.6528748 245.673712,45.3453503 246.498499,45.3453503 L249.59213,45.3453503 L249.59213,58.5338935 C249.574777,63.5622181 250.733698,66.6885106 253.020576,68.3871412 C255.30201,70.0234559 257.968276,69.9782945 260.49946,70 C261.326968,70 261.999319,69.3078746 261.999319,68.4526078 C261.999319,67.5994415 261.326968,66.9143178 260.49946,66.9143178 Z M329.501741,66.9176932 L329.501741,66.9106912 C326.262998,66.933798 324.276546,66.570041 323.319552,65.6566222 C322.33296,64.8177755 321.588593,62.8750539 321.594036,58.5992461 L321.594036,45.3446968 L329.50038,45.3446968 C330.33286,45.3446968 331,44.6518429 331,43.7993421 C331,42.9471914 330.33286,42.2574885 329.50038,42.2574885 L321.594036,42.2574885 L321.594036,28.5411534 C321.594036,27.6876023 320.925535,27 320.097138,27 C319.26704,27 318.594116,27.6879524 318.594116,28.5411534 L318.594116,42.2574885 L315.503022,42.2574885 C314.672584,42.2574885 314,42.9475415 314,43.7993421 C314,44.652193 314.672584,45.3446968 315.503022,45.3446968 L318.594116,45.3446968 L318.594116,58.5992461 C318.603302,63.1141743 319.282349,66.0991524 321.356914,67.9897086 C323.460736,69.8147955 326.177606,69.976193 329.501741,70 C330.329117,70 331,69.3078464 331,68.4574462 C331.00034,67.6028448 330.329117,66.9176932 329.501741,66.9176932 Z M234,68.4409358 L234,43.5565944 C234,42.6985623 234.673622,42 235.497619,42 C236.326378,42 237,42.6985623 237,43.5565944 L237,68.440583 C237,69.2972039 236.326378,69.9999999 235.497619,69.9999999 C234.673962,70.0003527 234,69.2972039 234,68.4409358 Z M305,68.4409358 L305,43.5565944 C305,42.6985623 305.666477,42 306.495402,42 C307.328074,42 308,42.6985623 308,43.5565944 L308,68.440583 C308,69.2972039 307.328074,69.9999999 306.495402,69.9999999 C305.666477,70.0003527 305,69.2972039 305,68.4409358 Z M284.003157,42.0898537 C279.591592,42.0926504 275.658783,44.1300813 273.093496,47.3078862 L273.093496,28.5417073 C273.093496,27.6893984 272.40009,27 271.54745,27 C270.693055,27 270,27.689748 270,28.5417073 L270,56.9762439 C270,57.0853171 270.040335,57.1818049 270.063834,57.2856341 C270.693406,64.4120976 276.686792,70 284.003507,70 C291.734793,70 298,63.7566098 298,56.0484228 C297.999649,48.3395366 291.734442,42.0933496 284.003157,42.0898537 C284.003157,42.0898537 291.734442,42.0933496 284.003157,42.0898537 Z M284.003361,67 C277.925246,66.9883261 273.008136,62.0792732 273,56.0024763 C273.008136,49.9210806 277.9256,45.0106126 284.003361,45 C290.078645,45.0102589 294.990449,49.9207268 295,56.0024763 C294.990449,62.0792732 290.078645,66.9883261 284.003361,67 C284.003361,67 290.078645,66.9883261 284.003361,67 Z M233.878829,35.1204082 C233.318924,34.5622449 233,33.7870748 233,32.9993197 C233,32.2088435 233.319265,31.4367347 233.878829,30.8782313 C234.43533,30.3187075 235.209666,30 235.998639,30 C236.788972,30 237.561607,30.3190476 238.12049,30.8782313 C238.680735,31.4370748 239,32.2088435 239,32.9993197 C239,33.7870748 238.680735,34.562585 238.12049,35.1204082 C237.561266,35.6772109 236.788972,36 235.998639,36 C235.209666,36 234.43533,35.6772109 233.878829,35.1204082 Z M304.879791,35.1204082 C304.320141,34.5622449 304,33.7870748 304,32.9993197 C304,32.2088435 304.320141,31.4367347 304.879791,30.8782313 C305.439442,30.3187075 306.211386,30 307.002722,30 C307.791336,30 308.562259,30.3190476 309.12293,30.8782313 C309.679179,31.4370748 310,32.2088435 310,32.9993197 C310,33.7870748 309.679179,34.562585 309.12293,35.1204082 C308.562259,35.6772109 307.791336,36 307.002722,36 C306.211386,36 305.439102,35.6772109 304.879791,35.1204082 Z" id="fitbit-logo" sketch:type="MSShapeGroup"></path>
            </g>
        </g>
    </g>
</svg>