<?xml version="1.0" encoding="UTF-8" standalone="no"?>
<!-- Generator: Adobe Illustrator 16.0.0, SVG Export Plug-In . SVG Version: 6.00 Build 0)  -->

<svg
   xmlns:dc="http://purl.org/dc/elements/1.1/"
   xmlns:cc="http://creativecommons.org/ns#"
   xmlns:rdf="http://www.w3.org/1999/02/22-rdf-syntax-ns#"
   xmlns:svg="http://www.w3.org/2000/svg"
   xmlns="http://www.w3.org/2000/svg"
   xmlns:xlink="http://www.w3.org/1999/xlink"
   xmlns:sodipodi="http://sodipodi.sourceforge.net/DTD/sodipodi-0.dtd"
   xmlns:inkscape="http://www.inkscape.org/namespaces/inkscape"
   version="1.1"
   id="Layer_1"
   x="0px"
   y="0px"
   width="720px"
   height="1400px"
   viewBox="0 0 720 1400"
   enable-background="new 0 0 720 1400"
   xml:space="preserve"
   inkscape:version="0.48.3.1 r9886"
   sodipodi:docname="edu_repin_createboard.svg"><metadata
   id="metadata73"><rdf:RDF><cc:Work
       rdf:about=""><dc:format>image/svg+xml</dc:format><dc:type
         rdf:resource="http://purl.org/dc/dcmitype/StillImage" /></cc:Work></rdf:RDF></metadata><defs
   id="defs71">
	
	
	
	
	
	
	
	
	
	
	
	
	
	
</defs><sodipodi:namedview
   pagecolor="#ffffff"
   bordercolor="#666666"
   borderopacity="1"
   objecttolerance="10"
   gridtolerance="10"
   guidetolerance="10"
   inkscape:pageopacity="0"
   inkscape:pageshadow="2"
   inkscape:window-width="1551"
   inkscape:window-height="876"
   id="namedview69"
   showgrid="false"
   inkscape:zoom="0.95358398"
   inkscape:cx="148.40363"
   inkscape:cy="1050.8432"
   inkscape:window-x="49"
   inkscape:window-y="24"
   inkscape:window-maximized="1"
   inkscape:current-layer="Layer_1" />
<rect
   fill="#2B2D32"
   width="720"
   height="1400"
   id="rect3" />
<linearGradient
   id="SVGID_1_"
   gradientUnits="userSpaceOnUse"
   x1="360"
   y1="490.1987"
   x2="360"
   y2="1509.0005"
   gradientTransform="matrix(1 0 0 -1 0 1509)">
	<stop
   offset="0.735"
   style="stop-color:#191B1E"
   id="stop6" />
	<stop
   offset="0.8353"
   style="stop-color:#202124"
   id="stop8" />
</linearGradient>
<rect
   fill="url(#SVGID_1_)"
   width="720"
   height="1018.802"
   id="rect10" />
<path
   id="path3068"
   d="m 696,1367 c 0,4.4 -3.6,8 -8,8 H 32 c -4.4,0 -8,-3.6 -8,-8 V 32 c 0,-4.4 3.6,-8 8,-8 h 656 c 4.4,0 8,3.6 8,8 v 1335 z"
   inkscape:connector-curvature="0"
   style="fill:#3f4146" /><path
   id="path3070"
   d="m 696,1376.6398 c 0,4.4 -3.6,8 -8,8 H 32 c -4.4,0 -8,-3.6 -8,-8 V 41.639831 c 0,-4.4 3.6,-8 8,-8 h 656 c 4.4,0 8,3.6 8,8 V 1376.6398 z"
   inkscape:connector-curvature="0"
   style="fill:#3f4146" /><path
   id="path3072"
   d="m 696,1393.6949 c 0,4.4 -3.6,8 -8,8 H 32 c -4.4,0 -8,-3.6 -8,-8 V 58.694915 c 0,-4.4 3.6,-8 8,-8 h 656 c 4.4,0 8,3.6 8,8 V 1393.6949 z"
   inkscape:connector-curvature="0"
   style="fill:#3f4146" /><path
   id="path3074"
   d="m 696,1405.5593 c 0,4.4 -3.6,8 -8,8 H 32 c -4.4,0 -8,-3.6 -8,-8 V 70.559322 c 0,-4.4 3.6,-8 8,-8 h 656 c 4.4,0 8,3.6 8,8 V 1405.5593 z"
   inkscape:connector-curvature="0"
   style="fill:#3f4146" /><path
   id="path3076"
   d="m 696,1423.3559 c 0,4.4 -3.6,8 -8,8 H 32 c -4.4,0 -8,-3.6 -8,-8 V 88.355932 c 0,-4.4 3.6,-8 8,-8 h 656 c 4.4,0 8,3.6 8,8 V 1423.3559 z"
   inkscape:connector-curvature="0"
   style="fill:#3f4146" /><path
   id="path3078"
   d="m 696,1432.2542 c 0,4.4 -3.6,8 -8,8 H 32 c -4.4,0 -8,-3.6 -8,-8 V 97.254237 c 0,-4.4 3.6,-8 8,-8 h 656 c 4.4,0 8,3.6 8,8 V 1432.2542 z"
   inkscape:connector-curvature="0"
   style="fill:#3f4146" /><path
   id="path3080"
   d="m 696,1440.411 c 0,4.4 -3.6,8 -8,8 H 32 c -4.4,0 -8,-3.6 -8,-8 V 105.41102 c 0,-4.4 3.6,-8.000003 8,-8.000003 h 656 c 4.4,0 8,3.600003 8,8.000003 V 1440.411 z"
   inkscape:connector-curvature="0"
   style="fill:#3f4146" /><path
   id="path3082"
   d="m 696,1454.5 c 0,4.4 -3.6,8 -8,8 H 32 c -4.4,0 -8,-3.6 -8,-8 v -1335 c 0,-4.4 3.6,-8 8,-8 h 656 c 4.4,0 8,3.6 8,8 v 1335 z"
   inkscape:connector-curvature="0"
   style="fill:#3f4146" /><path
   id="path3084"
   d="m 696,1467.1059 c 0,4.4 -3.6,8 -8,8 H 32 c -4.4,0 -8,-3.6 -8,-8 V 132.10593 c 0,-4.4 3.6,-8 8,-8 h 656 c 4.4,0 8,3.6 8,8 V 1467.1059 z"
   inkscape:connector-curvature="0"
   style="fill:#3f4146" />
<linearGradient
   id="SVGID_2_"
   gradientUnits="userSpaceOnUse"
   x1="24"
   y1="1297"
   x2="696"
   y2="1297"
   gradientTransform="matrix(1 0 0 -1 0 1509)">
	<stop
   offset="0.735"
   style="stop-color:#191B1E"
   id="stop15" />
	<stop
   offset="0.8353"
   style="stop-color:#202124"
   id="stop17" />
</linearGradient>
<path
   fill="url(#SVGID_2_)"
   d="M556.23,111c-32.154,23.465-71.771,37.325-114.627,37.325c-42.865,0-82.482-13.86-114.638-37.325  H196.543c3.243,10.074,9.877,23.832,22.311,42.818c26.338,40.197,51.352,60.38,63.634,82.179  c12.271,21.804,3.558,32.569,0.18,34.632c-3.355,2.071-16.912,4.983-30.788-15.84c-13.895-20.821-20.572-52.25-44.506-93.934  c-20.986-36.54-34.971-47.107-43.734-49.855H24v202h672V111H556.23z"
   id="path19" />
<g
   id="g21">
	
		<image
   sodipodi:absref="/home/carl/Documents/work/android/res/raw-fr/ED4A8B819397899E.png"
   xlink:href="ED4A8B819397899E.png"
   id="image23"
   transform="matrix(0.9964 0 0 0.9878 305.0527 91.0527)"
   height="82"
   width="274"
   enable-background="new    "
   opacity="0.1"
   overflow="visible">
	</image>
	<g
   id="g25">
		<path
   fill="#2B2D32"
   d="M556.23,111H326.967c32.154,23.465,71.771,37.325,114.639,37.325    C484.461,148.325,524.076,134.465,556.23,111z"
   id="path27" />
	</g>
</g>
<g
   id="g29">
	
		<image
   sodipodi:absref="/home/carl/Documents/work/android/res/raw-fr/ED4A8B81939789A2.png"
   xlink:href="ED4A8B81939789A2.png"
   id="image31"
   transform="matrix(0.9941 0 0 0.9951 142.0532 91.0527)"
   height="205"
   width="169"
   enable-background="new    "
   opacity="0.1"
   overflow="visible">
	</image>
	<g
   id="g33">
		<path
   fill="#3F4146"
   d="M207.373,160.855c23.934,41.684,30.611,73.113,44.506,93.934c13.876,20.823,27.433,17.911,30.788,15.84    c3.378-2.062,12.091-12.828-0.18-34.632c-12.282-21.798-37.296-41.982-63.634-82.179c-12.434-18.987-19.067-32.744-22.311-42.818    h-32.904C172.402,113.748,186.387,124.315,207.373,160.855z"
   id="path35" />
	</g>
</g>
<path
   style="fill:#ffffff"
   inkscape:connector-curvature="0"
   id="path39"
   d="m 351.199,394.225 c 1.029,0 1.784,-0.409 2.263,-1.229 0.479,-0.82 0.718,-1.9 0.718,-3.24 v -0.287 c 0,-1.312 -0.24,-2.384 -0.725,-3.213 -0.485,-0.829 -1.244,-1.244 -2.283,-1.244 -1.03,0 -1.784,0.417 -2.263,1.251 -0.479,0.834 -0.718,1.902 -0.718,3.206 v 0.287 c 0,1.349 0.236,2.433 0.711,3.247 0.474,0.814 1.24,1.222 2.297,1.222 z" /><path
   style="fill:#ffffff"
   inkscape:connector-curvature="0"
   id="path41"
   d="m 235.781,388.1 v -0.301 c 0,-0.866 -0.178,-1.547 -0.533,-2.044 -0.355,-0.497 -0.93,-0.745 -1.723,-0.745 -0.802,0 -1.42,0.275 -1.853,0.827 -0.433,0.552 -0.695,1.283 -0.786,2.194 l 0.027,0.067 4.868,0.002 0,0 z" /><path
   style="fill:#ffffff"
   inkscape:connector-curvature="0"
   id="path43"
   d="m 364.522,391.148 c -0.434,0.419 -0.649,0.935 -0.649,1.545 0,0.501 0.162,0.899 0.485,1.195 0.322,0.297 0.771,0.444 1.347,0.444 0.691,0 1.312,-0.173 1.859,-0.52 0.547,-0.348 0.921,-0.747 1.12,-1.203 v -2.093 h -2.241 c -0.847,0.004 -1.488,0.213 -1.921,0.632 z" /><path
   style="fill:#ffffff"
   inkscape:connector-curvature="0"
   id="path45"
   d="m 334.021,393.828 c 0.433,0.237 0.964,0.354 1.593,0.354 1.029,0 1.75,-0.361 2.16,-1.087 0.409,-0.725 0.614,-1.752 0.614,-3.083 v -0.287 c 0,-1.439 -0.212,-2.582 -0.636,-3.425 -0.424,-0.843 -1.146,-1.265 -2.167,-1.265 -0.62,0 -1.144,0.13 -1.572,0.39 -0.428,0.26 -0.766,0.631 -1.012,1.114 v 6.262 c 0.247,0.448 0.587,0.79 1.02,1.027 z" /><path
   style="fill:#ffffff"
   inkscape:connector-curvature="0"
   id="path47"
   d="m 252.878,391.148 c -0.433,0.419 -0.649,0.935 -0.649,1.545 0,0.501 0.162,0.899 0.485,1.195 0.323,0.297 0.772,0.444 1.347,0.444 0.692,0 1.312,-0.173 1.859,-0.52 0.547,-0.348 0.921,-0.747 1.121,-1.203 v -2.093 h -2.242 c -0.848,0.004 -1.488,0.213 -1.921,0.632 z" /><path
   style="fill:#ffffff"
   inkscape:connector-curvature="0"
   id="path49"
   d="m 391.422,394.184 c 0.574,0 1.075,-0.115 1.504,-0.349 0.43,-0.233 0.779,-0.572 1.053,-1.019 v -6.304 c -0.272,-0.465 -0.621,-0.827 -1.046,-1.087 -0.424,-0.26 -0.918,-0.39 -1.482,-0.39 -0.977,0 -1.688,0.433 -2.141,1.299 -0.451,0.866 -0.677,1.996 -0.677,3.391 v 0.287 c 0,1.294 0.219,2.312 0.656,3.057 0.437,0.743 1.149,1.115 2.133,1.115 z" /><path
   style="fill:#ffffff"
   inkscape:connector-curvature="0"
   id="path51"
   d="m 196.352,388.1 v -0.301 c 0,-0.866 -0.178,-1.547 -0.533,-2.044 -0.355,-0.497 -0.93,-0.745 -1.723,-0.745 -0.802,0 -1.42,0.275 -1.853,0.827 -0.433,0.552 -0.695,1.283 -0.786,2.194 l 0.027,0.067 4.868,0.002 0,0 z" /><path
   style="fill:#ffffff"
   inkscape:connector-curvature="0"
   id="path53"
   d="m 259,543 c 61.854,0 115.8,-33.834 144.357,-84 H 114.643 C 143.2,509.166 197.146,543 259,543 z" /><path
   style="fill:#ffffff"
   inkscape:connector-curvature="0"
   id="path55"
   d="m 292.957,385.01 c -0.802,0 -1.42,0.275 -1.853,0.827 -0.433,0.552 -0.695,1.283 -0.786,2.194 l 0.027,0.067 h 4.867 v -0.301 c 0,-0.866 -0.178,-1.547 -0.533,-2.044 -0.355,-0.497 -0.929,-0.743 -1.722,-0.743 z" /><path
   style="fill:#ffffff"
   inkscape:connector-curvature="0"
   id="path57"
   d="m 136,345 0,80 -35.942,0 c 3.382,11.213 7.915,21.926 13.467,32 l 290.951,0 C 417.552,433.272 425,406.008 425,377 c 0,-22.688 -4.556,-44.302 -12.794,-64 l -306.412,0 c -4.263,10.19 -7.532,20.897 -9.7,32 z"
   sodipodi:nodetypes="cccccscccc" /><path
   d="m 206.476,391.148 c -0.433,0.419 -0.649,0.935 -0.649,1.545 0,0.501 0.162,0.899 0.485,1.195 0.323,0.297 0.772,0.444 1.347,0.444 0.692,0 1.312,-0.173 1.859,-0.52 0.547,-0.348 0.921,-0.747 1.121,-1.203 v -2.093 h -2.242 c -0.848,0.004 -1.489,0.213 -1.921,0.632 z"
   id="path3064"
   inkscape:connector-curvature="0"
   style="fill:#ffffff" /><path
   d="m 206.476,391.148 c -0.433,0.419 -0.649,0.935 -0.649,1.545 0,0.501 0.162,0.899 0.485,1.195 0.323,0.297 0.772,0.444 1.347,0.444 0.692,0 1.312,-0.173 1.859,-0.52 0.547,-0.348 0.921,-0.747 1.121,-1.203 v -2.093 h -2.242 c -0.848,0.004 -1.489,0.213 -1.921,0.632 z"
   id="path3066"
   inkscape:connector-curvature="0"
   style="fill:#ffffff" /><path
   style="fill:#ffffff"
   inkscape:connector-curvature="0"
   id="path59"
   d="m 206.476,391.148 c -0.433,0.419 -0.649,0.935 -0.649,1.545 0,0.501 0.162,0.899 0.485,1.195 0.323,0.297 0.772,0.444 1.347,0.444 0.692,0 1.312,-0.173 1.859,-0.52 0.547,-0.348 0.921,-0.747 1.121,-1.203 v -2.093 h -2.242 c -0.848,0.004 -1.489,0.213 -1.921,0.632 z" /><path
   style="fill:#d4d4d4"
   inkscape:connector-curvature="0"
   id="path61"
   d="m 259,211 c -68.995,0 -128.152,42.095 -153.206,102 H 412.206 C 387.152,253.095 327.994,211 259,211 z" /><path
   style="fill:#d4d4d4"
   inkscape:connector-curvature="0"
   id="path63"
   d="M 136,345 H 96.094 C 94.071,355.355 93,366.052 93,377 c 0,16.691 2.475,32.803 7.058,48 H 136 v -80 z" /><path
   style="fill:#dfdfdf"
   inkscape:connector-curvature="0"
   id="path65"
   d="m 114.643,459 h 288.715 c 0.378,-0.663 0.749,-1.331 1.117,-2 H 113.524 c 0.369,0.669 0.741,1.337 1.119,2 z" />
<path
   fill="#5A5B5D"
   d="M96.094,345c-1.441,7.375-2.389,14.925-2.821,22.613h6.613v13.613H114.5V390H99.887v13.613h-4.752  c1.179,7.298,2.828,14.439,4.923,21.387H136v-80H96.094z"
   id="path67" />
<g
   transform="translate(-4.7415254,38)"
   style="font-size:22px;font-style:normal;font-variant:normal;font-weight:500;font-stretch:normal;text-align:start;line-height:125%;letter-spacing:0px;word-spacing:0px;writing-mode:lr-tb;text-anchor:start;fill:#3f4146;fill-opacity:1;stroke:none;font-family:Roboto;-inkscape-font-specification:Roboto Medium"
   id="flowRoot3094"><path
     d="m 173.97949,349.59505 0.0215,0.0645 c 0.0286,1.57552 -0.48341,2.85026 -1.53614,3.82421 -1.05274,0.9668 -2.47429,1.4502 -4.26464,1.4502 -1.81902,0 -3.29428,-0.61231 -4.42579,-1.83691 -1.13151,-1.23177 -1.69726,-2.80371 -1.69726,-4.71583 l 0,-2.97558 c 0,-1.90494 0.55859,-3.4733 1.67578,-4.70508 1.11718,-1.23892 2.57454,-1.85838 4.37207,-1.8584 1.84049,2e-5 3.2871,0.46909 4.33984,1.40723 1.05989,0.93816 1.57551,2.22364 1.54688,3.85644 l -0.0215,0.0645 -2.52441,0 c -1e-5,-1.04556 -0.28289,-1.84407 -0.84863,-2.39551 -0.56577,-0.55858 -1.3965,-0.83788 -2.49219,-0.83789 -1.0599,1e-5 -1.90137,0.42254 -2.52441,1.26758 -0.61589,0.8379 -0.92384,1.89779 -0.92383,3.17968 l 0,2.99707 c -1e-5,1.29623 0.3151,2.36687 0.94531,3.21192 0.6302,0.83789 1.48958,1.25684 2.57813,1.25683 1.06704,1e-5 1.87629,-0.27929 2.42773,-0.83789 0.55858,-0.55859 0.83788,-1.36425 0.83789,-2.41699 l 2.51367,0"
     style="fill:#3f4146;font-family:Roboto;-inkscape-font-specification:Roboto Medium"
     id="path3094" /><path
     d="m 182.03613,345.43783 -1.11718,-0.043 c -0.50847,1e-5 -0.93458,0.10743 -1.27833,0.32226 -0.33659,0.21485 -0.59798,0.51922 -0.78417,0.91309 l 0,8.07812 -2.61036,0 0,-11.62304 2.38477,0 0.17187,1.68652 c 0.29362,-0.59439 0.6696,-1.05988 1.12793,-1.39648 0.46549,-0.33658 0.99902,-0.50488 1.60059,-0.50489 0.15755,1e-5 0.30436,0.0143 0.44043,0.043 0.13606,0.0215 0.26139,0.0501 0.37598,0.0859 l -0.31153,2.43848"
     style="fill:#3f4146;font-family:Roboto;-inkscape-font-specification:Roboto Medium"
     id="path3096" /><path
     d="m 188.69629,354.93392 c -1.69727,0 -3.02572,-0.53353 -3.98535,-1.60059 -0.95248,-1.07421 -1.42871,-2.46353 -1.42871,-4.16797 l 0,-0.42968 c 0,-1.70442 0.47623,-3.10807 1.42871,-4.21094 0.95963,-1.11002 2.19498,-1.66145 3.70605,-1.6543 1.56119,1e-5 2.74283,0.48341 3.54492,1.4502 0.80208,0.95964 1.20312,2.24512 1.20313,3.85644 l 0,1.40723 -7.18652,0 -0.0215,0.0537 c 0.0286,0.95248 0.27929,1.72592 0.75195,2.32031 0.47266,0.59441 1.18522,0.89161 2.1377,0.8916 0.70898,1e-5 1.32128,-0.0859 1.83691,-0.25781 0.52278,-0.17187 1.00618,-0.41894 1.4502,-0.74121 l 0.84863,1.70801 c -0.44402,0.38672 -1.03126,0.71256 -1.76172,0.97754 -0.73047,0.26497 -1.57194,0.39746 -2.52441,0.39746 m -0.2793,-9.96875 c -0.68034,10e-6 -1.22461,0.24708 -1.63281,0.74121 -0.40821,0.48699 -0.66244,1.12436 -0.7627,1.91211 l 0.0215,0.0537 4.54394,0 0,-0.2041 c 0,-0.74478 -0.17546,-1.34635 -0.52636,-1.80469 -0.34376,-0.46548 -0.89161,-0.69823 -1.64356,-0.69824 m 0.59082,-6.84277 2.9541,0 0.0215,0.0644 -2.93262,2.79297 -2.09473,0 2.05176,-2.85742"
     style="fill:#3f4146;font-family:Roboto;-inkscape-font-specification:Roboto Medium"
     id="path3098" /><path
     d="m 200.21191,354.93392 c -1.69727,0 -3.02572,-0.53353 -3.98535,-1.60059 -0.95247,-1.07421 -1.42871,-2.46353 -1.42871,-4.16797 l 0,-0.42968 c 0,-1.70442 0.47624,-3.10807 1.42871,-4.21094 0.95963,-1.11002 2.19498,-1.66145 3.70606,-1.6543 1.56119,1e-5 2.74283,0.48341 3.54492,1.4502 0.80207,0.95964 1.20311,2.24512 1.20312,3.85644 l 0,1.40723 -7.18652,0 -0.0215,0.0537 c 0.0286,0.95248 0.27929,1.72592 0.75195,2.32031 0.47265,0.59441 1.18522,0.89161 2.13769,0.8916 0.70898,1e-5 1.32129,-0.0859 1.83692,-0.25781 0.52278,-0.17187 1.00617,-0.41894 1.45019,-0.74121 l 0.84864,1.70801 c -0.44402,0.38672 -1.03126,0.71256 -1.76172,0.97754 -0.73048,0.26497 -1.57195,0.39746 -2.52442,0.39746 m -0.27929,-9.96875 c -0.68035,10e-6 -1.22462,0.24708 -1.63282,0.74121 -0.4082,0.48699 -0.66243,1.12436 -0.76269,1.91211 l 0.0215,0.0537 4.54395,0 0,-0.2041 c -1e-5,-0.74478 -0.17546,-1.34635 -0.52637,-1.80469 -0.34376,-0.46548 -0.89161,-0.69823 -1.64355,-0.69824"
     style="fill:#3f4146;font-family:Roboto;-inkscape-font-specification:Roboto Medium"
     id="path3100" /><path
     d="m 212.58691,345.43783 -1.11718,-0.043 c -0.50847,1e-5 -0.93458,0.10743 -1.27832,0.32226 -0.3366,0.21485 -0.59799,0.51922 -0.78418,0.91309 l 0,8.07812 -2.61036,0 0,-11.62304 2.38477,0 0.17188,1.68652 c 0.29361,-0.59439 0.66959,-1.05988 1.12793,-1.39648 0.46548,-0.33658 0.99901,-0.50488 1.60058,-0.50489 0.15755,1e-5 0.30436,0.0143 0.44043,0.043 0.13606,0.0215 0.26139,0.0501 0.37598,0.0859 l -0.31153,2.43848"
     style="fill:#3f4146;font-family:Roboto;-inkscape-font-specification:Roboto Medium"
     id="path3102" /><path
     d="m 227.28223,352.98958 c -0.35808,0.62305 -0.82,1.10287 -1.38575,1.43946 -0.5586,0.33658 -1.20671,0.50488 -1.94433,0.50488 -1.2461,0 -2.22006,-0.4082 -2.92188,-1.22461 -0.70182,-0.82357 -1.05273,-2.0983 -1.05273,-3.82422 l 0,-6.7998 2.59961,0 0,6.82129 c -10e-6,1.11003 0.16113,1.87272 0.4834,2.28808 0.32226,0.40821 0.82356,0.61231 1.5039,0.61231 0.6302,0 1.15657,-0.111 1.5791,-0.33301 0.42968,-0.22917 0.76627,-0.55859 1.00977,-0.98828 l 0,-8.40039 2.61035,0 0,11.62304 -2.24512,0 -0.23632,-1.71875"
     style="fill:#3f4146;font-family:Roboto;-inkscape-font-specification:Roboto Medium"
     id="path3104" /><path
     d="m 234.85547,343.08529 0.15039,1.67578 c 0.37955,-0.59439 0.85579,-1.05631 1.42871,-1.38574 0.58007,-0.33658 1.23176,-0.50488 1.95508,-0.50489 1.21028,1e-5 2.15201,0.37241 2.82519,1.11719 0.68033,0.7448 1.0205,1.90854 1.02051,3.49121 l 0,7.22949 -2.61035,0 0,-7.208 c -1e-5,-0.90234 -0.17546,-1.54329 -0.52637,-1.92286 -0.35092,-0.37954 -0.88086,-0.56932 -1.58984,-0.56933 -0.5586,10e-6 -1.042,0.10743 -1.4502,0.32226 -0.4082,0.2077 -0.73405,0.49773 -0.97754,0.87012 l 0,8.50781 -2.61035,0 0,-11.62304 2.38477,0"
     style="fill:#3f4146;font-family:Roboto;-inkscape-font-specification:Roboto Medium"
     id="path3106" /><path
     d="m 252.81641,343.08529 0.15039,1.67578 c 0.37955,-0.59439 0.85579,-1.05631 1.42871,-1.38574 0.58007,-0.33658 1.23176,-0.50488 1.95508,-0.50489 1.21027,1e-5 2.152,0.37241 2.82519,1.11719 0.68033,0.7448 1.0205,1.90854 1.02051,3.49121 l 0,7.22949 -2.61035,0 0,-7.208 c -10e-6,-0.90234 -0.17547,-1.54329 -0.52637,-1.92286 -0.35092,-0.37954 -0.88087,-0.56932 -1.58984,-0.56933 -0.5586,10e-6 -1.042,0.10743 -1.4502,0.32226 -0.40821,0.2077 -0.73405,0.49773 -0.97754,0.87012 l 0,8.50781 -2.61035,0 0,-11.62304 2.38477,0"
     style="fill:#3f4146;font-family:Roboto;-inkscape-font-specification:Roboto Medium"
     id="path3108" /><path
     d="m 262.43066,348.78939 c 0,-1.73307 0.47266,-3.15103 1.41797,-4.25391 0.95247,-1.11001 2.25228,-1.66503 3.89942,-1.66504 1.66861,1e-5 2.97557,0.55503 3.9209,1.66504 0.95246,1.10288 1.42869,2.52084 1.42871,4.25391 l 0,0.22558 c -2e-5,1.7474 -0.47625,3.17253 -1.42871,4.27539 -0.94533,1.09571 -2.24513,1.64356 -3.89942,1.64356 -1.66146,0 -2.96843,-0.55143 -3.9209,-1.6543 -0.94531,-1.10286 -1.41797,-2.52441 -1.41797,-4.26465 l 0,-0.22558 m 2.61036,0.22558 c -10e-6,1.13868 0.222,2.06251 0.66601,2.77149 0.44401,0.70898 1.13151,1.06348 2.0625,1.06347 0.9095,1e-5 1.58984,-0.35449 2.04102,-1.06347 0.45832,-0.71614 0.68749,-1.63997 0.6875,-2.77149 l 0,-0.22558 c -10e-6,-1.11002 -0.22918,-2.02311 -0.6875,-2.73926 -0.45118,-0.7233 -1.13868,-1.08495 -2.0625,-1.08496 -0.90951,10e-6 -1.58985,0.36166 -2.04102,1.08496 -0.44401,0.71615 -0.66602,1.62924 -0.66601,2.73926 l 0,0.22558"
     style="fill:#3f4146;font-family:Roboto;-inkscape-font-specification:Roboto Medium"
     id="path3110" /><path
     d="m 282.62598,352.98958 c -0.35808,0.62305 -0.82,1.10287 -1.38575,1.43946 -0.5586,0.33658 -1.20671,0.50488 -1.94433,0.50488 -1.2461,0 -2.22006,-0.4082 -2.92188,-1.22461 -0.70182,-0.82357 -1.05273,-2.0983 -1.05273,-3.82422 l 0,-6.7998 2.59961,0 0,6.82129 c -1e-5,1.11003 0.16113,1.87272 0.4834,2.28808 0.32226,0.40821 0.82356,0.61231 1.5039,0.61231 0.6302,0 1.15657,-0.111 1.5791,-0.33301 0.42968,-0.22917 0.76627,-0.55859 1.00977,-0.98828 l 0,-8.40039 2.61035,0 0,11.62304 -2.24512,0 -0.23632,-1.71875"
     style="fill:#3f4146;font-family:Roboto;-inkscape-font-specification:Roboto Medium"
     id="path3112" /><path
     d="m 291.875,350.77669 0.19336,0.94532 0.0645,0 0.2041,-0.94532 2.30957,-7.6914 2.69629,0 -4.125,11.62304 -2.2666,0 -4.14648,-11.62304 2.69629,0 2.37402,7.6914"
     style="fill:#3f4146;font-family:Roboto;-inkscape-font-specification:Roboto Medium"
     id="path3114" /><path
     d="m 303.80957,354.93392 c -1.69727,0 -3.02572,-0.53353 -3.98535,-1.60059 -0.95248,-1.07421 -1.42871,-2.46353 -1.42871,-4.16797 l 0,-0.42968 c 0,-1.70442 0.47623,-3.10807 1.42871,-4.21094 0.95963,-1.11002 2.19498,-1.66145 3.70605,-1.6543 1.56119,1e-5 2.74283,0.48341 3.54493,1.4502 0.80207,0.95964 1.20311,2.24512 1.20312,3.85644 l 0,1.40723 -7.18652,0 -0.0215,0.0537 c 0.0286,0.95248 0.2793,1.72592 0.75196,2.32031 0.47265,0.59441 1.18521,0.89161 2.13769,0.8916 0.70898,1e-5 1.32128,-0.0859 1.83691,-0.25781 0.52278,-0.17187 1.00618,-0.41894 1.4502,-0.74121 l 0.84863,1.70801 c -0.44402,0.38672 -1.03126,0.71256 -1.76172,0.97754 -0.73047,0.26497 -1.57194,0.39746 -2.52441,0.39746 m -0.2793,-9.96875 c -0.68034,10e-6 -1.22461,0.24708 -1.63281,0.74121 -0.40821,0.48699 -0.66244,1.12436 -0.76269,1.91211 l 0.0215,0.0537 4.54395,0 0,-0.2041 c -10e-6,-0.74478 -0.17547,-1.34635 -0.52637,-1.80469 -0.34376,-0.46548 -0.89161,-0.69823 -1.64356,-0.69824"
     style="fill:#3f4146;font-family:Roboto;-inkscape-font-specification:Roboto Medium"
     id="path3116" /><path
     d="m 317.39844,354.70833 c -0.0931,-0.29362 -0.17189,-0.58007 -0.23633,-0.85937 -0.0573,-0.2793 -0.0967,-0.55859 -0.11816,-0.83789 -0.35092,0.54427 -0.82,1.0026 -1.40723,1.375 -0.58725,0.36523 -1.24252,0.54785 -1.96582,0.54785 -1.21029,0 -2.14128,-0.31152 -2.79297,-0.93457 -0.64453,-0.62305 -0.9668,-1.47884 -0.9668,-2.56738 0,-1.12435 0.44401,-1.99805 1.33203,-2.6211 0.88802,-0.6302 2.1377,-0.9453 3.74903,-0.94531 l 2.03027,0 0,-1.02051 c -1e-5,-0.60871 -0.17904,-1.08495 -0.53711,-1.42871 -0.35092,-0.34374 -0.86296,-0.51561 -1.53613,-0.51562 -0.59441,1e-5 -1.06706,0.14323 -1.41797,0.42968 -0.35092,0.27931 -0.52637,0.64454 -0.52637,1.09571 l -2.51367,0.0107 -0.0107,-0.0644 c -0.0501,-0.91666 0.35807,-1.72949 1.22461,-2.43848 0.87369,-0.70897 2.00878,-1.06347 3.40527,-1.06348 1.35351,1e-5 2.44563,0.34376 3.27637,1.03125 0.83072,0.68751 1.24608,1.67579 1.24609,2.96485 l 0,5.16699 c -1e-5,0.47982 0.0322,0.94173 0.0967,1.38574 0.0644,0.43685 0.16829,0.86654 0.31153,1.28906 l -2.64258,0 m -3.19043,-1.86914 c 0.65168,0 1.23892,-0.16471 1.76172,-0.49414 0.52994,-0.32942 0.88085,-0.7054 1.05273,-1.12793 l 0,-1.71875 -2.07324,0 c -0.75912,10e-6 -1.35352,0.18979 -1.7832,0.56934 -0.4297,0.3724 -0.64454,0.81283 -0.64454,1.32129 0,0.44401 0.14323,0.7985 0.42969,1.06347 0.29362,0.25782 0.71256,0.38672 1.25684,0.38672"
     style="fill:#3f4146;font-family:Roboto;-inkscape-font-specification:Roboto Medium"
     id="path3118" /><path
     d="m 329.63379,352.98958 c -0.35808,0.62305 -0.82,1.10287 -1.38574,1.43946 -0.5586,0.33658 -1.20671,0.50488 -1.94434,0.50488 -1.2461,0 -2.22005,-0.4082 -2.92187,-1.22461 -0.70183,-0.82357 -1.05274,-2.0983 -1.05274,-3.82422 l 0,-6.7998 2.59961,0 0,6.82129 c 0,1.11003 0.16113,1.87272 0.4834,2.28808 0.32226,0.40821 0.82356,0.61231 1.50391,0.61231 0.6302,0 1.15656,-0.111 1.5791,-0.33301 0.42968,-0.22917 0.76626,-0.55859 1.00976,-0.98828 l 0,-8.40039 2.61035,0 0,11.62304 -2.24511,0 -0.23633,-1.71875"
     style="fill:#3f4146;font-family:Roboto;-inkscape-font-specification:Roboto Medium"
     id="path3120" /><path
     d="m 343.68457,340.26009 0,2.8252 2.08398,0 0,1.93359 -2.08398,0 0,6.42383 c 0,0.47982 0.10384,0.82357 0.31152,1.03125 0.20768,0.20052 0.4834,0.30078 0.82715,0.30078 0.14323,0 0.28287,-0.0107 0.41895,-0.0322 0.13606,-0.0286 0.26496,-0.0644 0.38672,-0.10742 l 0.27929,1.91211 c -0.22201,0.12175 -0.48698,0.21484 -0.79492,0.2793 -0.30079,0.0716 -0.61589,0.10742 -0.94531,0.10742 -0.95964,0 -1.71517,-0.2793 -2.2666,-0.83789 -0.54428,-0.56576 -0.81641,-1.45019 -0.81641,-2.65332 l 0,-6.42383 -1.77246,0 0,-1.93359 1.77246,0 0,-2.8252 2.59961,0"
     style="fill:#3f4146;font-family:Roboto;-inkscape-font-specification:Roboto Medium"
     id="path3122" /><path
     d="m 354.86719,354.70833 c -0.0931,-0.29362 -0.17189,-0.58007 -0.23633,-0.85937 -0.0573,-0.2793 -0.0967,-0.55859 -0.11816,-0.83789 -0.35092,0.54427 -0.82,1.0026 -1.40723,1.375 -0.58725,0.36523 -1.24252,0.54785 -1.96582,0.54785 -1.21029,0 -2.14128,-0.31152 -2.79297,-0.93457 -0.64453,-0.62305 -0.9668,-1.47884 -0.9668,-2.56738 0,-1.12435 0.44401,-1.99805 1.33203,-2.6211 0.88802,-0.6302 2.1377,-0.9453 3.74903,-0.94531 l 2.03027,0 0,-1.02051 c -1e-5,-0.60871 -0.17904,-1.08495 -0.53711,-1.42871 -0.35092,-0.34374 -0.86296,-0.51561 -1.53613,-0.51562 -0.59441,1e-5 -1.06706,0.14323 -1.41797,0.42968 -0.35092,0.27931 -0.52637,0.64454 -0.52637,1.09571 l -2.51367,0.0107 -0.0107,-0.0644 c -0.0501,-0.91666 0.35807,-1.72949 1.22461,-2.43848 0.87369,-0.70897 2.00878,-1.06347 3.40527,-1.06348 1.35351,1e-5 2.44563,0.34376 3.27637,1.03125 0.83072,0.68751 1.24608,1.67579 1.24609,2.96485 l 0,5.16699 c -1e-5,0.47982 0.0322,0.94173 0.0967,1.38574 0.0644,0.43685 0.16829,0.86654 0.31153,1.28906 l -2.64258,0 m -3.19043,-1.86914 c 0.65168,0 1.23892,-0.16471 1.76172,-0.49414 0.52994,-0.32942 0.88085,-0.7054 1.05273,-1.12793 l 0,-1.71875 -2.07324,0 c -0.75912,10e-6 -1.35352,0.18979 -1.7832,0.56934 -0.4297,0.3724 -0.64454,0.81283 -0.64454,1.32129 0,0.44401 0.14323,0.7985 0.42969,1.06347 0.29362,0.25782 0.71256,0.38672 1.25684,0.38672"
     style="fill:#3f4146;font-family:Roboto;-inkscape-font-specification:Roboto Medium"
     id="path3124" /><path
     d="m 370.05664,349.28353 c -1e-5,1.69727 -0.39747,3.06511 -1.19238,4.10351 -0.78777,1.03125 -1.90138,1.54688 -3.34082,1.54688 -0.73048,0 -1.36427,-0.15039 -1.90137,-0.45117 -0.53711,-0.30078 -0.9847,-0.73763 -1.34277,-1.31055 l -0.31153,1.53613 -2.11621,0 0,-16.75781 2.61035,0 0,6.45606 c 0.35807,-0.49413 0.78776,-0.87369 1.28907,-1.13868 0.50129,-0.26496 1.08495,-0.39745 1.75097,-0.39746 1.45377,1e-5 2.57454,0.56577 3.36231,1.69727 0.79491,1.13152 1.19237,2.62826 1.19238,4.49023 l 0,0.22559 m -2.61035,-0.22559 c -10e-6,-1.21028 -0.20769,-2.18781 -0.62305,-2.93261 -0.41537,-0.74479 -1.07422,-1.11718 -1.97656,-1.11719 -0.58008,10e-6 -1.06706,0.12891 -1.46094,0.38672 -0.38672,0.25782 -0.69466,0.61589 -0.92383,1.07422 l 0,4.87695 c 0.22201,0.4655 0.52995,0.82715 0.92383,1.08496 0.39388,0.25065 0.88802,0.37598 1.48242,0.37598 0.90234,0 1.55761,-0.31511 1.96582,-0.94532 0.4082,-0.63736 0.6123,-1.49674 0.61231,-2.57812 l 0,-0.22559"
     style="fill:#3f4146;font-family:Roboto;-inkscape-font-specification:Roboto Medium"
     id="path3126" /><path
     d="m 375.09473,354.70833 -2.61036,0 0,-16.75781 2.61036,0 0,16.75781"
     style="fill:#3f4146;font-family:Roboto;-inkscape-font-specification:Roboto Medium"
     id="path3128" /><path
     d="m 382.95801,354.93392 c -1.69727,0 -3.02572,-0.53353 -3.98535,-1.60059 -0.95248,-1.07421 -1.42872,-2.46353 -1.42871,-4.16797 l 0,-0.42968 c -10e-6,-1.70442 0.47623,-3.10807 1.42871,-4.21094 0.95963,-1.11002 2.19498,-1.66145 3.70605,-1.6543 1.56119,1e-5 2.74283,0.48341 3.54492,1.4502 0.80208,0.95964 1.20312,2.24512 1.20313,3.85644 l 0,1.40723 -7.18653,0 -0.0215,0.0537 c 0.0286,0.95248 0.27929,1.72592 0.75195,2.32031 0.47265,0.59441 1.18522,0.89161 2.1377,0.8916 0.70898,1e-5 1.32128,-0.0859 1.83691,-0.25781 0.52278,-0.17187 1.00618,-0.41894 1.4502,-0.74121 l 0.84863,1.70801 c -0.44402,0.38672 -1.03126,0.71256 -1.76172,0.97754 -0.73047,0.26497 -1.57195,0.39746 -2.52441,0.39746 m -0.2793,-9.96875 c -0.68034,10e-6 -1.22461,0.24708 -1.63281,0.74121 -0.40821,0.48699 -0.66244,1.12436 -0.7627,1.91211 l 0.0215,0.0537 4.54394,0 0,-0.2041 c -1e-5,-0.74478 -0.17546,-1.34635 -0.52636,-1.80469 -0.34376,-0.46548 -0.89161,-0.69823 -1.64356,-0.69824"
     style="fill:#3f4146;font-family:Roboto;-inkscape-font-specification:Roboto Medium"
     id="path3130" /><path
     d="m 396.54687,354.70833 c -0.0931,-0.29362 -0.17188,-0.58007 -0.23632,-0.85937 -0.0573,-0.2793 -0.0967,-0.55859 -0.11817,-0.83789 -0.35092,0.54427 -0.81999,1.0026 -1.40722,1.375 -0.58725,0.36523 -1.24252,0.54785 -1.96582,0.54785 -1.21029,0 -2.14128,-0.31152 -2.79297,-0.93457 -0.64454,-0.62305 -0.9668,-1.47884 -0.9668,-2.56738 0,-1.12435 0.44401,-1.99805 1.33203,-2.6211 0.88802,-0.6302 2.13769,-0.9453 3.74902,-0.94531 l 2.03028,0 0,-1.02051 c -1e-5,-0.60871 -0.17905,-1.08495 -0.53711,-1.42871 -0.35092,-0.34374 -0.86296,-0.51561 -1.53613,-0.51562 -0.59441,1e-5 -1.06707,0.14323 -1.41797,0.42968 -0.35092,0.27931 -0.52637,0.64454 -0.52637,1.09571 l -2.51367,0.0107 -0.0107,-0.0644 c -0.0501,-0.91666 0.35807,-1.72949 1.22461,-2.43848 0.87369,-0.70897 2.00878,-1.06347 3.40527,-1.06348 1.35351,1e-5 2.44563,0.34376 3.27637,1.03125 0.83072,0.68751 1.24608,1.67579 1.24609,2.96485 l 0,5.16699 c -10e-6,0.47982 0.0322,0.94173 0.0967,1.38574 0.0644,0.43685 0.16828,0.86654 0.31152,1.28906 l -2.64258,0 m -3.19042,-1.86914 c 0.65168,0 1.23892,-0.16471 1.76171,-0.49414 0.52994,-0.32942 0.88086,-0.7054 1.05274,-1.12793 l 0,-1.71875 -2.07324,0 c -0.75912,10e-6 -1.35352,0.18979 -1.78321,0.56934 -0.42969,0.3724 -0.64453,0.81283 -0.64453,1.32129 0,0.44401 0.14323,0.7985 0.42969,1.06347 0.29361,0.25782 0.71256,0.38672 1.25684,0.38672"
     style="fill:#3f4146;font-family:Roboto;-inkscape-font-specification:Roboto Medium"
     id="path3132" /><path
     d="m 408.78223,352.98958 c -0.35808,0.62305 -0.82,1.10287 -1.38575,1.43946 -0.5586,0.33658 -1.20671,0.50488 -1.94433,0.50488 -1.2461,0 -2.22006,-0.4082 -2.92188,-1.22461 -0.70182,-0.82357 -1.05273,-2.0983 -1.05273,-3.82422 l 0,-6.7998 2.59961,0 0,6.82129 c -1e-5,1.11003 0.16113,1.87272 0.4834,2.28808 0.32226,0.40821 0.82356,0.61231 1.5039,0.61231 0.6302,0 1.15657,-0.111 1.5791,-0.33301 0.42968,-0.22917 0.76627,-0.55859 1.00977,-0.98828 l 0,-8.40039 2.61035,0 0,11.62304 -2.24512,0 -0.23632,-1.71875"
     style="fill:#3f4146;font-family:Roboto;-inkscape-font-specification:Roboto Medium"
     id="path3134" /></g></svg>