<?xml version="1.0" encoding="utf-8"?>
<!-- Generator: Adobe Illustrator 16.0.0, SVG Export Plug-In . SVG Version: 6.00 Build 0)  -->
<!DOCTYPE svg PUBLIC "-//W3C//DTD SVG 1.1//EN" "http://www.w3.org/Graphics/SVG/1.1/DTD/svg11.dtd">
<svg version="1.1" id="Layer_1" xmlns="http://www.w3.org/2000/svg" xmlns:xlink="http://www.w3.org/1999/xlink" x="0px" y="0px"
	 width="720px" height="1400px" viewBox="0 0 720 1400" enable-background="new 0 0 720 1400" xml:space="preserve">
<rect fill="#2B2D32" width="720" height="1400"/>
<linearGradient id="SVGID_1_" gradientUnits="userSpaceOnUse" x1="252" y1="-91.1987" x2="251.9998" y2="-1110" gradientTransform="matrix(1 0 0 1 108 1110)">
	<stop  offset="0.735" style="stop-color:#191B1E"/>
	<stop  offset="0.8353" style="stop-color:#202124"/>
</linearGradient>
<rect fill="url(#SVGID_1_)" width="720" height="1018.802"/>
<g>
	<g>
		<path fill="#2B2D32" d="M663.723,561.451c0,123.062-99.844,222.838-222.97,222.838c-123.153,0-222.972-99.771-222.972-222.838
			c0-123.079,99.814-222.852,222.972-222.852C563.879,338.6,663.723,438.372,663.723,561.451z"/>
	</g>
</g>
<path fill="#3F4146" d="M589.235,561.451c0,81.963-66.481,148.396-148.482,148.396c-82.006,0-148.496-66.436-148.496-148.396
	c0-81.965,66.49-148.408,148.496-148.408C522.754,413.043,589.235,479.486,589.235,561.451z"/>
<path fill="#4C4E54" d="M574.398,561.451c0,73.756-59.849,133.565-133.646,133.565c-73.819,0-133.651-59.812-133.651-133.565
	c0-73.779,59.832-133.579,133.651-133.579C514.554,427.872,574.398,487.672,574.398,561.451z"/>
<g>
	<g>
		<path fill="#3F4146" d="M223.375,906.271c-15.919-23.855-23.57-59.866-50.992-107.625c-27.426-47.757-44.417-56.793-53.998-57.979
			c-9.6-1.19-30.824-12.729-42.5-33.192c-9.73-17.045-32.166-69.613-3.862-86.99c28.296-17.378,65.056,26.416,75.853,42.799
			c12.96,19.684,13.64,43.812,10.371,52.912c-3.269,9.1-2.877,28.317,27.291,74.391c30.177,46.056,58.835,69.181,72.908,94.156
			c14.059,24.979,4.076,37.312,0.205,39.68C254.807,926.792,239.273,930.129,223.375,906.271z"/>
	</g>
</g>
<path fill="#3F4146" d="M411.188,588.646c0,0,3.349-41.077,20.448-47.952c17.104-6.868,58.15-3.515,58.15-3.515
	s-18.77,27.399-35.86,34.283C436.826,578.342,411.188,588.646,411.188,588.646z"/>
<g>
	<g>
		<path fill="#2B2D32" d="M173.188,279.803c-1.328-2.053-0.734-4.82,1.315-6.146l66.886-43.291c2.051-1.329,4.818-0.736,6.146,1.312
			l41.294,63.822c1.328,2.051,0.735,4.819-1.315,6.147l-66.89,43.296c-2.051,1.329-4.818,0.736-6.146-1.314L173.188,279.803z"/>
	</g>
</g>
<linearGradient id="SVGID_2_" gradientUnits="userSpaceOnUse" x1="193.8271" y1="-213.3486" x2="268.1855" y2="-213.3486" gradientTransform="matrix(1 0 0 1 0 501)">
	<stop  offset="0.735" style="stop-color:#191B1E"/>
	<stop  offset="0.8353" style="stop-color:#202124"/>
</linearGradient>
<path fill="url(#SVGID_2_)" d="M195.955,290.719c-3.985-6.158-2.208-14.457,3.949-18.442l29.818-19.302
	c6.156-3.985,14.453-2.207,18.437,3.951l17.9,27.663c3.983,6.157,2.206,14.456-3.95,18.441l-29.818,19.298
	c-6.156,3.984-14.452,2.207-18.438-3.951L195.955,290.719z"/>
<path fill="#2B2D32" d="M211.936,299.996c-6.816-10.535-3.802-24.602,6.729-31.419c10.53-6.818,24.599-3.805,31.415,6.729
	c6.816,10.533,3.801,24.602-6.729,31.42C232.816,313.543,218.752,310.533,211.936,299.996z"/>
<linearGradient id="SVGID_3_" gradientUnits="userSpaceOnUse" x1="235.1074" y1="-208.8369" x2="240.9702" y2="-208.8369" gradientTransform="matrix(1 0 0 1 0 501)">
	<stop  offset="0.735" style="stop-color:#191B1E"/>
	<stop  offset="0.8353" style="stop-color:#202124"/>
</linearGradient>
<path fill="url(#SVGID_3_)" d="M235.579,293.757c-0.881-1.356-0.491-3.175,0.87-4.055c1.356-0.879,3.171-0.491,4.05,0.866
	c0.881,1.363,0.49,3.176-0.866,4.057C238.275,295.502,236.458,295.116,235.579,293.757z"/>
<linearGradient id="SVGID_4_" gradientUnits="userSpaceOnUse" x1="227.146" y1="-221.1426" x2="233.0088" y2="-221.1426" gradientTransform="matrix(1 0 0 1 0 501)">
	<stop  offset="0.735" style="stop-color:#191B1E"/>
	<stop  offset="0.8353" style="stop-color:#202124"/>
</linearGradient>
<path fill="url(#SVGID_4_)" d="M227.619,281.451c-0.881-1.36-0.495-3.176,0.865-4.057c1.359-0.877,3.174-0.486,4.053,0.873
	c0.881,1.358,0.492,3.173-0.866,4.053C230.312,283.197,228.498,282.811,227.619,281.451z"/>
<linearGradient id="SVGID_5_" gradientUnits="userSpaceOnUse" x1="221.2837" y1="-208.6191" x2="227.147" y2="-208.6191" gradientTransform="matrix(1 0 0 1 0 501)">
	<stop  offset="0.735" style="stop-color:#191B1E"/>
	<stop  offset="0.8353" style="stop-color:#202124"/>
</linearGradient>
<path fill="url(#SVGID_5_)" d="M221.756,293.975c-0.882-1.359-0.492-3.174,0.868-4.056c1.355-0.879,3.172-0.49,4.054,0.871
	c0.876,1.358,0.49,3.176-0.869,4.052C224.448,295.721,222.634,295.335,221.756,293.975z"/>
<g>
	<g>
		<path fill="#4C4E54" d="M91.482,331.9c-1.02-2.223-0.035-4.875,2.187-5.893l72.427-33.213c2.223-1.018,4.873-0.031,5.892,2.19
			l31.676,69.105c1.018,2.224,0.032,4.876-2.19,5.896l-72.424,33.208c-2.223,1.021-4.874,0.032-5.893-2.188L91.482,331.9z"/>
	</g>
</g>
<path fill="#3F4146" d="M112.443,345.98c-3.057-6.669-0.102-14.625,6.563-17.682l32.286-14.802
	c6.667-3.056,14.621-0.103,17.678,6.566l13.726,29.951c3.059,6.668,0.105,14.624-6.562,17.681l-32.285,14.804
	c-6.666,3.056-14.62,0.102-17.677-6.566L112.443,345.98z"/>
<path fill="#2B2D32" d="M126.922,357.464c-5.227-11.406-0.221-24.891,11.186-30.121c11.401-5.228,24.883-0.223,30.114,11.185
	c5.229,11.407,0.22,24.894-11.185,30.122C145.635,373.879,132.148,368.871,126.922,357.464z"/>
<linearGradient id="SVGID_6_" gradientUnits="userSpaceOnUse" x1="152.0996" y1="-153.3242" x2="157.9624" y2="-153.3242" gradientTransform="matrix(1 0 0 1 0 501)">
	<stop  offset="0.735" style="stop-color:#191B1E"/>
	<stop  offset="0.8353" style="stop-color:#202124"/>
</linearGradient>
<path fill="url(#SVGID_6_)" d="M154.001,350.421c-1.515-0.573-2.282-2.26-1.714-3.778c0.566-1.515,2.259-2.282,3.77-1.712
	c1.52,0.569,2.285,2.26,1.719,3.774C157.207,350.222,155.514,350.99,154.001,350.421z"/>
<linearGradient id="SVGID_7_" gradientUnits="userSpaceOnUse" x1="138.3804" y1="-158.479" x2="144.2427" y2="-158.479" gradientTransform="matrix(1 0 0 1 0 501)">
	<stop  offset="0.735" style="stop-color:#191B1E"/>
	<stop  offset="0.8353" style="stop-color:#202124"/>
</linearGradient>
<path fill="url(#SVGID_7_)" d="M140.281,345.266c-1.517-0.569-2.279-2.26-1.715-3.775c0.568-1.515,2.26-2.283,3.772-1.715
	c1.518,0.568,2.284,2.26,1.718,3.775C143.484,345.065,141.795,345.834,140.281,345.266z"/>
<linearGradient id="SVGID_8_" gradientUnits="userSpaceOnUse" x1="141.1167" y1="-144.9238" x2="146.979" y2="-144.9238" gradientTransform="matrix(1 0 0 1 0 501)">
	<stop  offset="0.735" style="stop-color:#191B1E"/>
	<stop  offset="0.8353" style="stop-color:#202124"/>
</linearGradient>
<path fill="url(#SVGID_8_)" d="M143.019,358.819c-1.516-0.566-2.284-2.256-1.714-3.772c0.573-1.517,2.258-2.287,3.773-1.716
	c1.515,0.571,2.283,2.26,1.713,3.775C146.223,358.627,144.533,359.392,143.019,358.819z"/>
<rect y="1272" fill="#3F4146" width="720" height="128"/>
<g>
	<path fill="#FFFFFF" d="M213.236,1272H0v128h235.902c2.677-11.906,4.098-24.286,4.098-37
		C240,1329.463,230.168,1298.225,213.236,1272z"/>
	<path fill="#E2E2E2" d="M72,1195c-25.768,0-50.177,5.809-72,16.177V1270h211.92C181.812,1224.793,130.389,1195,72,1195z"/>
	<path fill="#C9C9C9" d="M211.92,1270H0v2h213.236C212.804,1271.329,212.362,1270.664,211.92,1270z"/>
</g>
<g>
	<path fill="#C84342" d="M174.346,1295H31.655c-4.21,0-7.655,3.444-7.655,7.654v64.689c0,4.21,3.445,7.654,7.655,7.654h142.691
		c4.21,0,7.654-3.444,7.654-7.654v-64.689C182,1298.444,178.556,1295,174.346,1295L174.346,1295z"/>
</g>
<g>
	<path fill="#FFFFFF" d="M92.079,1328.211c1.855,0,3.638-1.554,3.944-3.474c0.369-1.862-0.89-3.419-2.742-3.419
		c-1.858,0-3.638,1.556-3.953,3.419C88.969,1326.655,90.176,1328.211,92.079,1328.211z"/>
	<path fill="#FFFFFF" d="M117.406,1346.568c-0.423,0.375-0.893,0.601-1.411,0.601c-1.304,0-1.855-0.664-1.855-2.08
		c0-2.234,2.186-7.825,2.186-10.362c0-3.394-1.81-5.356-5.516-5.356c-2.334,0-4.754,1.517-5.778,2.846c0,0,0.312-1.087,0.416-1.507
		c0.114-0.442-0.123-0.875-0.7-0.875c-0.83,0-2.838,0-3.624,0c-0.771,0-0.984,0.413-1.098,0.868
		c-0.045,0.183-1.347,5.339-2.603,10.284c-0.859,3.39-2.941,6.223-5.168,6.223c-1.145,0-1.654-0.727-1.654-1.949
		c0-1.063,0.684-3.68,1.494-6.927c0.991-3.951,1.864-7.209,1.956-7.591c0.125-0.485-0.098-0.909-0.72-0.909
		c-0.783,0-2.816,0-3.644,0c-0.659,0-0.894,0.349-1.036,0.83c0,0-1.022,3.906-2.111,8.253c-0.788,3.154-1.661,6.363-1.661,7.875
		c0,2.691,1.204,4.725,4.514,4.725c2.548,0,4.569-1.301,6.112-2.958c-0.229,0.896-0.374,1.468-0.385,1.523
		c-0.135,0.51,0.028,0.967,0.628,0.967c0.827,0,2.911,0,3.728,0c0.652,0,0.898-0.266,1.035-0.833
		c0.13-0.544,2.914-11.558,2.914-11.558c0.738-2.959,2.559-4.922,5.119-4.922c1.215,0,2.268,0.809,2.145,2.383
		c-0.134,1.728-2.209,7.938-2.209,10.667c0,2.062,0.762,4.732,4.624,4.732c2.634,0,4.572-1.27,5.982-2.905L117.406,1346.568z"/>
	<path fill="#FFFFFF" d="M70.575,1312.873c-11.809,0-17.76,8.515-17.76,15.607c0,4.301,1.615,8.125,5.088,9.547
		c0.567,0.237,1.076,0.014,1.243-0.622c0.117-0.439,0.389-1.547,0.508-2.006c0.167-0.63,0.102-0.847-0.357-1.394
		c-1.002-1.187-1.641-2.724-1.641-4.9c0-6.313,4.7-11.966,12.236-11.966c6.674,0,10.34,4.099,10.34,9.574
		c0,7.208-3.169,13.287-7.878,13.287c-2.598,0-4.547-2.162-3.923-4.812c0.747-3.165,2.195-6.581,2.195-8.869
		c0-2.044-1.09-3.751-3.352-3.751c-2.657,0-4.792,2.764-4.792,6.47c0,2.356,0.792,3.954,0.792,3.954s-2.719,11.588-3.196,13.614
		c-0.951,4.043-0.143,8.997-0.073,9.494c0.041,0.299,0.419,0.369,0.59,0.146c0.243-0.319,3.411-4.254,4.488-8.181
		c0.3-1.111,1.743-6.868,1.743-6.868c0.864,1.657,3.39,3.113,6.075,3.113c7.989,0,13.406-7.322,13.406-17.123
		C86.306,1319.775,80.061,1312.873,70.575,1312.873z"/>
	<path fill="#FFFFFF" d="M132.308,1328.205c1.847,0,3.622-1.548,3.929-3.455c0.366-1.855-0.886-3.403-2.733-3.403
		c-1.848,0-3.621,1.546-3.932,3.403C129.211,1326.657,130.409,1328.205,132.308,1328.205z"/>
	<path fill="#FFFFFF" d="M148.358,1344.874c-0.884,1.29-2.063,2.26-3.287,2.26c-1.139,0-1.775-0.718-1.775-1.94
		c0-1.057,0.74-3.634,1.55-6.866c0.271-1.085,0.68-2.733,1.137-4.56c2.062,0,3.717,0,3.796,0c0.562,0,0.895-0.231,1.026-0.765
		c0.182-0.763,0.516-2.099,0.607-2.465c0.124-0.478-0.152-0.84-0.68-0.84c-0.126,0-3.735,0-3.735,0s1.721-6.895,1.763-7.073
		c0.164-0.699-0.419-1.107-1.033-0.977c0,0-2.882,0.567-3.416,0.681c-0.538,0.109-0.957,0.406-1.15,1.186
		c-0.028,0.098-1.53,6.184-1.53,6.184s-2.929,0-2.997,0c-0.563,0-0.896,0.231-1.026,0.761c-0.181,0.764-0.516,2.104-0.606,2.466
		c-0.125,0.479,0.153,0.843,0.68,0.843c0.106,0,1.339,0,2.94,0c-0.024,0.082-1.063,4.063-1.904,7.629
		c-0.396,1.715-2.805,5.726-4.977,5.726c-1.136,0-2.904-0.726-2.904-1.943c0-1.057,0.677-3.661,1.488-6.896
		c0.983-3.935,1.851-7.174,1.946-7.553c0.118-0.485-0.096-0.909-0.72-0.909c-0.776,0-2.804,0-3.626,0
		c-0.657,0-0.892,0.347-1.031,0.831c0,0-1.02,3.887-2.102,8.212c-0.787,3.144-1.654,6.338-1.654,7.844
		c0,2.681,3.608,4.702,6.9,4.702c2.623,0,4.459-1.221,5.864-2.852c0.516,1.733,1.875,2.894,4.375,2.894
		c4.147,0,6.649-2.474,8.118-4.959L148.358,1344.874z"/>
</g>
</svg>
