<?xml version="1.0" encoding="utf-8"?>
<!-- Generator: Adobe Illustrator 16.0.4, SVG Export Plug-In . SVG Version: 6.00 Build 0)  -->
<!DOCTYPE svg PUBLIC "-//W3C//DTD SVG 1.1//EN" "http://www.w3.org/Graphics/SVG/1.1/DTD/svg11.dtd">
<svg version="1.1" id="Layer_1" xmlns="http://www.w3.org/2000/svg" xmlns:xlink="http://www.w3.org/1999/xlink" x="0px" y="0px"
	 width="720px" height="1508px" viewBox="0 0 720 1508" enable-background="new 0 0 720 1508" xml:space="preserve">
<rect fill="#2B2D32" width="720" height="1508"/>
<rect fill="#3F4146" width="720" height="96"/>
<g>
	<path fill="#2B2D32" d="M308.33,40.053c1.953,0,3.826-1.626,4.152-3.632c0.385-1.952-0.939-3.579-2.891-3.579
		c-1.952,0-3.826,1.627-4.158,3.579C305.055,38.427,306.324,40.053,308.33,40.053z"/>
	<path fill="#2B2D32" d="M440.871,45.857c0,0,4.287,0,4.369,0c0.6,0,0.949-0.244,1.084-0.803c0.192-0.805,0.545-2.207,0.645-2.592
		c0.131-0.503-0.162-0.884-0.721-0.884c-0.133,0-2.188,0-4.312,0c0.312-1.235,1.521-5.247,1.521-7.862
		c0-5.223-4.434-9.666-10.729-9.666c-7.104,0-11.729,4.77-11.729,11.48c0,1.957,0.729,4.24,1.635,5.655
		c-0.379-0.022-0.768-0.033-1.17-0.033c-5.399,0-8.801,2.929-8.801,7.192c0,4,3.152,5.555,6.121,6.589
		c2.639,0.919,5.065,1.347,5.065,3.407c0,1.389-1.336,2.204-3.95,2.204c-3.104,0-4.81-1.462-5.242-2.016
		c0.293-0.231,0.729-0.78,0.729-1.697c0-1.282-0.897-2.327-2.571-2.327c-1.416,0-2.611,1.154-2.91,2.672
		c-2.273,1.859-4.754,3.063-8.271,3.063c-3.463,0-5.262-1.802-5.262-5.635c0.812,0.247,2.928,0.544,4.324,0.544
		c5.864,0,9.86-2.664,9.86-8.001c0-2.869-2.518-5.883-7.502-5.883h-0.012c-6.555,0-10.227,4.152-11.83,8.72
		c-0.447-0.108-0.898-0.215-1.348-0.315c0.357-1.014,0.615-2.188,0.615-3.489c0-2.255-1.396-4.915-5.135-4.915
		c-2.604,0-5.074,1.706-6.785,4.262c0.426-1.667,0.709-2.778,0.727-2.853c0.109-0.436-0.072-0.922-0.75-0.922
		c-0.873,0-3.838,0-3.838,0c-0.545,0-0.932,0.193-1.086,0.816c-0.105,0.414-1.422,5.586-2.707,10.623
		c-0.809,3.139-4.99,7.048-10.244,7.048c-3.465,0-5.26-1.92-5.26-5.755c0.906,0.361,2.926,0.664,4.322,0.664
		c6.104,0,9.861-2.664,9.861-8.001c0-2.869-2.521-5.883-7.502-5.883h-0.013c-7.38,0-11.901,5.733-12.667,12.233
		c-0.32,2.701-2.6,6.412-5.072,6.412c-1.205,0-1.877-0.756-1.877-2.041c0-1.109,0.781-3.821,1.637-7.221
		c0.287-1.137,0.723-2.871,1.205-4.793c2.18,0,3.93,0,4.014,0c0.596,0,0.947-0.244,1.082-0.803c0.193-0.805,0.545-2.207,0.645-2.592
		c0.129-0.503-0.162-0.884-0.721-0.884c-0.133,0-3.945,0-3.945,0s1.816-7.249,1.859-7.435c0.176-0.737-0.441-1.162-1.088-1.027
		c0,0-3.049,0.598-3.615,0.715c-0.568,0.115-1.01,0.428-1.215,1.248c-0.025,0.104-1.615,6.499-1.615,6.499s-3.098,0-3.168,0
		c-0.598,0-0.949,0.243-1.084,0.802c-0.191,0.803-0.545,2.208-0.643,2.592c-0.131,0.503,0.16,0.885,0.721,0.885
		c0.113,0,1.414,0,3.107,0c-0.023,0.088-1.123,4.273-2.012,8.021c-0.422,1.803-1.824,6.02-4.121,6.02
		c-1.371,0-1.951-0.692-1.951-2.178c0-2.338,2.301-8.191,2.301-10.848c0-3.549-1.902-5.604-5.803-5.604
		c-2.457,0-5.006,1.587-6.086,2.98c0,0,0.326-1.141,0.438-1.58c0.121-0.463-0.127-0.918-0.736-0.918c-0.871,0-2.984,0-3.812,0
		c-0.811,0-1.035,0.434-1.154,0.912c-0.047,0.191-1.42,5.586-2.74,10.765c-0.902,3.547-3.094,6.511-5.438,6.511
		c-1.205,0-1.742-0.757-1.742-2.041c0-1.11,0.719-3.849,1.574-7.248c1.041-4.138,1.959-7.545,2.057-7.943
		c0.129-0.51-0.1-0.955-0.758-0.955c-0.824,0-2.965,0-3.836,0c-0.695,0-0.943,0.365-1.09,0.871c0,0-1.078,4.088-2.221,8.637
		c-0.832,3.303-1.75,6.666-1.75,8.245c0,2.819,1.266,4.945,4.748,4.945c2.686,0,4.812-1.362,6.436-3.098
		c-0.238,0.939-0.389,1.534-0.404,1.595c-0.141,0.537,0.027,1.012,0.66,1.012c0.873,0,3.066,0,3.926,0
		c0.684,0,0.945-0.275,1.09-0.87c0.137-0.568,3.068-12.1,3.068-12.1c0.773-3.099,2.689-5.149,5.387-5.149
		c1.279,0,2.387,0.848,2.256,2.492c-0.141,1.811-2.324,8.312-2.324,11.166c0,2.16,0.803,4.953,4.867,4.953
		c2.771,0,4.812-1.328,6.297-3.043c0.543,1.82,1.982,3.043,4.621,3.043c4.387,0,7.033-2.602,8.586-5.215
		c1.289,3.037,4.311,5.215,8.736,5.215c4.514,0,8.006-1.902,10.48-4.49c-0.443,1.745-0.746,2.929-0.77,3.028
		c-0.141,0.546,0.098,0.974,0.736,0.974c0.854,0,3.516,0,3.885,0c0.531,0,0.91-0.27,1.049-0.829
		c0.068-0.274,0.631-2.444,1.422-5.526c1.518-5.897,3.955-12.018,7.615-12.018c1.291,0,1.822,0.723,1.822,1.859
		c0,0.536-0.158,1-0.291,1.248c-1.775-0.353-3.203,0.523-3.203,2.419c0,1.234,1.299,2.356,3.053,2.356
		c1.34,0,2.447-0.327,3.332-0.923c0.824,0.17,1.711,0.362,2.602,0.566c-0.135,0.888-0.203,1.759-0.203,2.585
		c0,4.734,3.379,8.75,9.439,8.75c4.748,0,8.006-1.737,10.82-3.964c1.352,2.212,4.766,4,9.244,4c6.139,0,9.62-3.192,9.62-7.411
		c0-3.818-3.137-5.225-6.366-6.395c-2.629-0.949-4.82-1.465-4.82-3.322c0-1.523,1.197-2.219,3.252-2.219
		c1.332,0,2.332,0.287,2.865,0.436c0.533,1.327,1.629,2.795,3.5,2.795c1.584,0,2.295-1.252,2.295-2.406
		c0-3.283-5.471-3.628-5.471-10.671c0-4.38,2.479-7.992,7.61-7.992c3.564,0,5.896,2.261,5.896,5.911c0,3.01-1.824,8.366-1.824,8.366
		s-3.029,0-3.103,0c-0.596,0-0.948,0.243-1.084,0.802c-0.19,0.803-0.545,2.208-0.645,2.592c-0.131,0.503,0.162,0.885,0.721,0.885
		c0.113,0,3.029,0,3.029,0S432.077,57.4,432.077,59.5c0,2.819,1.588,4.944,5.069,4.944c4.927,0,8.002-3.201,9.343-7.854
		c0.104-0.36-0.101-0.653-0.466-0.653c-0.631,0-1.59,0-1.879,0c-0.375,0-0.592,0.214-0.688,0.58
		c-0.424,1.652-1.478,3.391-3.547,3.391c-1.205,0-1.877-0.756-1.877-2.041c0-1.109,0.733-3.707,1.639-7.221
		C440.105,48.979,440.871,45.857,440.871,45.857z M402.035,45.659c1.744,0,2.57,1.159,2.57,2.54c0,2.335-1.812,3.76-4.646,3.76
		c-1.014,0-2.432-0.24-3.268-0.52C397.045,49.291,398.598,45.659,402.035,45.659z M361.064,45.659c1.908,0,2.567,1.159,2.567,2.54
		c0,2.335-1.812,3.76-4.643,3.76c-1.014,0-2.432-0.24-3.27-0.52C356.072,49.291,357.451,45.659,361.064,45.659z"/>
	<path fill="#2B2D32" d="M285.695,24C273.266,24,267,32.911,267,40.342c0,4.498,1.703,8.501,5.357,9.992
		c0.598,0.245,1.135,0.009,1.309-0.654c0.121-0.459,0.406-1.617,0.533-2.1c0.176-0.656,0.107-0.886-0.375-1.457
		c-1.053-1.243-1.727-2.852-1.727-5.131c0-6.609,4.947-12.527,12.879-12.527c7.025,0,10.885,4.292,10.885,10.023
		c0,7.543-3.338,13.908-8.295,13.908c-2.734,0-4.783-2.264-4.127-5.039c0.785-3.312,2.309-6.889,2.309-9.281
		c0-2.141-1.148-3.928-3.527-3.928c-2.797,0-5.045,2.895-5.045,6.771c0,2.469,0.834,4.139,0.834,4.139s-2.861,12.129-3.363,14.254
		c-1,4.23-0.15,9.416-0.08,9.94c0.043,0.31,0.441,0.384,0.623,0.149c0.258-0.337,3.59-4.451,4.723-8.561
		c0.318-1.163,1.84-7.189,1.84-7.189c0.908,1.734,3.564,3.26,6.389,3.26c8.408,0,14.113-7.666,14.113-17.926
		C302.254,31.227,295.682,24,285.695,24z"/>
</g>
<path fill="#3F4146" d="M348,356v92c0,4.4-3.6,8-8,8H32c-4.4,0-8-3.6-8-8v-92"/>
<linearGradient id="SVGID_1_" gradientUnits="userSpaceOnUse" x1="550.5" y1="1114" x2="550.5" y2="878" gradientTransform="matrix(1 0 0 -1 -364.5 1234)">
	<stop  offset="0.2677" style="stop-color:#191B1E"/>
	<stop  offset="0.7673" style="stop-color:#36383C"/>
</linearGradient>
<path fill="url(#SVGID_1_)" d="M24,356V128c0-4.4,3.6-8,8-8h308c4.4,0,8,3.6,8,8v228"/>
<path fill="#3F4146" d="M696,516v92c0,4.4-3.6,8-8,8H380c-4.4,0-8-3.6-8-8v-92"/>
<linearGradient id="SVGID_2_" gradientUnits="userSpaceOnUse" x1="898.499" y1="1114" x2="898.499" y2="718.0005" gradientTransform="matrix(1 0 0 -1 -364.5 1234)">
	<stop  offset="0.735" style="stop-color:#191B1E"/>
	<stop  offset="0.8353" style="stop-color:#202124"/>
</linearGradient>
<path fill="url(#SVGID_2_)" d="M372,516V128c0-4.4,3.6-8,8-8h308c4.4,0,8,3.6,8,8v388"/>
<path fill="#3F4146" d="M696,1408v92c0,4.4-3.6,8-8,8H380c-4.4,0-8-3.6-8-8v-92"/>
<linearGradient id="SVGID_3_" gradientUnits="userSpaceOnUse" x1="898.501" y1="-173.9995" x2="898.501" y2="222.0005" gradientTransform="matrix(1 0 0 -1 -364.5 1234)">
	<stop  offset="0.3778" style="stop-color:#1E2024"/>
	<stop  offset="0.7027" style="stop-color:#2B2E33"/>
</linearGradient>
<path fill="url(#SVGID_3_)" d="M372,1408v-388c0-4.4,3.6-8,8-8h308c4.4,0,8,3.6,8,8v388"/>
<path fill="#3F4146" d="M696,888v92c0,4.4-3.6,8-8,8H380c-4.4,0-8-3.6-8-8v-92"/>
<linearGradient id="SVGID_4_" gradientUnits="userSpaceOnUse" x1="736.5" y1="470" x2="1060.5" y2="470" gradientTransform="matrix(1 0 0 -1 -364.5 1234)">
	<stop  offset="0.562" style="stop-color:#1E2024"/>
	<stop  offset="0.7673" style="stop-color:#25272B"/>
</linearGradient>
<path fill="url(#SVGID_4_)" d="M372,888V648c0-4.4,3.6-8,8-8h308c4.4,0,8,3.6,8,8v240"/>
<path fill="#3F4146" d="M348,1227v92c0,4.4-3.6,8-8,8H32c-4.4,0-8-3.6-8-8v-92"/>
<linearGradient id="SVGID_5_" gradientUnits="userSpaceOnUse" x1="550.5" y1="242.9995" x2="550.5" y2="6.9995" gradientTransform="matrix(1 0 0 -1 -364.5 1234)">
	<stop  offset="0.2677" style="stop-color:#1E2024"/>
	<stop  offset="0.7673" style="stop-color:#2B2E33"/>
</linearGradient>
<path fill="url(#SVGID_5_)" d="M24,1227V999c0-4.4,3.6-8,8-8h308c4.4,0,8,3.6,8,8v228"/>
<linearGradient id="SVGID_6_" gradientUnits="userSpaceOnUse" x1="550.5" y1="-118.0005" x2="550.5" y2="-274.0005" gradientTransform="matrix(1 0 0 -1 -364.5 1234)">
	<stop  offset="0.2677" style="stop-color:#1E2024"/>
	<stop  offset="0.7673" style="stop-color:#2B2E33"/>
</linearGradient>
<path fill="url(#SVGID_6_)" d="M24,1508v-148c0-4.4,3.6-8,8-8h308c4.4,0,8,3.6,8,8v148"/>
<path fill="#3F4146" d="M348,867v92c0,4.4-3.6,8-8,8H32c-4.4,0-8-3.6-8-8v-92"/>
<linearGradient id="SVGID_7_" gradientUnits="userSpaceOnUse" x1="550.5" y1="754" x2="550.5" y2="366.9995" gradientTransform="matrix(1 0 0 -1 -364.5 1234)">
	<stop  offset="0.2677" style="stop-color:#191B1E"/>
	<stop  offset="0.382" style="stop-color:#232529"/>
	<stop  offset="0.7673" style="stop-color:#41444D"/>
</linearGradient>
<path fill="url(#SVGID_7_)" d="M24,867V488c0-4.4,3.6-8,8-8h308c4.4,0,8,3.6,8,8v379"/>
<g opacity="0.9">
	
		<linearGradient id="SVGID_8_" gradientUnits="userSpaceOnUse" x1="550.5" y1="682.4492" x2="550.5" y2="366.9995" gradientTransform="matrix(1 0 0 -1 -364.5 1234)">
		<stop  offset="0" style="stop-color:#191B1E"/>
		<stop  offset="0.0914" style="stop-color:#212327"/>
		<stop  offset="0.2373" style="stop-color:#37393E"/>
		<stop  offset="0.4185" style="stop-color:#5A5C63"/>
		<stop  offset="0.4517" style="stop-color:#61636B"/>
	</linearGradient>
	<path fill="url(#SVGID_8_)" d="M24,614.332c0,0,9.333-11.331,11.333-11.331s12-12,12-12L62,583.667c0,0,21.332-14,22.667-13.335
		c1.333,0.668,8.666,5.334,8.666,5.334s10.667-2,12-0.666c1.334,1.333,14,18.667,15.334,18.667c1.333,0,6,1.334,6,1.334
		s6.666,7.332,8,8c1.333,0.665,17.333,7.331,18.666,6.666c1.334-0.667,6.667-5.336,8.667-5.336s6-5.33,8.667-5.33
		c2.666,0,8-18.001,10-18.001S188,569.667,188,569.667S198,565,200,565s10.667,13.332,12.667,14.666s17.333,8.001,20.666,8.001
		c3.334,0,9.334-2.667,9.334-2.667s14-28.668,18-28.668S272,561,274.667,561c2.666,0,21.333-10.667,23.333-9.334
		c2,1.334,12.667,2,18,2.667c5.333,0.668,19.333,8.667,21.333,9.999c2,1.335,10.667,1.335,10.667,1.335V867H24V614.332z"/>
	
		<linearGradient id="SVGID_9_" gradientUnits="userSpaceOnUse" x1="550.5" y1="624.1377" x2="550.5" y2="366.9995" gradientTransform="matrix(1 0 0 -1 -364.5 1234)">
		<stop  offset="0" style="stop-color:#191B1E"/>
		<stop  offset="0.1201" style="stop-color:#212326"/>
		<stop  offset="0.3117" style="stop-color:#393A3E"/>
		<stop  offset="0.5496" style="stop-color:#5E5F63"/>
		<stop  offset="0.5821" style="stop-color:#646569"/>
	</linearGradient>
	<path fill="url(#SVGID_9_)" d="M24,661.667c0,0,9.333-6.001,11.333-5.335c2,0.668,7.334,4,7.334,4S64,647.001,69.333,645.666
		c5.334-1.334,14.667-20.665,18-21.333c3.334-0.667,17.334,14.668,21.334,14.668s8.666,11.332,8.666,11.332s18.667-0.666,22,0
		c3.334,0.667,24.667,15.333,29.334,15.999c4.666,0.668,8.666,4.669,8.666,4.669s6,14.666,8.667,15.331
		c2.667,0.669,22.667,4.001,25.333,4.669c2.667,0.665,13.334,11.331,15.334,14.666c2,3.334,19.333-7.334,20.666-9.335
		c1.334-1.999,14.667-12.665,20-13.331c5.334-0.669,16-43.334,18-43.334s10-12.667,10-12.667s-1.333-16.668,2-16
		c3.334,0.666,30.667-3.334,32,0.666c1.334,4.001,7.334,23.334,9.334,23.334s9.333,5.332,9.333,5.332V867H24V661.667z"/>
	<g>
		
			<image overflow="visible" enable-background="new    " width="374" height="210" xlink:href="9E48CEF890BB38F8.png"  transform="matrix(1 0 0 1 -2 634)">
		</image>
	</g>
	
		<linearGradient id="SVGID_10_" gradientUnits="userSpaceOnUse" x1="550.5" y1="544.334" x2="550.5" y2="366.9995" gradientTransform="matrix(1 0 0 -1 -364.5 1234)">
		<stop  offset="0.6008" style="stop-color:#191B1E"/>
		<stop  offset="0.672" style="stop-color:#222426"/>
		<stop  offset="0.7855" style="stop-color:#393B3D"/>
		<stop  offset="0.9265" style="stop-color:#5E6062"/>
		<stop  offset="0.9491" style="stop-color:#656769"/>
	</linearGradient>
	<path fill="url(#SVGID_10_)" d="M348,695.666c0,0-11.333-6-14-6s-10,6.666-10,6.666l-12.667-0.666c0,0-4.666,4.666-8,6.001
		C300,703,288.667,705,288.667,705s0,6.666-5.334,9.332c-5.333,2.669-22,3.334-22,3.334S250.667,725,250.667,727
		s-17.334,6.666-17.334,6.666s-11.333-0.666-14,0c-2.666,0.667-9.333,12-9.333,12s-17.333,12.666-20,12.666s-26-2-26-2
		s-13.333,6.001-13.333,8.669c0,2.665-18,3.332-18,3.332s-16.667-9.332-19.334-8.667c-2.666,0.666-32.666-5.334-32.666-5.334
		L68,753.667c0,0-9.333,8.666-13.333,9.334c-4,0.665-24,3.999-24,3.999L24,764.333V867h324V695.666z"/>
	<g>
		
			<image overflow="visible" enable-background="new    " width="75" height="75" xlink:href="9E48CEF890BB38F9.png"  transform="matrix(1 0 0 1 97 491)">
		</image>
	</g>
	<g>
		
			<image overflow="visible" enable-background="new    " width="75" height="75" xlink:href="9E48CEF890BB38FF.png"  transform="matrix(1 0 0 1 247 479)">
		</image>
	</g>
	<g>
		
			<image overflow="visible" enable-background="new    " width="75" height="74" xlink:href="9E48CEF890BB38FA.png"  transform="matrix(1 0 0 1 277.0005 467)">
		</image>
	</g>
</g>
<g>
	
		<image overflow="visible" opacity="0.75" enable-background="new    " width="54" height="55" xlink:href="9E48CEF890BB38FB.png"  transform="matrix(1 0 0 1 49 497)">
	</image>
	<g>
		<circle fill="#58595B" cx="75.909" cy="524.639" r="11.688"/>
	</g>
</g>
<g>
	<path fill="#41444D" d="M210.271,1073.197c0,1.1-0.9,2-2,2h-46.957c-1.1,0-2-0.9-2-2V1038c0-1.1,0.9-2,2-2h46.957c1.1,0,2,0.9,2,2
		V1073.197z"/>
</g>
<g>
	<path fill="#41444D" d="M118.157,1080.057c0,1.101-0.9,2-2,2H99.579c-1.1,0-2-0.899-2-2v-35.196c0-1.101,0.9-2,2-2h16.578
		c1.1,0,2,0.899,2,2V1080.057z"/>
</g>
<g>
	
		<image overflow="visible" opacity="0.2" enable-background="new    " width="262" height="175" xlink:href="9E48CEF890BB38F6.png"  transform="matrix(1 0 0 1 56 1028)">
	</image>
	<g>
		
			<linearGradient id="SVGID_11_" gradientUnits="userSpaceOnUse" x1="551.2529" y1="188.2017" x2="551.2529" y2="56.8882" gradientTransform="matrix(1 0 0 -1 -364.5 1234)">
			<stop  offset="0.3538" style="stop-color:#191B1E"/>
			<stop  offset="0.6191" style="stop-color:#202226"/>
			<stop  offset="1" style="stop-color:#32343B"/>
		</linearGradient>
		<path fill="url(#SVGID_11_)" d="M296.506,1173.191c0,2.154-1.764,3.92-3.92,3.92H80.92c-2.156,0-3.92-1.766-3.92-3.92v-123.474
			c0-2.155,1.764-3.92,3.92-3.92h211.666c2.156,0,3.92,1.765,3.92,3.92V1173.191z"/>
	</g>
</g>
<linearGradient id="SVGID_12_" gradientUnits="userSpaceOnUse" x1="551.2529" y1="188.2007" x2="551.2529" y2="157.8218" gradientTransform="matrix(1 0 0 -1 -364.5 1234)">
	<stop  offset="0" style="stop-color:#191B1E"/>
	<stop  offset="0.4106" style="stop-color:#202226"/>
	<stop  offset="1" style="stop-color:#32343B"/>
</linearGradient>
<path fill="url(#SVGID_12_)" d="M77,1076.178v-26.459c0-2.154,1.764-3.92,3.92-3.92h211.666c2.156,0,3.92,1.766,3.92,3.92v26.459"/>
<path fill="#575B66" d="M229.045,1124.202c0,23.378-18.949,42.328-42.326,42.328c-23.379,0-42.326-18.95-42.326-42.328
	c0-23.373,18.947-42.327,42.326-42.327C210.096,1081.875,229.045,1100.829,229.045,1124.202z"/>
<radialGradient id="SVGID_13_" cx="834.5527" cy="196.5278" r="40.012" gradientTransform="matrix(0.8951 0 0 -0.8951 -560.2899 1300.1177)" gradientUnits="userSpaceOnUse">
	<stop  offset="0.3385" style="stop-color:#41444D"/>
	<stop  offset="1" style="stop-color:#191B1E"/>
</radialGradient>
<path fill="url(#SVGID_13_)" d="M222.533,1124.202c0,19.782-16.031,35.817-35.814,35.817c-19.795,0-35.816-16.035-35.816-35.817
	c0-19.78,16.021-35.812,35.816-35.812C206.502,1088.39,222.533,1104.422,222.533,1124.202z"/>
<radialGradient id="SVGID_14_" cx="834.5527" cy="196.5312" r="25.4629" gradientTransform="matrix(0.8951 0 0 -0.8951 -560.2899 1300.1177)" gradientUnits="userSpaceOnUse">
	<stop  offset="0.3385" style="stop-color:#41444D"/>
	<stop  offset="1" style="stop-color:#191B1E"/>
</radialGradient>
<path fill="url(#SVGID_14_)" d="M209.511,1124.202c0,12.589-10.209,22.79-22.792,22.79c-12.594,0-22.793-10.201-22.793-22.79
	s10.199-22.791,22.793-22.791C199.302,1101.411,209.511,1111.613,209.511,1124.202z"/>
<g>
	
		<image overflow="visible" opacity="0.1" enable-background="new    " width="42" height="42" xlink:href="9E48CEF890BB38F7.png"  transform="matrix(1 0 0 1 234.9995 1110)">
	</image>
	<g>
		<circle fill="#41444D" cx="249.112" cy="1124.202" r="5.644"/>
	</g>
</g>
<g>
	
		<image overflow="visible" opacity="0.1" enable-background="new    " width="173" height="174" xlink:href="9E48CEF890BB3908.png"  transform="matrix(1 0 0 1 522 671)">
	</image>
	<g>
		<path fill="#3F4146" d="M608.087,693.124c11.12,0,1.097,35.412,13.273,50.942c8.251,10.522,40.538-13.634,48.431-5.021
			c7.894,8.608-36.592,20.089-36.232,33.005c0.357,12.914,27.025,41.376,15.545,45.682c-11.479,4.305-21.644-33.844-40.657-32.768
			c-19.015,1.077-26.548,38.388-38.027,33.005c-11.479-5.381,12.915-31.569,12.557-44.843s-38.027-23.678-36.593-33.723
			c1.436-10.045,45.562,12.915,49.508,2.869C599.836,732.229,596.966,693.124,608.087,693.124z"/>
	</g>
</g>
<g>
	<g>
		
			<image overflow="visible" opacity="0.1" enable-background="new    " width="498" height="498" xlink:href="9E48CEF890BB390B.png"  transform="matrix(0.3921 0 0 0.3921 461.7236 209.7061)">
		</image>
		<g>
			<path fill="#2B2D32" d="M647.422,306.535c0,48.548-39.388,87.909-87.961,87.909c-48.583,0-87.961-39.359-87.961-87.909
				c0-48.555,39.377-87.914,87.961-87.914C608.034,218.622,647.422,257.98,647.422,306.535z"/>
		</g>
	</g>
	<path fill="#3F4146" d="M618.037,306.535c0,32.334-26.228,58.542-58.576,58.542c-32.351,0-58.58-26.209-58.58-58.542
		c0-32.334,26.229-58.546,58.58-58.546C591.811,247.989,618.037,274.201,618.037,306.535z"/>
	<path fill="#4C4E54" d="M612.184,306.535c0,29.097-23.608,52.69-52.723,52.69c-29.121,0-52.725-23.595-52.725-52.69
		c0-29.105,23.604-52.696,52.725-52.696C588.576,253.839,612.184,277.43,612.184,306.535z"/>
	<g>
		
			<image overflow="visible" opacity="0.1" enable-background="new    " width="259" height="361" xlink:href="E085E9ECEB0F3C27.png"  transform="matrix(0.3899 0 0 0.3923 398.999 319.376)">
		</image>
		<g>
			<path fill="#3F4146" d="M473.707,442.565c-6.28-9.411-9.299-23.617-20.116-42.457c-10.818-18.841-17.521-22.405-21.302-22.873
				c-3.787-0.471-12.16-5.021-16.767-13.096c-3.84-6.724-12.689-27.462-1.523-34.316c11.162-6.855,25.664,10.421,29.924,16.884
				c5.112,7.766,5.381,17.284,4.091,20.874c-1.289,3.59-1.135,11.171,10.768,29.347c11.903,18.169,23.21,27.291,28.762,37.146
				c5.546,9.854,1.608,14.72,0.081,15.652C486.106,450.661,479.979,451.978,473.707,442.565z"/>
		</g>
	</g>
	<path fill="#3F4146" d="M547.798,317.264c0,0,1.321-16.205,8.067-18.917c6.747-2.709,22.938-1.386,22.938-1.386
		s-7.403,10.809-14.146,13.524C557.912,313.198,547.798,317.264,547.798,317.264z"/>
	<g>
		
			<image overflow="visible" opacity="0.1" enable-background="new    " width="65" height="66" xlink:href="E085E9ECEB0F3C25.png"  transform="matrix(0.8901 0 0 0.8769 448.0039 171.2695)">
		</image>
		<g>
			<path fill="#2B2D32" d="M453.908,195.426c-0.524-0.81-0.289-1.902,0.519-2.424l26.388-17.078
				c0.809-0.524,1.899-0.291,2.425,0.517l16.29,25.178c0.522,0.809,0.29,1.901-0.52,2.425l-26.389,17.081
				c-0.81,0.524-1.9,0.29-2.424-0.519L453.908,195.426z"/>
		</g>
	</g>
	
		<linearGradient id="SVGID_15_" gradientUnits="userSpaceOnUse" x1="772.5508" y1="-1278.4775" x2="801.8857" y2="-1278.4775" gradientTransform="matrix(1 0 0 1 -310.5 1477)">
		<stop  offset="0.735" style="stop-color:#191B1E"/>
		<stop  offset="0.8353" style="stop-color:#202124"/>
	</linearGradient>
	<path fill="url(#SVGID_15_)" d="M462.89,199.732c-1.57-2.429-0.871-5.703,1.559-7.275l11.764-7.615
		c2.428-1.572,5.701-0.871,7.273,1.559l7.061,10.913c1.572,2.429,0.871,5.703-1.558,7.275l-11.764,7.613
		c-2.43,1.572-5.701,0.871-7.272-1.559L462.89,199.732z"/>
	<path fill="#2B2D32" d="M469.194,203.393c-2.688-4.156-1.5-9.706,2.653-12.395c4.154-2.689,9.704-1.501,12.395,2.655
		c2.688,4.155,1.499,9.706-2.654,12.395C477.432,208.737,471.883,207.549,469.194,203.393z"/>
	
		<linearGradient id="SVGID_16_" gradientUnits="userSpaceOnUse" x1="788.835" y1="-1276.6982" x2="791.1475" y2="-1276.6982" gradientTransform="matrix(1 0 0 1 -310.5 1477)">
		<stop  offset="0.735" style="stop-color:#191B1E"/>
		<stop  offset="0.8353" style="stop-color:#202124"/>
	</linearGradient>
	<path fill="url(#SVGID_16_)" d="M478.521,200.931c-0.349-0.535-0.194-1.252,0.343-1.6c0.535-0.347,1.251-0.194,1.598,0.342
		c0.348,0.538,0.193,1.253-0.342,1.6S478.868,201.467,478.521,200.931z"/>
	
		<linearGradient id="SVGID_17_" gradientUnits="userSpaceOnUse" x1="785.6943" y1="-1281.5518" x2="788.0078" y2="-1281.5518" gradientTransform="matrix(1 0 0 1 -310.5 1477)">
		<stop  offset="0.735" style="stop-color:#191B1E"/>
		<stop  offset="0.8353" style="stop-color:#202124"/>
	</linearGradient>
	<path fill="url(#SVGID_17_)" d="M475.381,196.077c-0.348-0.537-0.195-1.253,0.342-1.601c0.535-0.346,1.252-0.192,1.6,0.345
		c0.348,0.535,0.193,1.251-0.342,1.599C476.443,196.765,475.728,196.613,475.381,196.077z"/>
	
		<linearGradient id="SVGID_18_" gradientUnits="userSpaceOnUse" x1="783.3818" y1="-1276.6118" x2="785.6953" y2="-1276.6118" gradientTransform="matrix(1 0 0 1 -310.5 1477)">
		<stop  offset="0.735" style="stop-color:#191B1E"/>
		<stop  offset="0.8353" style="stop-color:#202124"/>
	</linearGradient>
	<path fill="url(#SVGID_18_)" d="M473.068,201.017c-0.349-0.536-0.194-1.252,0.342-1.6c0.535-0.347,1.252-0.193,1.6,0.344
		c0.347,0.536,0.193,1.253-0.343,1.598C474.13,201.706,473.414,201.554,473.068,201.017z"/>
	<g>
		
			<image overflow="visible" opacity="0.1" enable-background="new    " width="65" height="64" xlink:href="E085E9ECEB0F3C23.png"  transform="matrix(0.8631 0 0 0.8632 415.5684 196.6997)">
		</image>
		<g>
			<path fill="#4C4E54" d="M421.676,215.979c-0.401-0.877-0.014-1.923,0.862-2.325l28.572-13.102
				c0.877-0.402,1.923-0.012,2.324,0.864l12.495,27.261c0.401,0.877,0.014,1.923-0.862,2.326l-28.571,13.101
				c-0.877,0.402-1.923,0.013-2.324-0.863L421.676,215.979z"/>
		</g>
	</g>
	<path fill="#3F4146" d="M429.945,221.533c-1.207-2.631-0.041-5.77,2.588-6.976l12.736-5.839c2.631-1.206,5.769-0.041,6.975,2.59
		l5.415,11.815c1.206,2.631,0.041,5.769-2.589,6.975l-12.736,5.84c-2.629,1.206-5.768,0.04-6.974-2.59L429.945,221.533z"/>
	<path fill="#2B2D32" d="M435.656,226.063c-2.062-4.5-0.087-9.819,4.413-11.883c4.497-2.062,9.815-0.088,11.88,4.412
		c2.062,4.5,0.086,9.821-4.412,11.883C443.039,232.539,437.719,230.563,435.656,226.063z"/>
	
		<linearGradient id="SVGID_19_" gradientUnits="userSpaceOnUse" x1="756.0889" y1="-1254.7979" x2="758.4014" y2="-1254.7979" gradientTransform="matrix(1 0 0 1 -310.5 1477)">
		<stop  offset="0.735" style="stop-color:#191B1E"/>
		<stop  offset="0.8353" style="stop-color:#202124"/>
	</linearGradient>
	<path fill="url(#SVGID_19_)" d="M446.339,223.285c-0.598-0.226-0.899-0.891-0.676-1.49c0.224-0.598,0.891-0.9,1.487-0.675
		c0.6,0.225,0.9,0.892,0.678,1.489C447.604,223.207,446.936,223.509,446.339,223.285z"/>
	
		<linearGradient id="SVGID_20_" gradientUnits="userSpaceOnUse" x1="750.6768" y1="-1256.832" x2="752.9893" y2="-1256.832" gradientTransform="matrix(1 0 0 1 -310.5 1477)">
		<stop  offset="0.735" style="stop-color:#191B1E"/>
		<stop  offset="0.8353" style="stop-color:#202124"/>
	</linearGradient>
	<path fill="url(#SVGID_20_)" d="M440.927,221.251c-0.599-0.224-0.898-0.892-0.677-1.489c0.224-0.598,0.892-0.901,1.488-0.677
		c0.599,0.225,0.899,0.892,0.678,1.49C442.19,221.172,441.523,221.475,440.927,221.251z"/>
	
		<linearGradient id="SVGID_21_" gradientUnits="userSpaceOnUse" x1="751.7568" y1="-1251.4839" x2="754.0684" y2="-1251.4839" gradientTransform="matrix(1 0 0 1 -310.5 1477)">
		<stop  offset="0.735" style="stop-color:#191B1E"/>
		<stop  offset="0.8353" style="stop-color:#202124"/>
	</linearGradient>
	<path fill="url(#SVGID_21_)" d="M442.007,226.598c-0.599-0.223-0.9-0.89-0.677-1.488c0.227-0.599,0.891-0.902,1.489-0.677
		c0.597,0.226,0.899,0.892,0.675,1.489C443.271,226.522,442.604,226.824,442.007,226.598z"/>
</g>
<g>
	
		<image overflow="visible" opacity="0.3" enable-background="new    " width="133" height="177" xlink:href="E085E9ECEB0F3C3D.png"  transform="matrix(0.9925 0 0 0.9944 68.4268 163.9272)">
	</image>
	<g>
		
			<linearGradient id="SVGID_22_" gradientUnits="userSpaceOnUse" x1="550.9268" y1="985.2568" x2="446.3564" y2="985.2568" gradientTransform="matrix(1 0 0 -1 -364.5 1234)">
			<stop  offset="0" style="stop-color:#41454D"/>
			<stop  offset="0.4837" style="stop-color:#4D5057"/>
			<stop  offset="0.6733" style="stop-color:#494C53"/>
			<stop  offset="0.8728" style="stop-color:#3C4047"/>
			<stop  offset="1" style="stop-color:#30343B"/>
		</linearGradient>
		<path fill="url(#SVGID_22_)" d="M186.431,184.245c0,0-9.312-6.643-30.255-8.894c-20.948-2.25-74.315,1.656-74.315,1.656v140.755
			c0,0,53.367-3.907,74.315-1.656c20.942,2.251,30.255,6.736,30.255,6.736"/>
	</g>
</g>
<g>
	
		<linearGradient id="SVGID_23_" gradientUnits="userSpaceOnUse" x1="454.4629" y1="986.1953" x2="542.8281" y2="986.1953" gradientTransform="matrix(1 0 0 -1 -364.5 1234)">
		<stop  offset="0" style="stop-color:#35383C"/>
		<stop  offset="1" style="stop-color:#3C3F46"/>
	</linearGradient>
	<path fill="url(#SVGID_23_)" d="M178.328,193.463c0,0-7.869-5.613-25.568-7.513c-17.701-1.903-62.797,1.399-62.797,1.399v118.94
		c0,0,45.096-3.301,62.797-1.398c17.699,1.9,25.568,5.358,25.568,5.358"/>
</g>
<g>
	
		<image overflow="visible" opacity="0.3" enable-background="new    " width="136" height="177" xlink:href="E085E9ECEB0F3C3F.png"  transform="matrix(0.9926 0 0 0.9944 172.4272 163.9268)">
	</image>
	<g>
		
			<linearGradient id="SVGID_24_" gradientUnits="userSpaceOnUse" x1="657.999" y1="985.2793" x2="550.9307" y2="985.2793" gradientTransform="matrix(1 0 0 -1 -364.5 1234)">
			<stop  offset="0" style="stop-color:#41454D"/>
			<stop  offset="0.4837" style="stop-color:#4D5057"/>
			<stop  offset="0.6733" style="stop-color:#494C53"/>
			<stop  offset="0.8728" style="stop-color:#3C4047"/>
			<stop  offset="1" style="stop-color:#30343B"/>
		</linearGradient>
		<path fill="url(#SVGID_24_)" d="M186.431,184.245c0,0,21.698-7.301,43.292-9.236c21.592-1.938,63.777,3.677,63.777,3.677v140.755
			c0,0-42.186-5.616-63.777-3.679c-21.594,1.937-43.292,7.079-43.292,7.079"/>
	</g>
</g>
<g>
	
		<linearGradient id="SVGID_25_" gradientUnits="userSpaceOnUse" x1="557.6992" y1="1024.834" x2="646.5107" y2="1024.834" gradientTransform="matrix(1 0 0 -1 -364.5 1234)">
		<stop  offset="0" style="stop-color:#35383C"/>
		<stop  offset="1" style="stop-color:#3C3F46"/>
	</linearGradient>
	<path fill="url(#SVGID_25_)" d="M193.199,191.927c8.34-2.248,20.717-5.107,33.06-6.214c15.749-1.413,42.452,1.193,55.752,2.706
		l-0.261,41.167c-13.388-1.519-37.958-3.896-55.491-2.676c-17.532,1.22-24.368,3.886-32.701,6.116L193.199,191.927z"/>
</g>
<linearGradient id="SVGID_26_" gradientUnits="userSpaceOnUse" x1="557.4297" y1="962.3457" x2="646.2412" y2="962.3457" gradientTransform="matrix(1 0 0 -1 -364.5 1234)">
	<stop  offset="0" style="stop-color:#35383C"/>
	<stop  offset="1" style="stop-color:#3C3F46"/>
</linearGradient>
<path fill="url(#SVGID_26_)" d="M192.929,241.049c8.341-2.246,15.475-5.435,33.061-6.213c17.585-0.777,42.45,1.193,55.751,2.706
	l-0.261,69.823c-13.388-1.52-39.845-4.082-55.49-2.677c-12.168,1.091-24.369,1.729-32.701,3.96L192.929,241.049z"/>
<path fill="#42454D" d="M159.477,281.15c0.006-1.17-0.734-4.094,0.435-7.018c1.169-2.924,6.433-10.527,1.754-19.884
	c-5.368-10.739-18.413-10.528-23.677-7.604c-5.264,2.926-8.773,5.264-9.943,10.527c0,0-0.943,3.301-1.169,4.528
	c-0.236,1.286-0.435,3.394,0.226,4.053c0.659,0.659,0.943,1.211,0.943,1.211s-0.284,3.408-0.943,4.729
	c-0.371,0.74-2.641,3.959-2.641,5.938c0,1.476,4.62,1.981,4.62,1.981s0.134,2.861-0.45,2.861c-0.586,0,1.771,1.102,1.771,1.102
	l-0.66,1.322c0,0,0,1.326,0.66,1.326c1.17,0,2.323,0.949,2.323,1.535c0,0.584-0.607,1.535,0.317,2.462
	c0.658,0.659,2.13,1.37,3.3,1.37c1.17,0,6.323-2.057,7.494-2.057c1.17,0,1.754,6.33,1.754,6.33
	c-4.054-0.563-12.207,6.783-14.119,8.566c9.285-0.283,18.506-0.322,24.367,0.309c15.104,1.624,21.662,4.616,21.662,4.616V295.45
	l-12.33-2.64C165.17,292.813,159.441,286.873,159.477,281.15z"/>
<path fill="#2B2D32" d="M126.441,250.572c-2.175,5.436,1.941,10.732,4.619,15.181c0.373-1.362,1.271-2.016,1.365-3.462
	c1.152,2.996,4.845,5.787,7.853,6.689c0.161-1.336-1.179-3.08-1.093-4.144c1.121,2.04,4.53,4.95,6.802,5.118
	c0.056,2.783,0.532,3.578,3.312,3.465c0.397-1.53-0.141-3.794,0.989-4.983c1.562-1.647,5.321-1.708,6.352-0.007
	c1.489,2.453,0.376,7.838-1.633,9.422c1.471,1.232,0.972,3.676,2.278,4.566c1.901,1.295,3.111-2.664,3.694-3.684
	c1.76-3.082,9.02-19.582,2.419-27.501c-6.6-7.92-15.179-9.239-19.138-8.579C140.302,243.313,127.761,247.273,126.441,250.572z"/>
<path fill="#42454D" d="M274.898,219.715c0.004-0.437-0.272-1.527,0.163-2.618c0.437-1.09,2.399-3.924,0.653-7.415
	c-2.001-4-6.863-3.923-8.826-2.833c-1.963,1.09-3.271,1.962-3.707,3.924c0,0-0.352,1.231-0.438,1.687
	c-0.088,0.481-0.162,1.268,0.086,1.512c0.245,0.247,0.352,0.452,0.352,0.452s-0.106,1.271-0.352,1.763
	c-0.139,0.276-0.984,1.476-0.984,2.215c0,0.55,1.723,0.738,1.723,0.738s0.05,1.066-0.169,1.066c-0.218,0,0.66,0.411,0.66,0.411
	l-0.245,0.494c0,0,0,0.495,0.245,0.495c0.437,0,0.866,0.352,0.866,0.57c0,0.218-0.227,0.574,0.118,0.919
	c0.245,0.246,0.794,0.51,1.23,0.51s2.357-0.766,2.794-0.766c0.436,0,0.654,2.359,0.654,2.359c-1.512-0.21-4.564,2.014-5.277,2.678
	c3.436,0.203,6.977,0.621,9.162,0.855c5.168,0.551,8.129,0.862,8.129,0.862v-4.55l-4.656-0.984
	C277.08,224.062,274.885,221.848,274.898,219.715z"/>
<path fill="#2B2D32" d="M262.582,208.313c-0.809,2.027,0.725,4.002,1.724,5.659c0.138-0.507,0.474-0.75,0.509-1.29
	c0.43,1.117,1.805,2.158,2.928,2.494c0.059-0.497-0.441-1.148-0.408-1.543c0.42,0.759,1.688,1.845,2.536,1.905
	c0.02,1.039,0.198,1.335,1.234,1.292c0.149-0.57-0.051-1.412,0.369-1.858c0.582-0.614,1.985-0.636,2.368-0.002
	c0.555,0.915,0.141,2.923-0.608,3.514c0.548,0.459,0.363,1.369,0.85,1.701c0.708,0.483,1.159-0.994,1.377-1.375
	c0.656-1.148,3.363-7.299,0.903-10.252c-2.462-2.953-5.66-3.445-7.136-3.199C267.749,205.607,263.075,207.085,262.582,208.313z"/>
<path fill="#575B66" d="M125.582,198.571c15.912,0,28.811,7.615,28.811,17.003c0,5.99-5.25,11.25-13.178,14.28l0.27,7.763
	l-6.474-5.975c-2.956,0.604-6.126,0.937-9.429,0.937c-15.914,0-28.814-7.613-28.814-17.005
	C96.768,206.186,109.668,198.571,125.582,198.571z"/>
<path fill="#42454D" d="M219.851,201.338c-0.36-1.438,0-3.232-5.163-5.584c-3.888-1.77-9.678-1.747-12.974,2.866
	c-3.183,4.459,0,11.464,0.954,12.739c0.957,1.272,0.557,5.094,0.557,5.094s-2.486,3.966-5.352,4.287
	c-1.305,0.144-4.373,4.311-4.373,4.311v7.962c7-1.638,11.49-3.508,20.836-4.864c0,0,0.199-1.66,0.199-3.158
	c0-1.497-3.486-3.317-3.805-3.636c-0.32-0.319,2.203-3.489,2.203-4.125s1.695-0.271,2.242-0.092
	c0.676,0.224,2.543,1.261,3.595,0.363c0.541-0.462,0.694-1.45,0.694-2.086c0-0.638,0.637-0.996,0.637-0.996s0.636,0.001,0.636-0.636
	c0-0.638-0.169-0.588-0.169-0.588s0.4-0.041,0.719-0.358c0.319-0.32-0.785-1.919-0.148-1.919c0.637,0,1.593-0.603,1.586-1.315
	c-0.007-0.76-2.516-2.155-2.541-4.457C220.177,204.506,220.111,202.381,219.851,201.338z"/>
<path fill="#575B66" d="M207.275,193.793c-6.468-0.359-8.263,7.185-9.34,11.138c-1.079,3.951-0.36,16.168-0.36,16.168
	s2.875-1.799,5.03-1.799c2.154,0,1.795,1.439,1.795,1.439l0.721,9.16c2.076-0.489,4.348-0.958,6.939-1.39
	c-0.314-4.82-0.703-11.822-0.475-13.879c0.36-3.233,6.469-12.575,7.186-13.652c0.719-1.078,1.56-2.988,1.079-3.952
	C219.131,195.59,213.744,194.15,207.275,193.793z"/>
<path fill="#575B66" d="M239.61,193.913c-6.812,0-12.335,3.538-12.335,7.904c0,1.482,0.638,2.869,1.746,4.054l-2.225,2.892
	l5.094-0.784c2.113,1.09,4.798,1.742,7.72,1.742c6.812,0,12.338-3.539,12.338-7.903C251.948,197.451,246.422,193.913,239.61,193.913
	z"/>
<polygon fill="#575B66" points="270.977,261.139 263.941,264.46 269.899,269.473 262.095,268.646 265.549,275.685 258.363,272.492 
	260.048,280.165 253.613,275.638 254.012,283.492 248.302,278.08 247.665,285.92 242.656,279.85 241.113,287.566 236.818,280.974 
	234.422,288.469 230.92,281.424 227.624,288.57 225.079,281.129 220.784,287.721 219.498,279.97 214.006,285.601 214.603,277.781 
	207.662,281.445 211.34,274.582 203.574,274.11 210.608,270.787 204.649,265.775 212.455,266.602 208.999,259.564 216.188,262.757 
	214.504,255.083 220.938,259.611 220.537,251.757 226.248,257.17 226.886,249.329 231.894,255.398 233.437,247.684 237.73,254.275 
	240.129,246.78 243.632,253.824 246.928,246.68 249.473,254.121 253.766,247.529 255.052,255.28 260.543,249.648 259.947,257.467 
	266.889,253.805 263.212,260.666 "/>
<g>
	
		<linearGradient id="SVGID_27_" gradientUnits="userSpaceOnUse" x1="590.5459" y1="964.1777" x2="595.9316" y2="964.1777" gradientTransform="matrix(1 0 0 -1 -364.5 1234)">
		<stop  offset="0" style="stop-color:#35383C"/>
		<stop  offset="1" style="stop-color:#3C3F46"/>
	</linearGradient>
	<path fill="url(#SVGID_27_)" d="M228.767,275.664l-0.524,0.102l-2.197-11.416l2.05-0.393c0.915-0.176,1.634-0.057,2.159,0.357
		s0.881,1.117,1.073,2.111c0.19,0.994,0.12,1.779-0.214,2.361c-0.333,0.577-0.958,0.955-1.872,1.131l-1.523,0.293L228.767,275.664z
		 M227.615,269.687l1.525-0.292c0.746-0.144,1.251-0.44,1.515-0.89c0.253-0.458,0.295-1.117,0.13-1.975
		c-0.171-0.88-0.455-1.478-0.854-1.792c-0.399-0.318-0.979-0.401-1.735-0.256l-1.524,0.294L227.615,269.687z"/>
	
		<linearGradient id="SVGID_28_" gradientUnits="userSpaceOnUse" x1="596.7578" y1="965.5166" x2="602.873" y2="965.5166" gradientTransform="matrix(1 0 0 -1 -364.5 1234)">
		<stop  offset="0" style="stop-color:#35383C"/>
		<stop  offset="1" style="stop-color:#3C3F46"/>
	</linearGradient>
	<path fill="url(#SVGID_28_)" d="M236.404,274.195c-0.271,0.052-0.557,0.066-0.861,0.042c-0.301-0.022-0.595-0.125-0.876-0.308
		c-0.278-0.178-0.531-0.449-0.752-0.809c-0.223-0.363-0.395-0.858-0.515-1.492l-1.034-5.369c-0.187-0.969-0.133-1.752,0.163-2.348
		c0.318-0.601,0.877-0.977,1.678-1.132c0.814-0.156,1.475-0.015,1.98,0.428c0.505,0.429,0.851,1.136,1.039,2.118l1.033,5.369
		c0.123,0.631,0.146,1.154,0.074,1.574c-0.07,0.418-0.203,0.764-0.396,1.034c-0.195,0.271-0.428,0.474-0.7,0.607
		C236.965,274.047,236.686,274.141,236.404,274.195z M234.309,263.307c-0.645,0.123-1.074,0.41-1.29,0.861
		c-0.249,0.482-0.291,1.145-0.128,1.992l1.033,5.369c0.166,0.856,0.453,1.463,0.859,1.819c0.381,0.335,0.887,0.444,1.52,0.32
		c0.621-0.119,1.059-0.407,1.31-0.866c0.239-0.455,0.274-1.122,0.106-2.004l-1.035-5.369c-0.166-0.869-0.445-1.472-0.838-1.805
		C235.453,263.29,234.94,263.185,234.309,263.307z"/>
	
		<linearGradient id="SVGID_29_" gradientUnits="userSpaceOnUse" x1="602.1445" y1="967.4023" x2="612.3906" y2="967.4023" gradientTransform="matrix(1 0 0 -1 -364.5 1234)">
		<stop  offset="0" style="stop-color:#35383C"/>
		<stop  offset="1" style="stop-color:#3C3F46"/>
	</linearGradient>
	<path fill="url(#SVGID_29_)" d="M247.891,260.148l-0.293,11.893l-0.439,0.084l-4.092-9.486l-0.278,10.326l-0.423,0.082
		l-4.721-10.928l0.543-0.104l4.107,9.482l0.277-10.326l0.424-0.081l4.092,9.485l0.244-10.32L247.891,260.148z"/>
</g>
<g>
	
		<image overflow="visible" opacity="0.1" enable-background="new    " width="81" height="96" xlink:href="E085E9ECEB0F3C22.png"  transform="matrix(0.9877 0 0 0.9896 504.7461 1170.748)">
	</image>
	<g>
		<g>
			<g>
				<g>
					<path fill="#575B66" d="M532,1249.03c0,0.606-0.315,0.97-0.923,0.97h-2.512c-0.607,0-1.138-0.429-1.176-1.034l-0.779-12.009
						c-0.038-0.605,0.427-0.957,1.033-0.957h3.434c0.606,0,0.923,0.273,0.923,0.882V1249.03L532,1249.03z"/>
				</g>
				<g>
					<path fill="#575B66" d="M560.476,1248.966c-0.038,0.605-0.566,1.034-1.175,1.034h-2.513c-0.607,0-0.788-0.362-0.788-0.97
						v-12.148c0-0.606,0.181-0.882,0.788-0.882h3.434c0.607,0,1.072,0.353,1.034,0.957L560.476,1248.966z"/>
				</g>
			</g>
			<circle fill="#575B66" cx="544.171" cy="1217.039" r="25.99"/>
			<g>
				<g>
					<path fill="#575B66" d="M556,1184.977c0-0.606,0.181-0.977,0.788-0.977h2.513c0.607,0,1.138,0.432,1.175,1.039l0.78,12.007
						c0.038,0.604-0.427,0.954-1.034,0.954h-3.434c-0.607,0-0.788-0.268-0.788-0.874V1184.977z"/>
				</g>
				<g>
					<path fill="#575B66" d="M527.391,1185.039c0.038-0.607,0.567-1.039,1.176-1.039h2.512c0.606,0,0.923,0.369,0.923,0.977v12.149
						c0,0.607-0.315,0.874-0.923,0.874h-3.434c-0.606,0-1.071-0.349-1.033-0.954L527.391,1185.039z"/>
				</g>
			</g>
			<rect x="529.301" y="1183.872" fill="#575B66" width="28.162" height="5.521"/>
			<rect x="529.301" y="1244.613" fill="#575B66" width="28.162" height="5.521"/>
		</g>
	</g>
</g>
<g>
	
		<image overflow="visible" opacity="0.1" enable-background="new    " width="53" height="56" xlink:href="E085E9ECEB0F3C21.png"  transform="matrix(1.1251 0 0 1.1262 514.6289 1052)">
	</image>
	<g>
		<path fill="#575B66" d="M555,1069v26h-23v-26H555 M556.909,1065h-25.952c-1.215,0-1.957,1.23-1.957,2.444v29.269
			c0,1.214,0.742,2.287,1.957,2.287h25.952c1.214,0,2.091-1.073,2.091-2.287v-29.269C559,1066.23,558.123,1065,556.909,1065
			L556.909,1065z"/>
	</g>
</g>
<circle fill="#74777F" cx="544.17" cy="1217.039" r="21.996"/>
<g>
	
		<image overflow="visible" opacity="0.1" enable-background="new    " width="52" height="155" xlink:href="E085E9ECEB0F3C26.png"  transform="matrix(0.9808 0 0 0.9935 518.748 1231.7471)">
	</image>
	<g>
		<path fill="#41444D" d="M555,1358.914c0,1.215-0.605,2.882-1.5,3.704l-8.096,7.502c-0.896,0.821-2.321,0.815-3.209-0.013
			l-7.791-7.478c-0.888-0.829-1.404-2.502-1.404-3.717V1246.27c0-1.215,0.607-2.27,1.822-2.27h18.221
			c1.215,0,1.957,1.055,1.957,2.27V1358.914z"/>
	</g>
</g>
<g>
	
		<image overflow="visible" opacity="0.1" enable-background="new    " width="52" height="129" xlink:href="E085E9ECEB0F3C20.png"  transform="matrix(0.9808 0 0 0.9922 518.748 1078.748)">
	</image>
	<g>
		<path fill="#41444D" d="M556,1188.791c0,1.22-0.989,2.209-2.209,2.209h-18.582c-1.22,0-2.209-0.989-2.209-2.209v-95.582
			c0-1.22,0.989-2.209,2.209-2.209h18.582c1.22,0,2.209,0.989,2.209,2.209V1188.791z"/>
	</g>
</g>
<rect x="549.454" y="1201.54" transform="matrix(-0.7598 -0.6502 0.6502 -0.7598 180.8797 2487.583)" fill="#3F4146" width="1.105" height="17.671"/>
<rect x="538.107" y="1213.411" transform="matrix(-0.2789 -0.9603 0.9603 -0.2789 -481.394 2075.8418)" fill="#3F4146" width="1.106" height="10.49"/>
<circle fill="#3F4146" cx="544.172" cy="1217.039" r="1.748"/>
<circle fill="#2B2D32" cx="544.17" cy="1325.819" r="1.104"/>
<circle fill="#2B2D32" cx="544.17" cy="1332.447" r="1.104"/>
<circle fill="#2B2D32" cx="544.17" cy="1339.626" r="1.104"/>
<circle fill="#2B2D32" cx="544.17" cy="1346.253" r="1.104"/>
<g>
	<rect x="531" y="1080" fill="#575B66" width="27" height="2"/>
</g>
<g>
	<path fill="#575B66" d="M544,1082.453c-0.635,0-1-0.513-1-1.146v-13.761c0-0.634,0.365-1.146,1-1.146c0.633,0,1,0.513,1,1.146
		v13.761C545,1081.939,544.633,1082.453,544,1082.453z"/>
</g>
<g>
	<circle fill="#F1F1F1" cx="82.684" cy="41.241" r="14.342"/>
	<path fill="#F1F1F1" d="M174.251,35.708c0-12.438-1.903-24.432-5.429-35.708H0v92h160.182
		C169.156,75.225,174.251,56.062,174.251,35.708z M110.445,72.433c-0.754,0.754-1.943,0.757-2.696,0.003l-8.853-9.672
		c-0.547-0.547-0.788-1.249-0.415-2.057l-4.486-4.485c-7.364,5.632-17.833,5.06-24.519-1.626
		c-7.286-7.287-7.311-19.077-0.023-26.363c7.287-7.287,19.117-7.304,26.404-0.017c6.753,6.753,7.23,17.405,1.512,24.683l4.459,4.46
		c0.613-0.176,1.436-0.076,1.982,0.472l9.633,8.911c0.754,0.754,0.736,1.958-0.02,2.713L110.445,72.433z"/>
	<path fill="#CB2027" d="M160.182,92H0v4h157.939C158.711,94.682,159.459,93.349,160.182,92z"/>
	<path fill="#E2E2E2" d="M157.939,96H0v45.951c16.402,8.47,35.017,13.258,54.751,13.258C98.758,155.209,137.201,131.417,157.939,96z
		"/>
	<g>
		<path fill="#B7B7B7" d="M113.443,66.741l-9.633-8.911c-0.547-0.547-1.369-0.647-1.982-0.472l-4.459-4.46
			c5.719-7.278,5.241-17.93-1.512-24.683c-7.287-7.287-19.117-7.27-26.404,0.017c-7.287,7.286-7.263,19.076,0.023,26.363
			c6.686,6.686,17.154,7.258,24.519,1.626l4.486,4.485c-0.373,0.809-0.132,1.51,0.415,2.057l8.853,9.672
			c0.753,0.754,1.942,0.751,2.696-0.003l2.979-2.979C114.18,68.699,114.197,67.495,113.443,66.741z M82.684,55.583
			c-7.92,0-14.342-6.421-14.342-14.343c0-7.92,6.422-14.342,14.342-14.342c7.922,0,14.344,6.421,14.344,14.342
			C97.027,49.162,90.605,55.583,82.684,55.583z"/>
	</g>
</g>
</svg>
