<?xml version="1.0" encoding="utf-8"?>
<!-- Generator: Adobe Illustrator 16.0.0, SVG Export Plug-In . SVG Version: 6.00 Build 0)  -->
<!DOCTYPE svg PUBLIC "-//W3C//DTD SVG 1.1//EN" "http://www.w3.org/Graphics/SVG/1.1/DTD/svg11.dtd">
<svg version="1.1" id="Layer_1" xmlns="http://www.w3.org/2000/svg" xmlns:xlink="http://www.w3.org/1999/xlink" x="0px" y="0px"
	 width="720px" height="1400px" viewBox="0 0 720 1400" enable-background="new 0 0 720 1400" xml:space="preserve">
<rect fill="#2B2D32" width="720" height="1400"/>
<linearGradient id="SVGID_1_" gradientUnits="userSpaceOnUse" x1="360" y1="490.1987" x2="360" y2="1509.0005" gradientTransform="matrix(1 0 0 -1 0 1509)">
	<stop  offset="0.735" style="stop-color:#191B1E"/>
	<stop  offset="0.8353" style="stop-color:#202124"/>
</linearGradient>
<rect fill="url(#SVGID_1_)" width="720" height="1018.802"/>
<path fill="#3F4146" d="M696,1367c0,4.4-3.6,8-8,8H32c-4.4,0-8-3.6-8-8V32c0-4.4,3.6-8,8-8h656c4.4,0,8,3.6,8,8V1367z"/>
<linearGradient id="SVGID_2_" gradientUnits="userSpaceOnUse" x1="24" y1="1297" x2="696" y2="1297" gradientTransform="matrix(1 0 0 -1 0 1509)">
	<stop  offset="0.735" style="stop-color:#191B1E"/>
	<stop  offset="0.8353" style="stop-color:#202124"/>
</linearGradient>
<path fill="url(#SVGID_2_)" d="M556.23,111c-32.154,23.465-71.771,37.325-114.627,37.325c-42.865,0-82.482-13.86-114.638-37.325
	H196.543c3.243,10.074,9.877,23.832,22.311,42.818c26.338,40.197,51.352,60.38,63.634,82.179
	c12.271,21.804,3.558,32.569,0.18,34.632c-3.355,2.071-16.912,4.983-30.788-15.84c-13.895-20.821-20.572-52.25-44.506-93.934
	c-20.986-36.54-34.971-47.107-43.734-49.855H24v202h672V111H556.23z"/>
<g>
	
		<image overflow="visible" opacity="0.1" enable-background="new    " width="274" height="82" xlink:href="ED4A8B819397899E.png"  transform="matrix(0.9964 0 0 0.9878 305.0527 91.0527)">
	</image>
	<g>
		<path fill="#2B2D32" d="M556.23,111H326.967c32.154,23.465,71.771,37.325,114.639,37.325
			C484.461,148.325,524.076,134.465,556.23,111z"/>
	</g>
</g>
<g>
	
		<image overflow="visible" opacity="0.1" enable-background="new    " width="169" height="205" xlink:href="ED4A8B81939789A2.png"  transform="matrix(0.9941 0 0 0.9951 142.0532 91.0527)">
	</image>
	<g>
		<path fill="#3F4146" d="M207.373,160.855c23.934,41.684,30.611,73.113,44.506,93.934c13.876,20.823,27.433,17.911,30.788,15.84
			c3.378-2.062,12.091-12.828-0.18-34.632c-12.282-21.798-37.296-41.982-63.634-82.179c-12.434-18.987-19.067-32.744-22.311-42.818
			h-32.904C172.402,113.748,186.387,124.315,207.373,160.855z"/>
	</g>
</g>
<g>
	<path fill="#FFFFFF" d="M351.199,394.225c1.029,0,1.784-0.409,2.263-1.229c0.479-0.82,0.718-1.9,0.718-3.24v-0.287
		c0-1.312-0.24-2.384-0.725-3.213s-1.244-1.244-2.283-1.244c-1.03,0-1.784,0.417-2.263,1.251c-0.479,0.834-0.718,1.902-0.718,3.206
		v0.287c0,1.349,0.236,2.433,0.711,3.247C349.376,393.817,350.142,394.225,351.199,394.225z"/>
	<path fill="#FFFFFF" d="M235.781,388.1v-0.301c0-0.866-0.178-1.547-0.533-2.044s-0.93-0.745-1.723-0.745
		c-0.802,0-1.42,0.275-1.853,0.827s-0.695,1.283-0.786,2.194l0.027,0.067L235.781,388.1L235.781,388.1z"/>
	<path fill="#FFFFFF" d="M364.522,391.148c-0.434,0.419-0.649,0.935-0.649,1.545c0,0.501,0.162,0.899,0.485,1.195
		c0.322,0.297,0.771,0.444,1.347,0.444c0.691,0,1.312-0.173,1.859-0.52c0.547-0.348,0.921-0.747,1.12-1.203v-2.093h-2.241
		C365.596,390.52,364.955,390.729,364.522,391.148z"/>
	<path fill="#FFFFFF" d="M334.021,393.828c0.433,0.237,0.964,0.354,1.593,0.354c1.029,0,1.75-0.361,2.16-1.087
		c0.409-0.725,0.614-1.752,0.614-3.083v-0.287c0-1.439-0.212-2.582-0.636-3.425s-1.146-1.265-2.167-1.265
		c-0.62,0-1.144,0.13-1.572,0.39c-0.428,0.26-0.766,0.631-1.012,1.114v6.262C333.248,393.249,333.588,393.591,334.021,393.828z"/>
	<path fill="#FFFFFF" d="M252.878,391.148c-0.433,0.419-0.649,0.935-0.649,1.545c0,0.501,0.162,0.899,0.485,1.195
		c0.323,0.297,0.772,0.444,1.347,0.444c0.692,0,1.312-0.173,1.859-0.52c0.547-0.348,0.921-0.747,1.121-1.203v-2.093h-2.242
		C253.951,390.52,253.311,390.729,252.878,391.148z"/>
	<path fill="#FFFFFF" d="M391.422,394.184c0.574,0,1.075-0.115,1.504-0.349c0.43-0.233,0.779-0.572,1.053-1.019v-6.304
		c-0.272-0.465-0.621-0.827-1.046-1.087c-0.424-0.26-0.918-0.39-1.482-0.39c-0.977,0-1.688,0.433-2.141,1.299
		c-0.451,0.866-0.677,1.996-0.677,3.391v0.287c0,1.294,0.219,2.312,0.656,3.057C389.726,393.812,390.438,394.184,391.422,394.184z"
		/>
	<path fill="#FFFFFF" d="M196.352,388.1v-0.301c0-0.866-0.178-1.547-0.533-2.044s-0.93-0.745-1.723-0.745
		c-0.802,0-1.42,0.275-1.853,0.827c-0.433,0.552-0.695,1.283-0.786,2.194l0.027,0.067L196.352,388.1L196.352,388.1z"/>
	<path fill="#FFFFFF" d="M259,543c61.854,0,115.8-33.834,144.357-84H114.643C143.2,509.166,197.146,543,259,543z"/>
	<path fill="#FFFFFF" d="M292.957,385.01c-0.802,0-1.42,0.275-1.853,0.827s-0.695,1.283-0.786,2.194l0.027,0.067h4.867v-0.301
		c0-0.866-0.178-1.547-0.533-2.044S293.75,385.01,292.957,385.01z"/>
	<path fill="#FFFFFF" d="M136,345v80h-35.942c3.382,11.213,7.915,21.926,13.467,32h290.951C417.552,433.272,425,406.008,425,377
		c0-22.688-4.556-44.302-12.794-64H105.794c-4.263,10.19-7.532,20.897-9.7,32H136z M299.123,390.738h-8.818l-0.041,0.082
		c0.063,1.012,0.371,1.832,0.923,2.461s1.369,0.942,2.454,0.942c0.894,0,1.652-0.091,2.276-0.272c0.624-0.183,1.27-0.46,1.935-0.834
		l1.08,2.461c-0.593,0.482-1.395,0.889-2.406,1.217c-1.011,0.328-2.114,0.492-3.309,0.492c-2.206,0-3.929-0.677-5.168-2.03
		c-1.239-1.353-1.859-3.097-1.859-5.229v-0.547c0-2.216,0.602-4.028,1.805-5.441s2.857-2.114,4.963-2.105
		c1.987,0,3.512,0.608,4.573,1.825c1.061,1.217,1.593,2.855,1.593,4.915L299.123,390.738L299.123,390.738z M316.309,397h-3.336
		l-2.748-8.531h-0.082L307.395,397h-3.321l-3.76-14.793h3.883l1.818,9.256h0.082l2.763-9.256h2.666l2.788,9.297h0.082l1.791-9.297
		h3.884L316.309,397z M384.654,389.727c0-2.333,0.504-4.216,1.511-5.646c1.007-1.43,2.427-2.146,4.259-2.146
		c0.738,0,1.403,0.159,1.996,0.479c0.593,0.32,1.112,0.774,1.559,1.367v-8.107h4.007V397h-3.404l-0.342-1.818
		c-0.465,0.685-1.018,1.205-1.654,1.565s-1.367,0.54-2.188,0.54c-1.813,0-3.226-0.665-4.231-1.996s-1.511-3.09-1.511-5.277
		L384.654,389.727L384.654,389.727z M375.672,382.207h3.705l0.178,2.188c0.348-0.773,0.795-1.378,1.348-1.812
		c0.552-0.433,1.188-0.649,1.906-0.649c0.2,0,0.386,0.016,0.555,0.048c0.169,0.032,0.34,0.07,0.513,0.116l-0.424,3.541l-1.463-0.041
		c-0.594,0-1.08,0.123-1.463,0.369c-0.384,0.246-0.676,0.593-0.875,1.039V397h-3.979V382.207L375.672,382.207z M368.125,385.434
		c-0.374-0.392-0.93-0.588-1.668-0.588c-0.647,0-1.146,0.157-1.497,0.473c-0.351,0.314-0.526,0.744-0.526,1.292h-3.842l-0.026-0.082
		c-0.063-1.249,0.479-2.326,1.634-3.233c1.153-0.907,2.659-1.36,4.519-1.36c1.777,0,3.215,0.446,4.313,1.34
		c1.098,0.894,1.646,2.174,1.646,3.842v6.11c0,0.692,0.054,1.346,0.157,1.955c0.104,0.61,0.271,1.218,0.499,1.818h-3.979
		c-0.146-0.337-0.271-0.692-0.377-1.066c-0.104-0.374-0.18-0.757-0.226-1.147c-0.41,0.72-0.952,1.316-1.627,1.791
		c-0.675,0.474-1.477,0.711-2.406,0.711c-1.55,0-2.743-0.398-3.582-1.196s-1.258-1.885-1.258-3.261c0-1.449,0.559-2.572,1.675-3.37
		s2.746-1.196,4.889-1.196h2.241v-1.176C368.686,386.377,368.499,385.825,368.125,385.434z M344.213,389.467
		c0-2.206,0.615-4.013,1.846-5.421c1.231-1.408,2.936-2.112,5.113-2.112c2.188,0,3.901,0.702,5.142,2.105
		c1.239,1.403,1.858,3.213,1.858,5.428v0.287c0,2.225-0.617,4.035-1.853,5.436c-1.236,1.399-2.941,2.099-5.12,2.099
		c-2.188,0-3.898-0.699-5.134-2.099c-1.236-1.4-1.854-3.211-1.854-5.436L344.213,389.467L344.213,389.467z M329.023,375.672h3.979
		v8.107c0.429-0.593,0.941-1.048,1.538-1.367c0.597-0.319,1.283-0.479,2.058-0.479c1.878,0,3.31,0.709,4.293,2.125
		c0.984,1.417,1.478,3.308,1.478,5.667v0.287c0,2.206-0.492,3.971-1.478,5.291c-0.984,1.321-2.405,1.982-4.266,1.982
		c-0.866,0-1.62-0.184-2.263-0.547c-0.644-0.364-1.188-0.897-1.634-1.601L332.4,397h-3.377V375.672L329.023,375.672z
		 M279.066,381.934c1.495,0,2.661,0.48,3.5,1.442s1.258,2.481,1.258,4.56V397h-4.006v-9.051c0-1.059-0.185-1.808-0.554-2.249
		c-0.369-0.442-0.923-0.663-1.661-0.663c-0.593,0-1.114,0.111-1.565,0.335c-0.451,0.224-0.822,0.531-1.114,0.923V397h-3.992v-14.793
		h3.719l0.178,2.119c0.492-0.757,1.099-1.345,1.818-1.764S278.173,381.934,279.066,381.934z M261.033,387.115v6.11
		c0,0.692,0.053,1.346,0.157,1.955c0.104,0.61,0.271,1.218,0.499,1.818h-3.979c-0.146-0.337-0.271-0.692-0.376-1.066
		s-0.18-0.757-0.226-1.147c-0.41,0.72-0.952,1.316-1.627,1.791c-0.675,0.474-1.477,0.711-2.406,0.711
		c-1.55,0-2.743-0.398-3.582-1.196c-0.839-0.798-1.258-1.885-1.258-3.261c0-1.449,0.559-2.572,1.675-3.37
		c1.116-0.798,2.746-1.196,4.888-1.196h2.242v-1.176c0-0.711-0.187-1.263-0.561-1.654c-0.374-0.391-0.93-0.588-1.668-0.588
		c-0.647,0-1.146,0.157-1.497,0.473c-0.351,0.314-0.526,0.744-0.526,1.292h-3.842l-0.027-0.082c-0.063-1.249,0.48-2.326,1.634-3.233
		c1.154-0.907,2.659-1.36,4.519-1.36c1.777,0,3.215,0.446,4.313,1.34C260.483,384.169,261.033,385.447,261.033,387.115z
		 M238.099,383.759c1.062,1.217,1.593,2.855,1.593,4.915v2.064h-8.818l-0.041,0.082c0.063,1.012,0.371,1.832,0.923,2.461
		c0.552,0.629,1.369,0.942,2.454,0.942c0.894,0,1.652-0.091,2.276-0.272c0.624-0.183,1.27-0.46,1.935-0.834l1.08,2.461
		c-0.593,0.482-1.395,0.889-2.406,1.217c-1.011,0.328-2.114,0.492-3.309,0.492c-2.206,0-3.929-0.677-5.168-2.03
		c-1.239-1.353-1.859-3.097-1.859-5.229v-0.547c0-2.216,0.602-4.028,1.805-5.441s2.857-2.114,4.963-2.105
		C235.513,381.934,237.037,382.542,238.099,383.759z M224.912,382.207v2.803h-2.502v7.533c0,0.574,0.121,0.984,0.362,1.23
		c0.241,0.245,0.559,0.368,0.95,0.368c0.21,0,0.392-0.012,0.547-0.033c0.155-0.022,0.333-0.062,0.533-0.116l0.328,2.885
		c-0.401,0.137-0.791,0.239-1.169,0.308c-0.378,0.069-0.791,0.104-1.237,0.104c-1.376,0-2.436-0.378-3.179-1.135
		s-1.114-1.955-1.114-3.597v-7.547h-2.16v-2.803h2.16v-3.623h3.979v3.623H224.912z M204.151,383.294
		c1.153-0.907,2.659-1.36,4.519-1.36c1.777,0,3.215,0.446,4.313,1.34s1.647,2.174,1.647,3.842v6.11c0,0.692,0.053,1.346,0.157,1.955
		c0.104,0.61,0.271,1.218,0.499,1.818h-3.979c-0.146-0.337-0.271-0.692-0.376-1.066s-0.18-0.757-0.226-1.147
		c-0.41,0.72-0.952,1.316-1.627,1.791c-0.675,0.474-1.477,0.711-2.406,0.711c-1.55,0-2.743-0.398-3.582-1.196
		c-0.839-0.798-1.258-1.885-1.258-3.261c0-1.449,0.559-2.572,1.675-3.37c1.116-0.798,2.746-1.196,4.888-1.196h2.242v-1.176
		c0-0.711-0.187-1.263-0.561-1.654c-0.374-0.391-0.93-0.588-1.668-0.588c-0.647,0-1.146,0.157-1.497,0.473
		c-0.351,0.314-0.526,0.744-0.526,1.292h-3.842l-0.027-0.082C202.454,385.278,202.998,384.201,204.151,383.294z M194.096,381.934
		c1.987,0,3.512,0.608,4.573,1.825s1.593,2.855,1.593,4.915v2.064h-8.818l-0.041,0.082c0.063,1.012,0.371,1.832,0.923,2.461
		c0.552,0.629,1.369,0.942,2.454,0.942c0.894,0,1.652-0.091,2.276-0.272c0.624-0.183,1.27-0.46,1.935-0.834l1.08,2.461
		c-0.593,0.482-1.395,0.889-2.406,1.217c-1.011,0.328-2.114,0.492-3.309,0.492c-2.206,0-3.929-0.677-5.168-2.03
		c-1.239-1.353-1.859-3.097-1.859-5.229v-0.547c0-2.216,0.602-4.028,1.805-5.441C190.337,382.627,191.99,381.925,194.096,381.934z
		 M178.346,382.207h3.705l0.178,2.188c0.347-0.773,0.795-1.378,1.347-1.812c0.552-0.433,1.188-0.649,1.907-0.649
		c0.2,0,0.385,0.016,0.554,0.048c0.169,0.032,0.34,0.07,0.513,0.116l-0.424,3.541l-1.463-0.041c-0.593,0-1.08,0.123-1.463,0.369
		c-0.383,0.246-0.675,0.593-0.875,1.039V397h-3.979V382.207z M160.354,385.078c0-2.425,0.716-4.409,2.146-5.954
		s3.309-2.317,5.633-2.317c2.425,0,4.32,0.593,5.688,1.777c1.368,1.184,2.032,2.853,1.996,5.004l-0.027,0.082h-3.883
		c0-1.276-0.308-2.227-0.923-2.851c-0.615-0.624-1.565-0.937-2.851-0.937c-1.194,0-2.126,0.48-2.796,1.442
		c-0.67,0.962-1.005,2.203-1.005,3.726v3.979c0,1.53,0.354,2.779,1.06,3.746c0.706,0.966,1.688,1.448,2.946,1.448
		c1.194,0,2.085-0.312,2.673-0.937c0.588-0.625,0.882-1.584,0.882-2.878h3.869l0.027,0.082c0.036,2.124-0.61,3.787-1.941,4.99
		c-1.331,1.202-3.167,1.805-5.51,1.805c-2.388,0-4.315-0.769-5.783-2.304c-1.468-1.536-2.201-3.521-2.201-5.954V385.078z"/>
	<path fill="#FFFFFF" d="M206.476,391.148c-0.433,0.419-0.649,0.935-0.649,1.545c0,0.501,0.162,0.899,0.485,1.195
		c0.323,0.297,0.772,0.444,1.347,0.444c0.692,0,1.312-0.173,1.859-0.52c0.547-0.348,0.921-0.747,1.121-1.203v-2.093h-2.242
		C207.549,390.52,206.908,390.729,206.476,391.148z"/>
	<path fill="#D4D4D4" d="M259,211c-68.995,0-128.152,42.095-153.206,102h306.412C387.152,253.095,327.994,211,259,211z"/>
	<path fill="#D4D4D4" d="M136,345H96.094C94.071,355.355,93,366.052,93,377c0,16.691,2.475,32.803,7.058,48H136V345z"/>
	<path fill="#DFDFDF" d="M114.643,459h288.715c0.378-0.663,0.749-1.331,1.117-2H113.524
		C113.893,457.669,114.265,458.337,114.643,459z"/>
</g>
<path fill="#5A5B5D" d="M96.094,345c-1.441,7.375-2.389,14.925-2.821,22.613h6.613v13.613H114.5V390H99.887v13.613h-4.752
	c1.179,7.298,2.828,14.439,4.923,21.387H136v-80H96.094z"/>
</svg>
