<?xml version="1.0" encoding="UTF-8" standalone="no"?>
<!-- Generator: Adobe Illustrator 16.0.0, SVG Export Plug-In . SVG Version: 6.00 Build 0)  -->

<svg
   xmlns:dc="http://purl.org/dc/elements/1.1/"
   xmlns:cc="http://creativecommons.org/ns#"
   xmlns:rdf="http://www.w3.org/1999/02/22-rdf-syntax-ns#"
   xmlns:svg="http://www.w3.org/2000/svg"
   xmlns="http://www.w3.org/2000/svg"
   xmlns:xlink="http://www.w3.org/1999/xlink"
   xmlns:sodipodi="http://sodipodi.sourceforge.net/DTD/sodipodi-0.dtd"
   xmlns:inkscape="http://www.inkscape.org/namespaces/inkscape"
   version="1.1"
   id="Layer_1"
   x="0px"
   y="0px"
   width="720px"
   height="1400px"
   viewBox="0 0 720 1400"
   enable-background="new 0 0 720 1400"
   xml:space="preserve"
   inkscape:version="0.48.4 r9939"
   sodipodi:docname="edu_repin_createboard.svg"><metadata
     id="metadata73"><rdf:RDF><cc:Work
         rdf:about=""><dc:format>image/svg+xml</dc:format><dc:type
           rdf:resource="http://purl.org/dc/dcmitype/StillImage" /></cc:Work></rdf:RDF></metadata><defs
     id="defs71" /><sodipodi:namedview
     pagecolor="#ffffff"
     bordercolor="#666666"
     borderopacity="1"
     objecttolerance="10"
     gridtolerance="10"
     guidetolerance="10"
     inkscape:pageopacity="0"
     inkscape:pageshadow="2"
     inkscape:window-width="1855"
     inkscape:window-height="1251"
     id="namedview69"
     showgrid="false"
     inkscape:zoom="0.95358398"
     inkscape:cx="247.22794"
     inkscape:cy="998.1556"
     inkscape:window-x="65"
     inkscape:window-y="24"
     inkscape:window-maximized="1"
     inkscape:current-layer="Layer_1" /><rect
     fill="#2B2D32"
     width="720"
     height="1400"
     id="rect3" /><linearGradient
     id="SVGID_1_"
     gradientUnits="userSpaceOnUse"
     x1="360"
     y1="490.1987"
     x2="360"
     y2="1509.0005"
     gradientTransform="matrix(1 0 0 -1 0 1509)"><stop
       offset="0.735"
       style="stop-color:#191B1E"
       id="stop6" /><stop
       offset="0.8353"
       style="stop-color:#202124"
       id="stop8" /></linearGradient><rect
     fill="url(#SVGID_1_)"
     width="720"
     height="1018.802"
     id="rect10" /><path
     id="path3068"
     d="m 696,1367 c 0,4.4 -3.6,8 -8,8 H 32 c -4.4,0 -8,-3.6 -8,-8 V 32 c 0,-4.4 3.6,-8 8,-8 h 656 c 4.4,0 8,3.6 8,8 v 1335 z"
     inkscape:connector-curvature="0"
     style="fill:#3f4146" /><path
     id="path3070"
     d="m 696,1376.6398 c 0,4.4 -3.6,8 -8,8 H 32 c -4.4,0 -8,-3.6 -8,-8 V 41.639831 c 0,-4.4 3.6,-8 8,-8 h 656 c 4.4,0 8,3.6 8,8 V 1376.6398 z"
     inkscape:connector-curvature="0"
     style="fill:#3f4146" /><path
     id="path3072"
     d="m 696,1393.6949 c 0,4.4 -3.6,8 -8,8 H 32 c -4.4,0 -8,-3.6 -8,-8 V 58.694915 c 0,-4.4 3.6,-8 8,-8 h 656 c 4.4,0 8,3.6 8,8 V 1393.6949 z"
     inkscape:connector-curvature="0"
     style="fill:#3f4146" /><path
     id="path3074"
     d="m 696,1405.5593 c 0,4.4 -3.6,8 -8,8 H 32 c -4.4,0 -8,-3.6 -8,-8 V 70.559322 c 0,-4.4 3.6,-8 8,-8 h 656 c 4.4,0 8,3.6 8,8 V 1405.5593 z"
     inkscape:connector-curvature="0"
     style="fill:#3f4146" /><path
     id="path3076"
     d="m 696,1423.3559 c 0,4.4 -3.6,8 -8,8 H 32 c -4.4,0 -8,-3.6 -8,-8 V 88.355932 c 0,-4.4 3.6,-8 8,-8 h 656 c 4.4,0 8,3.6 8,8 V 1423.3559 z"
     inkscape:connector-curvature="0"
     style="fill:#3f4146" /><path
     id="path3078"
     d="m 696,1432.2542 c 0,4.4 -3.6,8 -8,8 H 32 c -4.4,0 -8,-3.6 -8,-8 V 97.254237 c 0,-4.4 3.6,-8 8,-8 h 656 c 4.4,0 8,3.6 8,8 V 1432.2542 z"
     inkscape:connector-curvature="0"
     style="fill:#3f4146" /><path
     id="path3080"
     d="m 696,1440.411 c 0,4.4 -3.6,8 -8,8 H 32 c -4.4,0 -8,-3.6 -8,-8 V 105.41102 c 0,-4.4 3.6,-8.000003 8,-8.000003 h 656 c 4.4,0 8,3.600003 8,8.000003 V 1440.411 z"
     inkscape:connector-curvature="0"
     style="fill:#3f4146" /><path
     id="path3082"
     d="m 696,1454.5 c 0,4.4 -3.6,8 -8,8 H 32 c -4.4,0 -8,-3.6 -8,-8 v -1335 c 0,-4.4 3.6,-8 8,-8 h 656 c 4.4,0 8,3.6 8,8 v 1335 z"
     inkscape:connector-curvature="0"
     style="fill:#3f4146" /><path
     id="path3084"
     d="m 696,1467.1059 c 0,4.4 -3.6,8 -8,8 H 32 c -4.4,0 -8,-3.6 -8,-8 V 132.10593 c 0,-4.4 3.6,-8 8,-8 h 656 c 4.4,0 8,3.6 8,8 V 1467.1059 z"
     inkscape:connector-curvature="0"
     style="fill:#3f4146" /><linearGradient
     id="SVGID_2_"
     gradientUnits="userSpaceOnUse"
     x1="24"
     y1="1297"
     x2="696"
     y2="1297"
     gradientTransform="matrix(1 0 0 -1 0 1509)"><stop
       offset="0.735"
       style="stop-color:#191B1E"
       id="stop15" /><stop
       offset="0.8353"
       style="stop-color:#202124"
       id="stop17" /></linearGradient><path
     fill="url(#SVGID_2_)"
     d="M556.23,111c-32.154,23.465-71.771,37.325-114.627,37.325c-42.865,0-82.482-13.86-114.638-37.325  H196.543c3.243,10.074,9.877,23.832,22.311,42.818c26.338,40.197,51.352,60.38,63.634,82.179  c12.271,21.804,3.558,32.569,0.18,34.632c-3.355,2.071-16.912,4.983-30.788-15.84c-13.895-20.821-20.572-52.25-44.506-93.934  c-20.986-36.54-34.971-47.107-43.734-49.855H24v202h672V111H556.23z"
     id="path19" /><g
     id="g21"><image
       sodipodi:absref="/home/carl/Documents/work/android/res/raw-ja/ED4A8B819397899E.png"
       xlink:href="ED4A8B819397899E.png"
       id="image23"
       transform="matrix(0.9964 0 0 0.9878 305.0527 91.0527)"
       height="82"
       width="274"
       enable-background="new    "
       opacity="0.1"
       overflow="visible" /><g
       id="g25"><path
         fill="#2B2D32"
         d="M556.23,111H326.967c32.154,23.465,71.771,37.325,114.639,37.325    C484.461,148.325,524.076,134.465,556.23,111z"
         id="path27" /></g></g><g
     id="g29"><image
       sodipodi:absref="/home/carl/Documents/work/android/res/raw-ja/ED4A8B81939789A2.png"
       xlink:href="ED4A8B81939789A2.png"
       id="image31"
       transform="matrix(0.9941 0 0 0.9951 142.0532 91.0527)"
       height="205"
       width="169"
       enable-background="new    "
       opacity="0.1"
       overflow="visible" /><g
       id="g33"><path
         fill="#3F4146"
         d="M207.373,160.855c23.934,41.684,30.611,73.113,44.506,93.934c13.876,20.823,27.433,17.911,30.788,15.84    c3.378-2.062,12.091-12.828-0.18-34.632c-12.282-21.798-37.296-41.982-63.634-82.179c-12.434-18.987-19.067-32.744-22.311-42.818    h-32.904C172.402,113.748,186.387,124.315,207.373,160.855z"
         id="path35" /></g></g><path
     style="fill:#ffffff"
     inkscape:connector-curvature="0"
     id="path39"
     d="m 351.199,394.225 c 1.029,0 1.784,-0.409 2.263,-1.229 0.479,-0.82 0.718,-1.9 0.718,-3.24 v -0.287 c 0,-1.312 -0.24,-2.384 -0.725,-3.213 -0.485,-0.829 -1.244,-1.244 -2.283,-1.244 -1.03,0 -1.784,0.417 -2.263,1.251 -0.479,0.834 -0.718,1.902 -0.718,3.206 v 0.287 c 0,1.349 0.236,2.433 0.711,3.247 0.474,0.814 1.24,1.222 2.297,1.222 z" /><path
     style="fill:#ffffff"
     inkscape:connector-curvature="0"
     id="path41"
     d="m 235.781,388.1 v -0.301 c 0,-0.866 -0.178,-1.547 -0.533,-2.044 -0.355,-0.497 -0.93,-0.745 -1.723,-0.745 -0.802,0 -1.42,0.275 -1.853,0.827 -0.433,0.552 -0.695,1.283 -0.786,2.194 l 0.027,0.067 4.868,0.002 0,0 z" /><path
     style="fill:#ffffff"
     inkscape:connector-curvature="0"
     id="path43"
     d="m 364.522,391.148 c -0.434,0.419 -0.649,0.935 -0.649,1.545 0,0.501 0.162,0.899 0.485,1.195 0.322,0.297 0.771,0.444 1.347,0.444 0.691,0 1.312,-0.173 1.859,-0.52 0.547,-0.348 0.921,-0.747 1.12,-1.203 v -2.093 h -2.241 c -0.847,0.004 -1.488,0.213 -1.921,0.632 z" /><path
     style="fill:#ffffff"
     inkscape:connector-curvature="0"
     id="path45"
     d="m 334.021,393.828 c 0.433,0.237 0.964,0.354 1.593,0.354 1.029,0 1.75,-0.361 2.16,-1.087 0.409,-0.725 0.614,-1.752 0.614,-3.083 v -0.287 c 0,-1.439 -0.212,-2.582 -0.636,-3.425 -0.424,-0.843 -1.146,-1.265 -2.167,-1.265 -0.62,0 -1.144,0.13 -1.572,0.39 -0.428,0.26 -0.766,0.631 -1.012,1.114 v 6.262 c 0.247,0.448 0.587,0.79 1.02,1.027 z" /><path
     style="fill:#ffffff"
     inkscape:connector-curvature="0"
     id="path47"
     d="m 252.878,391.148 c -0.433,0.419 -0.649,0.935 -0.649,1.545 0,0.501 0.162,0.899 0.485,1.195 0.323,0.297 0.772,0.444 1.347,0.444 0.692,0 1.312,-0.173 1.859,-0.52 0.547,-0.348 0.921,-0.747 1.121,-1.203 v -2.093 h -2.242 c -0.848,0.004 -1.488,0.213 -1.921,0.632 z" /><path
     style="fill:#ffffff"
     inkscape:connector-curvature="0"
     id="path49"
     d="m 391.422,394.184 c 0.574,0 1.075,-0.115 1.504,-0.349 0.43,-0.233 0.779,-0.572 1.053,-1.019 v -6.304 c -0.272,-0.465 -0.621,-0.827 -1.046,-1.087 -0.424,-0.26 -0.918,-0.39 -1.482,-0.39 -0.977,0 -1.688,0.433 -2.141,1.299 -0.451,0.866 -0.677,1.996 -0.677,3.391 v 0.287 c 0,1.294 0.219,2.312 0.656,3.057 0.437,0.743 1.149,1.115 2.133,1.115 z" /><path
     style="fill:#ffffff"
     inkscape:connector-curvature="0"
     id="path51"
     d="m 196.352,388.1 v -0.301 c 0,-0.866 -0.178,-1.547 -0.533,-2.044 -0.355,-0.497 -0.93,-0.745 -1.723,-0.745 -0.802,0 -1.42,0.275 -1.853,0.827 -0.433,0.552 -0.695,1.283 -0.786,2.194 l 0.027,0.067 4.868,0.002 0,0 z" /><path
     style="fill:#ffffff"
     inkscape:connector-curvature="0"
     id="path53"
     d="m 259,543 c 61.854,0 115.8,-33.834 144.357,-84 H 114.643 C 143.2,509.166 197.146,543 259,543 z" /><path
     style="fill:#ffffff"
     inkscape:connector-curvature="0"
     id="path55"
     d="m 292.957,385.01 c -0.802,0 -1.42,0.275 -1.853,0.827 -0.433,0.552 -0.695,1.283 -0.786,2.194 l 0.027,0.067 h 4.867 v -0.301 c 0,-0.866 -0.178,-1.547 -0.533,-2.044 -0.355,-0.497 -0.929,-0.743 -1.722,-0.743 z" /><path
     style="fill:#ffffff"
     inkscape:connector-curvature="0"
     id="path57"
     d="m 136,345 0,80 -35.942,0 c 3.382,11.213 7.915,21.926 13.467,32 l 290.951,0 C 417.552,433.272 425,406.008 425,377 c 0,-22.688 -4.556,-44.302 -12.794,-64 l -306.412,0 c -4.263,10.19 -7.532,20.897 -9.7,32 z"
     sodipodi:nodetypes="cccccscccc" /><path
     d="m 206.476,391.148 c -0.433,0.419 -0.649,0.935 -0.649,1.545 0,0.501 0.162,0.899 0.485,1.195 0.323,0.297 0.772,0.444 1.347,0.444 0.692,0 1.312,-0.173 1.859,-0.52 0.547,-0.348 0.921,-0.747 1.121,-1.203 v -2.093 h -2.242 c -0.848,0.004 -1.489,0.213 -1.921,0.632 z"
     id="path3064"
     inkscape:connector-curvature="0"
     style="fill:#ffffff" /><path
     d="m 206.476,391.148 c -0.433,0.419 -0.649,0.935 -0.649,1.545 0,0.501 0.162,0.899 0.485,1.195 0.323,0.297 0.772,0.444 1.347,0.444 0.692,0 1.312,-0.173 1.859,-0.52 0.547,-0.348 0.921,-0.747 1.121,-1.203 v -2.093 h -2.242 c -0.848,0.004 -1.489,0.213 -1.921,0.632 z"
     id="path3066"
     inkscape:connector-curvature="0"
     style="fill:#ffffff" /><path
     style="fill:#ffffff"
     inkscape:connector-curvature="0"
     id="path59"
     d="m 206.476,391.148 c -0.433,0.419 -0.649,0.935 -0.649,1.545 0,0.501 0.162,0.899 0.485,1.195 0.323,0.297 0.772,0.444 1.347,0.444 0.692,0 1.312,-0.173 1.859,-0.52 0.547,-0.348 0.921,-0.747 1.121,-1.203 v -2.093 h -2.242 c -0.848,0.004 -1.489,0.213 -1.921,0.632 z" /><path
     style="fill:#d4d4d4"
     inkscape:connector-curvature="0"
     id="path61"
     d="m 259,211 c -68.995,0 -128.152,42.095 -153.206,102 H 412.206 C 387.152,253.095 327.994,211 259,211 z" /><path
     style="fill:#d4d4d4"
     inkscape:connector-curvature="0"
     id="path63"
     d="M 136,345 H 96.094 C 94.071,355.355 93,366.052 93,377 c 0,16.691 2.475,32.803 7.058,48 H 136 v -80 z" /><path
     style="fill:#dfdfdf"
     inkscape:connector-curvature="0"
     id="path65"
     d="m 114.643,459 h 288.715 c 0.378,-0.663 0.749,-1.331 1.117,-2 H 113.524 c 0.369,0.669 0.741,1.337 1.119,2 z" /><path
     fill="#5A5B5D"
     d="M96.094,345c-1.441,7.375-2.389,14.925-2.821,22.613h6.613v13.613H114.5V390H99.887v13.613h-4.752  c1.179,7.298,2.828,14.439,4.923,21.387H136v-80H96.094z"
     id="path67" /><g
     style="font-size:40px;font-style:normal;font-weight:normal;line-height:125%;letter-spacing:0px;word-spacing:0px;fill:#3f4146;fill-opacity:1;stroke:none;font-family:Sans"
     id="text3046"><path
       d="m 164.12645,389.52609 c 0.0426,0.55468 0.0746,1.15201 0.096,1.792 0.0426,0.61867 0.064,1.23734 0.064,1.856 l 0,5.536 -2.048,0 0,-5.504 c -1e-5,-0.57599 -1e-5,-1.16266 0,-1.76 -1e-5,-0.61866 0.0213,-1.20532 0.064,-1.76 -0.59734,1.21601 -1.29068,2.41067 -2.08,3.584 -0.78934,1.15201 -1.66401,2.21867 -2.624,3.2 l -1.216,-1.696 c 0.91733,-0.93866 1.85599,-2.04799 2.816,-3.328 0.98132,-1.30132 1.84532,-2.76266 2.592,-4.384 l -4.928,0 0,-1.76 5.376,0 0,-3.36 -5.6,0 0,-1.792 3.2,0 -0.768,-5.024 -1.952,0 0,-1.76 5.12,0 0,-3.296 2.016,0 0,3.296 5.12,0 0,1.76 -1.824,0 -0.864,5.024 3.04,0 0,1.792 -5.44,0 0,3.36 4.832,0 0,1.76 -4.544,0 c 0.57599,1.21601 1.25865,2.34668 2.048,3.392 0.81065,1.02401 1.61065,1.94134 2.4,2.752 l -1.184,1.728 c -0.68268,-0.74666 -1.33335,-1.55733 -1.952,-2.432 -0.61868,-0.89599 -1.20535,-1.88799 -1.76,-2.976 m 18.08,-17.568 c -1.49336,0.72536 -3.00803,1.30136 -4.544,1.728 -1.51469,0.40536 -3.08269,0.73603 -4.704,0.992 l 0,5.92 9.984,0 0,1.76 -3.648,0 0,16.416 -2.016,0 0,-16.416 -4.32,0 c -2e-5,2.04802 -0.064,3.87201 -0.192,5.472 -0.10669,1.60001 -0.30935,3.05068 -0.608,4.352 -0.27735,1.30134 -0.66135,2.48534 -1.152,3.552 -0.49069,1.06667 -1.12002,2.09067 -1.888,3.072 l -1.568,-1.44 c 0.68265,-0.91733 1.23732,-1.84533 1.664,-2.784 0.44798,-0.95999 0.79998,-2.02666 1.056,-3.2 0.25598,-1.19466 0.42665,-2.54932 0.512,-4.064 0.10665,-1.53599 0.15998,-3.33865 0.16,-5.408 l 0,-8.832 c 2.00531,-0.17064 3.89331,-0.51197 5.664,-1.024 1.79197,-0.51197 3.26397,-1.09864 4.416,-1.76 l 1.184,1.664 m -20.448,8.192 3.008,0 0.864,-5.024 -4.64,0 0.768,5.024"
       style="font-size:32px;fill:#3f4146"
       id="path3027" /><path
       d="m 189.67082,370.54422 2.65625,0 0,17.82812 c -1e-5,1.67709 0.27604,2.92188 0.82813,3.73438 0.67707,0.95834 1.8854,1.4375 3.625,1.4375 3.99998,0 7.22914,-2.46354 9.6875,-7.39063 l 1.89062,1.95313 c -1.16669,2.27084 -2.74481,4.11459 -4.73437,5.53125 -2.12502,1.5625 -4.39585,2.34375 -6.8125,2.34375 -4.76043,0 -7.14063,-2.45312 -7.14063,-7.35938 l 0,-18.07812"
       style="font-size:32px;fill:#3f4146"
       id="path3029" /><path
       d="m 225.13957,387.73172 c -1.54168,4.41667 -3.35938,6.625 -5.45312,6.625 -1.04168,0 -2.09376,-0.59896 -3.15625,-1.79688 -1.45834,-1.60416 -2.46355,-4.07811 -3.01563,-7.42187 -0.51042,-3.0729 -0.76563,-6.98436 -0.76562,-11.73438 l 2.65625,0 c -0.0313,6.22919 0.37499,10.83856 1.21875,13.82813 0.82291,2.89584 1.84374,4.34375 3.0625,4.34375 1.1354,0 2.21353,-1.85416 3.23437,-5.5625 l 2.21875,1.71875 m 10.04688,0.76562 c -1.60419,-4.54165 -3.84377,-8.73435 -6.71875,-12.57812 l 2.26562,-1.10938 c 2.8854,3.53127 5.20831,7.64585 6.96875,12.34375 l -2.51562,1.34375"
       style="font-size:32px;fill:#3f4146"
       id="path3031" /><path
       d="m 253.38957,370.07547 2.53125,0 0,5.92187 10.51563,0 0,2.26563 -10.51563,0 0,14.71875 c -1e-5,1.8125 -1.0573,2.71875 -3.17187,2.71875 -1.38543,0 -2.76043,-0.125 -4.125,-0.375 l -0.54688,-2.65625 c 1.30208,0.33334 2.64582,0.5 4.03125,0.5 0.85416,0 1.28124,-0.42708 1.28125,-1.28125 l 0,-13.625 -10.75,0 0,-2.26563 10.75,0 0,-5.92187 m 10.14063,4.5 c -0.81253,-1.56248 -1.71877,-2.93748 -2.71875,-4.125 l 1.79687,-0.89063 c 0.8854,0.95836 1.84373,2.31253 2.875,4.0625 l -1.95312,0.95313 m -21.98438,16.10937 c 2.3125,-2.38541 4.11458,-5.47915 5.40625,-9.28125 l 2.3125,1.01563 c -1.26042,3.97918 -3.14063,7.3698 -5.64062,10.17187 l -2.07813,-1.90625 m 23.45313,1.04688 c -1.76044,-3.67708 -3.67711,-6.84374 -5.75,-9.5 l 2.14062,-1.34375 c 2.34373,2.93751 4.34893,6.02084 6.01563,9.25 l -2.40625,1.59375 m 2.01562,-18.46875 c -0.92711,-1.62498 -1.89586,-2.94268 -2.90625,-3.95313 l 1.79688,-0.96875 c 0.99997,1.00003 2.01039,2.30211 3.03125,3.90625 l -1.92188,1.01563"
       style="font-size:32px;fill:#3f4146"
       id="path3033" /><path
       d="m 271.54582,381.52859 26.10938,0 0,2.5625 -26.10938,0 0,-2.5625"
       style="font-size:32px;fill:#3f4146"
       id="path3035" /><path
       d="m 305.2802,369.98172 2.59375,0 0,8.95312 c 4.28123,1.95835 8.30206,4.15627 12.0625,6.59375 l -1.6875,2.59375 c -3.54168,-2.6979 -7.00001,-4.89582 -10.375,-6.59375 l 0,14.35938 -2.59375,0 0,-25.90625 m 11.8125,7.67187 c -0.83335,-1.51039 -1.79689,-2.90622 -2.89063,-4.1875 l 1.70313,-1.1875 c 0.8854,0.91669 1.89581,2.30211 3.03125,4.15625 l -1.84375,1.21875 m 3.70312,-1.59375 c -0.96877,-1.66664 -1.96877,-3.01039 -3,-4.03125 l 1.6875,-1.15625 c 1.12498,1.02086 2.18227,2.33336 3.17188,3.9375 l -1.85938,1.25"
       style="font-size:32px;fill:#3f4146"
       id="path3037" /><path
       d="m 327.17082,373.65359 c 1.5,0.12503 3.60937,0.18753 6.32813,0.1875 0.73957,-1.69789 1.30728,-3.2656 1.70312,-4.70312 l 2.375,0.67187 -0.23437,0.64063 c -0.44793,1.22919 -0.89585,2.30731 -1.34375,3.23437 2.18748,-0.10414 4.57811,-0.44268 7.17187,-1.01562 l 0.3125,2.20312 c -2.51043,0.50002 -5.34376,0.82815 -8.5,0.98438 -0.88542,1.79168 -1.88022,3.50002 -2.98437,5.125 1.5729,-1.34373 3.07811,-2.01561 4.51562,-2.01563 2.24999,2e-5 3.74478,1.3646 4.48438,4.09375 2.32289,-1.0104 4.78643,-1.95831 7.39062,-2.84375 l 1.1875,2.10938 c -3.1146,0.91668 -5.83856,1.86459 -8.17187,2.84375 0.1354,0.92709 0.22394,2.47397 0.26562,4.64062 l -2.40625,0.20313 c -10e-6,-1.55208 -0.0313,-2.82291 -0.0937,-3.8125 -3.68751,1.86459 -5.53126,3.50001 -5.53125,4.90625 -10e-6,1.77084 2.59895,2.65625 7.79688,2.65625 1.96873,0 4.02081,-0.14062 6.15625,-0.42188 l 0.1875,2.32813 c -2.40627,0.26042 -4.60419,0.39062 -6.59375,0.39062 -6.6146,0 -9.92189,-1.59895 -9.92188,-4.79687 -10e-6,-2.40624 2.52603,-4.80728 7.57813,-7.20313 -0.54168,-2.05207 -1.45835,-3.07811 -2.75,-3.07812 -2.13543,1e-5 -4.91668,2.29168 -8.34375,6.875 l -1.85938,-1.375 c 2.625,-3.39582 4.83333,-6.90623 6.625,-10.53125 -2.13542,2e-5 -3.92709,-0.0417 -5.375,-0.125 l 0.0312,-2.17188"
       style="font-size:32px;fill:#3f4146"
       id="path3039" /><path
       d="m 367.25195,370.77409 c -0.19202,0.7467 -0.39469,1.48269 -0.608,2.208 -0.21335,0.70403 -0.43735,1.39736 -0.672,2.08 l 13.28,0 0,1.76 -9.472,0 0,5.056 7.552,0 0,1.76 -7.552,0 0,5.216 8.896,0 0,1.76 -8.896,0 0,8.064 -2.016,0 0,-21.856 -2.464,0 c -0.49068,1.21602 -1.05602,2.40002 -1.696,3.552 -0.64001,1.13069 -1.37601,2.27202 -2.208,3.424 l -1.408,-1.504 c 0.59732,-0.78931 1.16265,-1.65331 1.696,-2.592 0.55465,-0.95998 1.05599,-1.96264 1.504,-3.008 0.46932,-1.06664 0.88532,-2.14397 1.248,-3.232 0.36265,-1.10931 0.66132,-2.1973 0.896,-3.264 l 1.92,0.576 m -10.592,27.904 0,-12.736 c -10e-6,-0.63999 -10e-6,-1.37598 0,-2.208 0.0213,-0.83198 0.0533,-1.62132 0.096,-2.368 -0.83201,1.38668 -1.73867,2.67735 -2.72,3.872 l -1.088,-1.824 c 0.72533,-0.89598 1.41866,-1.88798 2.08,-2.976 0.66133,-1.10931 1.25866,-2.25064 1.792,-3.424 0.55466,-1.17331 1.04532,-2.34664 1.472,-3.52 0.42666,-1.19464 0.78932,-2.3253 1.088,-3.392 l 1.856,0.704 c -0.40535,1.23736 -0.82135,2.43203 -1.248,3.584 -0.40534,1.13069 -0.85334,2.24002 -1.344,3.328 l 0,20.96 -1.984,0"
       style="font-size:32px;fill:#3f4146"
       id="path3041" /><path
       d="m 406.33845,379.92609 c -0.51203,1.85602 -1.10936,3.63735 -1.792,5.344 -0.68269,1.70668 -1.51469,3.32801 -2.496,4.864 0.74664,1.79201 1.68531,3.33867 2.816,4.64 0.23464,0.27734 0.45864,0.50134 0.672,0.672 0.21331,0.17067 0.40531,0.256 0.576,0.256 0.27731,0 0.51197,-0.20266 0.704,-0.608 0.17064,-0.29866 0.33064,-0.69333 0.48,-1.184 0.17064,-0.49066 0.3413,-1.06666 0.512,-1.728 l 1.632,1.024 c -0.2347,0.87467 -0.4587,1.57867 -0.672,2.112 -0.19203,0.55467 -0.43736,1.088 -0.736,1.6 -0.44803,0.68267 -1.04536,1.024 -1.792,1.024 -0.36269,0 -0.74669,-0.10666 -1.152,-0.32 -0.40536,-0.192 -0.82136,-0.512 -1.248,-0.96 -1.23736,-1.32266 -2.27202,-2.86933 -3.104,-4.64 -1.02402,1.28001 -2.18669,2.47467 -3.488,3.584 -1.28002,1.13067 -2.78402,2.176 -4.512,3.136 l -1.28,-1.568 c 1.77065,-0.91733 3.34932,-1.984 4.736,-3.2 1.38665,-1.21599 2.60265,-2.57066 3.648,-4.064 -0.66135,-1.81332 -1.17335,-3.78665 -1.536,-5.92 -0.36269,-2.15465 -0.62935,-4.45865 -0.8,-6.912 l -9.408,0 0,4.672 0,0.032 7.328,0 c -0.0213,0.87468 -0.0427,1.74935 -0.064,2.624 -0.0214,0.87468 -0.0534,1.72801 -0.096,2.56 -0.0214,0.83201 -0.064,1.61068 -0.128,2.336 -0.0427,0.72534 -0.10668,1.35468 -0.192,1.888 -0.14935,0.89601 -0.45868,1.47201 -0.928,1.728 -0.44802,0.25601 -1.10935,0.38401 -1.984,0.384 -0.42668,10e-6 -0.81068,-0.0107 -1.152,-0.032 -0.34135,-0.0427 -0.74668,-0.11733 -1.216,-0.224 l -0.352,-1.856 c 0.44799,0.10668 0.88532,0.19201 1.312,0.256 0.42665,0.0427 0.77865,0.064 1.056,0.064 0.57599,1e-5 0.92799,-0.0533 1.056,-0.16 0.12799,-0.12799 0.21332,-0.33066 0.256,-0.608 0.064,-0.27732 0.11732,-0.71466 0.16,-1.312 0.064,-0.59732 0.11732,-1.24799 0.16,-1.952 0.0426,-0.72532 0.0746,-1.43999 0.096,-2.144 0.0213,-0.70398 0.032,-1.31198 0.032,-1.824 l -5.376,0 c -0.0213,1.68535 -0.0853,3.23201 -0.192,4.64 -0.0853,1.40801 -0.25601,2.72001 -0.512,3.936 -0.23468,1.21601 -0.56534,2.35734 -0.992,3.424 -0.40534,1.088 -0.92801,2.144 -1.568,3.168 l -1.792,-1.312 c 0.59733,-0.93866 1.08799,-1.90933 1.472,-2.912 0.40533,-1.00266 0.72533,-2.12266 0.96,-3.36 0.23466,-1.23732 0.39466,-2.61332 0.48,-4.128 0.10666,-1.51465 0.15999,-3.25332 0.16,-5.216 l 0,-6.432 11.328,0 c -0.0427,-0.83197 -0.0747,-1.67464 -0.096,-2.528 -0.0214,-0.87464 -0.0427,-1.75997 -0.064,-2.656 l 1.952,0 c 0.0213,0.89603 0.0426,1.78136 0.064,2.656 0.0213,0.85336 0.0533,1.69603 0.096,2.528 l 9.472,0 0,1.76 -9.376,0 c 0.14931,2.04802 0.35198,3.95735 0.608,5.728 0.27731,1.77068 0.65064,3.42401 1.12,4.96 0.74664,-1.27999 1.38664,-2.63465 1.92,-4.064 0.55464,-1.42932 1.02397,-2.91198 1.408,-4.448 l 1.824,0.672 m -1.952,-5.12 c -0.42669,-0.51197 -0.92803,-1.07731 -1.504,-1.696 -0.57602,-0.63997 -1.17336,-1.18397 -1.792,-1.632 l 1.376,-1.12 c 0.25598,0.19203 0.53331,0.41603 0.832,0.672 0.29864,0.25603 0.59731,0.5227 0.896,0.8 0.31997,0.27736 0.61864,0.56536 0.896,0.864 0.29864,0.27736 0.56531,0.54403 0.8,0.8 l -1.504,1.312"
       style="font-size:32px;fill:#3f4146"
       id="path3043" /></g></svg>